<svg xmlns="http://www.w3.org/2000/svg" width="270" height="100" viewBox="0 0 270 100" fill="none"><g opacity="0.7"><path d="M36.1083 44.975L41.5643 60.375H42.8843L47.0863 48.341H47.1963L51.2663 60.375H52.5643L58.0203 44.975H57.0083L52.4543 57.823H52.3663L48.0763 44.975H47.1303L42.7523 57.757H42.6643L38.1323 44.975H36.1083ZM69.2096 52.719H78.4276V60.375H80.4296V44.975H78.4276V51.707H69.2096V44.975H67.2076V60.375H69.2096V52.719ZM92.4804 44.975V60.375H94.4824V44.975H92.4804ZM112.238 60.375V46.185H118.134V44.975H104.34V46.185H110.236V60.375H112.238ZM127.109 44.975V60.375H137.053V59.165H129.111V52.719H135.931V51.707H129.111V46.185H137.053V44.975H127.109ZM159.824 60.375H165.346C166.329 60.375 167.157 60.2503 167.832 60.001C168.507 59.737 169.049 59.3997 169.46 58.989C169.871 58.5783 170.164 58.1163 170.34 57.603C170.531 57.075 170.626 56.547 170.626 56.019C170.626 55.183 170.443 54.5157 170.076 54.017C169.724 53.5183 169.299 53.137 168.8 52.873C168.301 52.609 167.788 52.433 167.26 52.345C166.732 52.257 166.307 52.2057 165.984 52.191V52.103C166.497 52.103 166.981 52.0077 167.436 51.817C167.891 51.6117 168.287 51.355 168.624 51.047C168.976 50.7243 169.255 50.3577 169.46 49.947C169.665 49.5217 169.768 49.0743 169.768 48.605C169.768 48.1943 169.68 47.7763 169.504 47.351C169.328 46.9257 169.057 46.537 168.69 46.185C168.338 45.833 167.876 45.547 167.304 45.327C166.747 45.0923 166.087 44.975 165.324 44.975H159.824V60.375ZM161.826 59.407V52.675H164.246C164.965 52.675 165.588 52.7703 166.116 52.961C166.644 53.1517 167.077 53.4083 167.414 53.731C167.766 54.0537 168.023 54.4277 168.184 54.853C168.36 55.2783 168.448 55.7257 168.448 56.195C168.448 56.7083 168.353 57.163 168.162 57.559C167.986 57.955 167.744 58.2923 167.436 58.571C167.128 58.8497 166.761 59.0623 166.336 59.209C165.925 59.341 165.485 59.407 165.016 59.407H161.826ZM161.826 51.707V45.943H164.51C165.082 45.943 165.566 46.0237 165.962 46.185C166.373 46.3463 166.703 46.559 166.952 46.823C167.216 47.087 167.407 47.3877 167.524 47.725C167.641 48.0623 167.7 48.3997 167.7 48.737C167.7 49.1623 167.612 49.5583 167.436 49.925C167.275 50.2917 167.04 50.607 166.732 50.871C166.439 51.135 166.094 51.3403 165.698 51.487C165.317 51.6337 164.906 51.707 164.466 51.707H161.826ZM180.264 44.975V60.375H190.208V59.165H182.266V52.719H189.086V51.707H182.266V46.185H190.208V44.975H180.264ZM207.951 55.843L210.063 60.375H212.197L205.025 44.975H203.925L197.413 60.375H198.425L200.361 55.843H207.951ZM207.489 54.853H200.779L203.947 47.439H204.035L207.489 54.853ZM221.401 44.975V60.375H223.403V53.577H224.371C224.781 53.577 225.119 53.6137 225.383 53.687C225.661 53.7603 225.911 53.885 226.131 54.061C226.351 54.237 226.556 54.4643 226.747 54.743C226.937 55.0217 227.165 55.3663 227.429 55.777L229.167 58.351C229.387 58.6883 229.599 58.9963 229.805 59.275C230.025 59.5537 230.259 59.7957 230.509 60.001C230.758 60.1917 231.037 60.3457 231.345 60.463C231.667 60.5803 232.049 60.639 232.489 60.639C232.811 60.639 233.075 60.6243 233.281 60.595C233.486 60.5657 233.691 60.4923 233.897 60.375V59.561C233.823 59.5757 233.75 59.5903 233.677 59.605C233.603 59.605 233.53 59.605 233.457 59.605C233.149 59.605 232.877 59.561 232.643 59.473C232.408 59.385 232.188 59.2603 231.983 59.099C231.777 58.923 231.579 58.7177 231.389 58.483C231.198 58.2337 231 57.955 230.795 57.647C230.179 56.7523 229.702 56.041 229.365 55.513C229.027 54.9703 228.756 54.5523 228.551 54.259C228.36 53.9657 228.199 53.753 228.067 53.621C227.949 53.489 227.803 53.379 227.627 53.291L227.407 53.181V53.093C228.111 53.049 228.712 52.895 229.211 52.631C229.724 52.367 230.142 52.037 230.465 51.641C230.787 51.245 231.022 50.8197 231.169 50.365C231.315 49.8957 231.389 49.441 231.389 49.001C231.389 48.605 231.308 48.1723 231.147 47.703C231 47.2337 230.736 46.801 230.355 46.405C229.988 45.9943 229.482 45.657 228.837 45.393C228.191 45.1143 227.377 44.975 226.395 44.975H221.401ZM223.403 45.943H225.625C226.182 45.943 226.681 46.0237 227.121 46.185C227.575 46.3463 227.964 46.5737 228.287 46.867C228.609 47.1457 228.851 47.483 229.013 47.879C229.189 48.275 229.277 48.7077 229.277 49.177C229.277 49.573 229.196 49.9763 229.035 50.387C228.888 50.783 228.661 51.1497 228.353 51.487C228.045 51.8097 227.663 52.0737 227.209 52.279C226.769 52.4843 226.255 52.587 225.669 52.587H223.403V45.943Z" fill="#F0F0F0"></path><path d="M77.2017 87.1197C77.2203 87.521 77.323 87.885 77.5097 88.2117C77.7057 88.5383 77.967 88.8183 78.2937 89.0517C78.6297 89.2757 79.0217 89.453 79.4697 89.5837C79.9177 89.705 80.4077 89.7657 80.9397 89.7657C81.481 89.7657 81.9663 89.7003 82.3957 89.5697C82.8343 89.439 83.2077 89.2523 83.5157 89.0097C83.8237 88.767 84.0617 88.473 84.2297 88.1277C84.3977 87.7823 84.4817 87.3997 84.4817 86.9797C84.4817 86.401 84.337 85.9297 84.0477 85.5657C83.7583 85.1923 83.3943 84.8843 82.9557 84.6417C82.5263 84.3897 82.055 84.1797 81.5417 84.0117C81.0377 83.8437 80.5663 83.6663 80.1277 83.4797C79.6983 83.293 79.339 83.0783 79.0497 82.8357C78.7603 82.593 78.6157 82.271 78.6157 81.8697C78.6157 81.6457 78.6623 81.4357 78.7557 81.2397C78.8583 81.0437 79.003 80.8757 79.1897 80.7357C79.3857 80.5863 79.6237 80.4697 79.9037 80.3857C80.1837 80.2923 80.5057 80.2457 80.8697 80.2457C81.4763 80.2457 81.9897 80.3763 82.4097 80.6377C82.839 80.8897 83.091 81.291 83.1657 81.8417H84.1177C84.0617 81.4963 83.9357 81.1883 83.7397 80.9177C83.5437 80.6377 83.2963 80.4043 82.9977 80.2177C82.699 80.0217 82.3583 79.877 81.9757 79.7837C81.6023 79.681 81.2103 79.6297 80.7997 79.6297C80.3703 79.6297 79.9597 79.6857 79.5677 79.7977C79.185 79.9097 78.8443 80.073 78.5457 80.2877C78.2563 80.5023 78.023 80.773 77.8457 81.0997C77.6777 81.4263 77.5937 81.7997 77.5937 82.2197C77.5937 82.7703 77.7337 83.2137 78.0137 83.5497C78.2937 83.8857 78.6437 84.1657 79.0637 84.3897C79.493 84.6137 79.955 84.805 80.4497 84.9637C80.9443 85.1223 81.4017 85.3043 81.8217 85.5097C82.251 85.7057 82.6057 85.9483 82.8857 86.2377C83.1657 86.527 83.3057 86.9143 83.3057 87.3997C83.3057 88.0063 83.0817 88.4497 82.6337 88.7297C82.195 89.0097 81.607 89.1497 80.8697 89.1497C80.2817 89.1497 79.8103 89.075 79.4557 88.9257C79.101 88.767 78.8303 88.5803 78.6437 88.3657C78.457 88.151 78.331 87.9317 78.2657 87.7077C78.2003 87.4743 78.163 87.2783 78.1537 87.1197H77.2017ZM90.2554 89.5977H91.5294V86.1537L93.1114 84.4597L96.8354 89.5977H98.2914L93.9234 83.5917L97.4794 79.7977H96.7794L91.5294 85.3137V79.7977H90.2554V89.5977ZM104.088 79.7977V89.5977H105.362V79.7977H104.088ZM120.462 79.7977V89.5977H121.736V85.2717H122.352C122.613 85.2717 122.828 85.295 122.996 85.3417C123.173 85.3883 123.332 85.4677 123.472 85.5797C123.612 85.6917 123.742 85.8363 123.864 86.0137C123.985 86.191 124.13 86.4103 124.298 86.6717L125.404 88.3097C125.544 88.5243 125.679 88.7203 125.81 88.8977C125.95 89.075 126.099 89.229 126.258 89.3597C126.416 89.481 126.594 89.579 126.79 89.6537C126.995 89.7283 127.238 89.7657 127.518 89.7657C127.723 89.7657 127.891 89.7563 128.022 89.7377C128.152 89.719 128.283 89.6723 128.414 89.5977V89.0797C128.367 89.089 128.32 89.0983 128.274 89.1077C128.227 89.1077 128.18 89.1077 128.134 89.1077C127.938 89.1077 127.765 89.0797 127.616 89.0237C127.466 88.9677 127.326 88.8883 127.196 88.7857C127.065 88.6737 126.939 88.543 126.818 88.3937C126.696 88.235 126.57 88.0577 126.44 87.8617C126.048 87.2923 125.744 86.8397 125.53 86.5037C125.315 86.1583 125.142 85.8923 125.012 85.7057C124.89 85.519 124.788 85.3837 124.704 85.2997C124.629 85.2157 124.536 85.1457 124.424 85.0897L124.284 85.0197V84.9637C124.732 84.9357 125.114 84.8377 125.432 84.6697C125.758 84.5017 126.024 84.2917 126.23 84.0397C126.435 83.7877 126.584 83.517 126.678 83.2277C126.771 82.929 126.818 82.6397 126.818 82.3597C126.818 82.1077 126.766 81.8323 126.664 81.5337C126.57 81.235 126.402 80.9597 126.16 80.7077C125.926 80.4463 125.604 80.2317 125.194 80.0637C124.783 79.8863 124.265 79.7977 123.64 79.7977H120.462ZM121.736 80.4137H123.15C123.504 80.4137 123.822 80.465 124.102 80.5677C124.391 80.6703 124.638 80.815 124.844 81.0017C125.049 81.179 125.203 81.3937 125.306 81.6457C125.418 81.8977 125.474 82.173 125.474 82.4717C125.474 82.7237 125.422 82.9803 125.32 83.2417C125.226 83.4937 125.082 83.727 124.886 83.9417C124.69 84.147 124.447 84.315 124.158 84.4457C123.878 84.5763 123.551 84.6417 123.178 84.6417H121.736V80.4137ZM133.652 79.7977V89.5977H139.98V88.8277H134.926V84.7257H139.266V84.0817H134.926V80.5677H139.98V79.7977H133.652ZM144.054 87.1197C144.073 87.521 144.175 87.885 144.362 88.2117C144.558 88.5383 144.819 88.8183 145.146 89.0517C145.482 89.2757 145.874 89.453 146.322 89.5837C146.77 89.705 147.26 89.7657 147.792 89.7657C148.333 89.7657 148.819 89.7003 149.248 89.5697C149.687 89.439 150.06 89.2523 150.368 89.0097C150.676 88.767 150.914 88.473 151.082 88.1277C151.25 87.7823 151.334 87.3997 151.334 86.9797C151.334 86.401 151.189 85.9297 150.9 85.5657C150.611 85.1923 150.247 84.8843 149.808 84.6417C149.379 84.3897 148.907 84.1797 148.394 84.0117C147.89 83.8437 147.419 83.6663 146.98 83.4797C146.551 83.293 146.191 83.0783 145.902 82.8357C145.613 82.593 145.468 82.271 145.468 81.8697C145.468 81.6457 145.515 81.4357 145.608 81.2397C145.711 81.0437 145.855 80.8757 146.042 80.7357C146.238 80.5863 146.476 80.4697 146.756 80.3857C147.036 80.2923 147.358 80.2457 147.722 80.2457C148.329 80.2457 148.842 80.3763 149.262 80.6377C149.691 80.8897 149.943 81.291 150.018 81.8417H150.97C150.914 81.4963 150.788 81.1883 150.592 80.9177C150.396 80.6377 150.149 80.4043 149.85 80.2177C149.551 80.0217 149.211 79.877 148.828 79.7837C148.455 79.681 148.063 79.6297 147.652 79.6297C147.223 79.6297 146.812 79.6857 146.42 79.7977C146.037 79.9097 145.697 80.073 145.398 80.2877C145.109 80.5023 144.875 80.773 144.698 81.0997C144.53 81.4263 144.446 81.7997 144.446 82.2197C144.446 82.7703 144.586 83.2137 144.866 83.5497C145.146 83.8857 145.496 84.1657 145.916 84.3897C146.345 84.6137 146.807 84.805 147.302 84.9637C147.797 85.1223 148.254 85.3043 148.674 85.5097C149.103 85.7057 149.458 85.9483 149.738 86.2377C150.018 86.527 150.158 86.9143 150.158 87.3997C150.158 88.0063 149.934 88.4497 149.486 88.7297C149.047 89.0097 148.459 89.1497 147.722 89.1497C147.134 89.1497 146.663 89.075 146.308 88.9257C145.953 88.767 145.683 88.5803 145.496 88.3657C145.309 88.151 145.183 87.9317 145.118 87.7077C145.053 87.4743 145.015 87.2783 145.006 87.1197H144.054ZM156.128 84.6977C156.128 85.2203 156.226 85.7803 156.422 86.3777C156.627 86.9657 156.944 87.5117 157.374 88.0157C157.803 88.5197 158.349 88.9397 159.012 89.2757C159.674 89.6023 160.468 89.7657 161.392 89.7657C162.017 89.7657 162.582 89.691 163.086 89.5417C163.599 89.383 164.056 89.173 164.458 88.9117C164.868 88.6503 165.223 88.3517 165.522 88.0157C165.82 87.6703 166.063 87.311 166.25 86.9377C166.446 86.555 166.59 86.1723 166.684 85.7897C166.786 85.407 166.838 85.043 166.838 84.6977C166.838 84.175 166.73 83.6197 166.516 83.0317C166.301 82.4343 165.97 81.8837 165.522 81.3797C165.074 80.8757 164.504 80.4603 163.814 80.1337C163.132 79.7977 162.325 79.6297 161.392 79.6297C160.468 79.6297 159.674 79.793 159.012 80.1197C158.349 80.4463 157.803 80.8617 157.374 81.3657C156.944 81.8603 156.627 82.4063 156.422 83.0037C156.226 83.601 156.128 84.1657 156.128 84.6977ZM157.5 84.6977C157.5 84.0443 157.598 83.447 157.794 82.9057C157.999 82.355 158.274 81.8837 158.62 81.4917C158.974 81.0997 159.39 80.7963 159.866 80.5817C160.342 80.3577 160.86 80.2457 161.42 80.2457C161.97 80.2457 162.488 80.3577 162.974 80.5817C163.468 80.7963 163.898 81.0997 164.262 81.4917C164.635 81.8837 164.929 82.355 165.144 82.9057C165.358 83.447 165.466 84.0443 165.466 84.6977C165.466 85.351 165.358 85.953 165.144 86.5037C164.929 87.045 164.635 87.5117 164.262 87.9037C163.898 88.2957 163.468 88.6037 162.974 88.8277C162.488 89.0423 161.97 89.1497 161.42 89.1497C160.86 89.1497 160.342 89.0423 159.866 88.8277C159.39 88.6037 158.974 88.2957 158.62 87.9037C158.274 87.5117 157.999 87.045 157.794 86.5037C157.598 85.953 157.5 85.351 157.5 84.6977ZM172.363 79.7977V89.5977H173.637V85.2717H174.253C174.514 85.2717 174.729 85.295 174.897 85.3417C175.074 85.3883 175.233 85.4677 175.373 85.5797C175.513 85.6917 175.643 85.8363 175.765 86.0137C175.886 86.191 176.031 86.4103 176.199 86.6717L177.305 88.3097C177.445 88.5243 177.58 88.7203 177.711 88.8977C177.851 89.075 178 89.229 178.159 89.3597C178.317 89.481 178.495 89.579 178.691 89.6537C178.896 89.7283 179.139 89.7657 179.419 89.7657C179.624 89.7657 179.792 89.7563 179.923 89.7377C180.053 89.719 180.184 89.6723 180.315 89.5977V89.0797C180.268 89.089 180.221 89.0983 180.175 89.1077C180.128 89.1077 180.081 89.1077 180.035 89.1077C179.839 89.1077 179.666 89.0797 179.517 89.0237C179.367 88.9677 179.227 88.8883 179.097 88.7857C178.966 88.6737 178.84 88.543 178.719 88.3937C178.597 88.235 178.471 88.0577 178.341 87.8617C177.949 87.2923 177.645 86.8397 177.431 86.5037C177.216 86.1583 177.043 85.8923 176.913 85.7057C176.791 85.519 176.689 85.3837 176.605 85.2997C176.53 85.2157 176.437 85.1457 176.325 85.0897L176.185 85.0197V84.9637C176.633 84.9357 177.015 84.8377 177.333 84.6697C177.659 84.5017 177.925 84.2917 178.131 84.0397C178.336 83.7877 178.485 83.517 178.579 83.2277C178.672 82.929 178.719 82.6397 178.719 82.3597C178.719 82.1077 178.667 81.8323 178.565 81.5337C178.471 81.235 178.303 80.9597 178.061 80.7077C177.827 80.4463 177.505 80.2317 177.095 80.0637C176.684 79.8863 176.166 79.7977 175.541 79.7977H172.363ZM173.637 80.4137H175.051C175.405 80.4137 175.723 80.465 176.003 80.5677C176.292 80.6703 176.539 80.815 176.745 81.0017C176.95 81.179 177.104 81.3937 177.207 81.6457C177.319 81.8977 177.375 82.173 177.375 82.4717C177.375 82.7237 177.323 82.9803 177.221 83.2417C177.127 83.4937 176.983 83.727 176.787 83.9417C176.591 84.147 176.348 84.315 176.059 84.4457C175.779 84.5763 175.452 84.6417 175.079 84.6417H173.637V80.4137ZM189.179 89.5977V80.5677H192.931V79.7977H184.153V80.5677H187.905V89.5977H189.179Z" fill="#F0F0F0"></path><path d="M116.346 28V18.97H120.098V18.2H111.32V18.97H115.072V28H116.346ZM126.474 23.128H132.34V28H133.614V18.2H132.34V22.484H126.474V18.2H125.2V28H126.474V23.128ZM140.113 18.2V28H146.441V27.23H141.387V23.128H145.727V22.484H141.387V18.97H146.441V18.2H140.113Z" fill="#F0F0F0"></path></g></svg>