<svg xmlns="http://www.w3.org/2000/svg" width="270" height="100" viewBox="0 0 270 100" fill="none"><path opacity="0.7" d="M78.7282 35.5629C82.0052 35.5629 84.5916 35.7796 86.4874 36.2129C88.4103 36.6462 89.7915 37.3368 90.6311 38.2847C91.4978 39.2326 91.9311 40.5191 91.9311 42.1441C91.9311 44.3107 91.2811 45.9086 89.9811 46.9377C88.6811 47.9669 86.6093 48.6304 83.7656 48.9283C86.0947 49.1179 87.9634 49.4835 89.3718 50.0252C90.7801 50.5669 91.8092 51.3658 92.4592 52.422C93.1363 53.4512 93.4748 54.8189 93.4748 56.5251C93.4748 58.4209 92.9602 59.9105 91.9311 60.9938C90.9019 62.0771 89.304 62.849 87.1374 63.3094C84.9979 63.7698 82.1135 64 78.4844 64H66.2565V63.1875L67.7596 62.8625C68.1658 62.7813 68.4231 62.6865 68.5314 62.5781C68.6668 62.4698 68.7346 62.2667 68.7346 61.9688V37.5941C68.7346 37.2962 68.6668 37.0931 68.5314 36.9848C68.4231 36.8764 68.1658 36.7816 67.7596 36.7004L66.2565 36.3754V35.5629H78.7282ZM79.0125 48.4002C80.6917 48.4002 81.9375 47.8856 82.75 46.8565C83.5625 45.8273 83.9687 44.2565 83.9687 42.1441C83.9687 40.3295 83.5625 38.9889 82.75 38.1222C81.9646 37.2285 80.7188 36.7816 79.0125 36.7816H77.0219V48.4002H79.0125ZM77.0219 62.7813H78.85C83.0208 62.7813 85.1062 60.6959 85.1062 56.5251C85.1062 54.0876 84.6729 52.3273 83.8062 51.2439C82.9396 50.1606 81.3958 49.619 79.175 49.619H77.0219V62.7813ZM112.234 46.694C112.234 46.3961 112.167 46.193 112.031 46.0846C111.923 45.9763 111.666 45.8815 111.259 45.8003L109.838 45.4753V44.744L119.669 43.5253H120.359V62.05C120.359 62.3479 120.413 62.5511 120.522 62.6594C120.657 62.7677 120.928 62.8625 121.334 62.9438L122.756 63.2688V64H114.509C113.724 64 113.155 63.8375 112.803 63.5125C112.478 63.1604 112.316 62.6188 112.316 61.8875V61.4407C111.341 62.2802 110.108 62.9979 108.619 63.5938C107.129 64.1896 105.477 64.4875 103.663 64.4875C101.144 64.4875 99.3429 63.9594 98.2596 62.9031C97.1762 61.8469 96.6346 60.2626 96.6346 58.1501V46.694C96.6346 46.3961 96.5669 46.193 96.4315 46.0846C96.3231 45.9763 96.0658 45.8815 95.6596 45.8003L94.2377 45.4753V44.744L104.069 43.5253H104.759V58.8813C104.759 60.1001 104.949 60.9667 105.328 61.4813C105.734 61.9959 106.398 62.2532 107.319 62.2532C108.944 62.2532 110.582 61.5761 112.234 60.2219V46.694ZM132.288 53.6001C132.315 56.6064 132.789 58.8949 133.71 60.4657C134.658 62.0365 136.418 62.8219 138.991 62.8219C140.264 62.8219 141.388 62.6323 142.363 62.2532C143.365 61.874 144.394 61.3323 145.45 60.6282L145.979 61.4C143.46 63.4583 140.129 64.4875 135.985 64.4875C132.248 64.4875 129.295 63.5938 127.129 61.8063C124.989 59.9917 123.92 57.3511 123.92 53.8845C123.92 50.6075 125.016 48.1023 127.21 46.369C129.404 44.6357 132.478 43.769 136.432 43.769C138.68 43.769 140.576 44.1211 142.119 44.8253C143.663 45.5294 144.8 46.4773 145.532 47.669C146.29 48.8336 146.669 50.1335 146.669 51.5689C146.669 52.3002 146.601 52.9772 146.466 53.6001H132.288ZM136.188 44.744C134.699 44.744 133.683 45.3669 133.141 46.6127C132.6 47.8586 132.315 49.8356 132.288 52.5439H139.113V49.4971C139.113 47.845 138.91 46.6398 138.504 45.8815C138.125 45.1232 137.353 44.744 136.188 44.744ZM173.959 62.05C173.959 62.3479 174.013 62.5511 174.121 62.6594C174.257 62.7677 174.527 62.8625 174.934 62.9438L176.355 63.2688V64H167.906C167.174 64 166.646 63.8104 166.321 63.4313C165.996 63.0521 165.834 62.4834 165.834 61.725V49.3752C165.834 48.1565 165.631 47.2898 165.224 46.7752C164.845 46.2607 164.195 46.0034 163.274 46.0034C161.649 46.0034 159.984 46.6805 158.278 48.0346V62.05C158.278 62.3479 158.332 62.5646 158.44 62.7C158.575 62.8084 158.833 62.9031 159.212 62.9844L160.593 63.2688V64H147.756V63.2688L149.178 62.9438C149.584 62.8625 149.841 62.7677 149.95 62.6594C150.085 62.5511 150.153 62.3479 150.153 62.05V46.694C150.153 46.3961 150.085 46.193 149.95 46.0846C149.841 45.9763 149.584 45.8815 149.178 45.8003L147.756 45.4753V44.744L157.506 43.5253H158.196V46.8159C159.225 45.9763 160.485 45.2586 161.974 44.6628C163.464 44.067 165.116 43.769 166.931 43.769C169.449 43.769 171.25 44.2972 172.334 45.3534C173.417 46.4096 173.959 47.994 173.959 50.1064V62.05ZM202.783 54.1283C202.783 57.622 201.687 60.2219 199.493 61.9282C197.326 63.6344 194.198 64.4875 190.109 64.4875C186.019 64.4875 182.878 63.6344 180.684 61.9282C178.517 60.2219 177.434 57.622 177.434 54.1283C177.434 50.6346 178.517 48.0346 180.684 46.3284C182.878 44.6222 186.019 43.769 190.109 43.769C194.198 43.769 197.326 44.6222 199.493 46.3284C201.687 48.0346 202.783 50.6346 202.783 54.1283ZM185.884 54.1283C185.884 56.5386 185.992 58.3938 186.209 59.6938C186.452 60.9938 186.872 61.9417 187.468 62.5375C188.064 63.1333 188.944 63.4313 190.109 63.4313C191.273 63.4313 192.153 63.1333 192.749 62.5375C193.345 61.9417 193.751 60.9938 193.968 59.6938C194.212 58.3938 194.334 56.5386 194.334 54.1283C194.334 51.7179 194.212 49.8627 193.968 48.5627C193.751 47.2627 193.345 46.3148 192.749 45.719C192.153 45.1232 191.273 44.8253 190.109 44.8253C188.944 44.8253 188.064 45.1232 187.468 45.719C186.872 46.3148 186.452 47.2627 186.209 48.5627C185.992 49.8627 185.884 51.7179 185.884 54.1283Z" fill="#F0F0F0"></path></svg>