<svg xmlns="http://www.w3.org/2000/svg" width="270" height="100" viewBox="0 0 270 100" fill="none"><g opacity="0.7"><path d="M121.386 48.3771C119.29 48.3771 117.394 48.0182 115.7 47.3002C114.034 46.5823 112.713 45.5484 111.737 44.1987C110.76 42.8489 110.258 41.2551 110.229 39.4171H116.691C116.777 40.652 117.207 41.6284 117.983 42.3464C118.787 43.0643 119.878 43.4233 121.257 43.4233C122.664 43.4233 123.77 43.093 124.574 42.4325C125.378 41.7433 125.78 40.853 125.78 39.7618C125.78 38.8715 125.507 38.1392 124.961 37.5648C124.416 36.9905 123.726 36.5454 122.894 36.2295C122.09 35.8848 120.97 35.5115 119.534 35.1095C117.581 34.5351 115.987 33.9751 114.752 33.4295C113.546 32.8551 112.498 32.0079 111.607 30.8879C110.746 29.7392 110.315 28.2171 110.315 26.3218C110.315 24.5412 110.76 22.9905 111.651 21.6695C112.541 20.3484 113.79 19.3433 115.398 18.6541C117.006 17.9361 118.844 17.5771 120.912 17.5771C124.014 17.5771 126.526 18.3382 128.451 19.8602C130.403 21.3536 131.48 23.45 131.681 26.1495H125.047C124.99 25.1156 124.545 24.2684 123.712 23.6079C122.908 22.9187 121.831 22.5741 120.481 22.5741C119.304 22.5741 118.356 22.8756 117.638 23.4787C116.949 24.0818 116.604 24.9577 116.604 26.1064C116.604 26.9105 116.863 27.5854 117.38 28.131C117.925 28.6479 118.586 29.0787 119.361 29.4233C120.165 29.7392 121.285 30.1125 122.721 30.5433C124.674 31.1177 126.268 31.692 127.503 32.2664C128.738 32.8407 129.8 33.7023 130.691 34.851C131.581 35.9997 132.026 37.5074 132.026 39.3741C132.026 40.9823 131.61 42.4756 130.777 43.8541C129.944 45.2325 128.723 46.3382 127.115 47.171C125.507 47.9751 123.597 48.3771 121.386 48.3771Z" fill="#F0F0F0"></path><path d="M142.518 18.0078V36.617C142.518 38.656 143.049 40.2211 144.112 41.3124C145.174 42.375 146.668 42.9063 148.592 42.9063C150.545 42.9063 152.052 42.375 153.115 41.3124C154.178 40.2211 154.709 38.656 154.709 36.617V18.0078H160.783V36.574C160.783 39.1299 160.223 41.2981 159.103 43.0786C158.011 44.8304 156.532 46.1514 154.666 47.0417C152.828 47.9319 150.774 48.377 148.506 48.377C146.266 48.377 144.227 47.9319 142.389 47.0417C140.58 46.1514 139.144 44.8304 138.081 43.0786C137.019 41.2981 136.487 39.1299 136.487 36.574V18.0078H142.518Z" fill="#F0F0F0"></path><path d="M149.473 52.0379C151.569 52.0379 153.465 52.3969 155.159 53.1148C156.825 53.8328 158.146 54.8666 159.122 56.2163C160.099 57.5661 160.601 59.1599 160.63 60.9979H154.168C154.082 59.763 153.651 58.7866 152.876 58.0687C152.072 57.3507 150.981 56.9917 149.602 56.9917C148.195 56.9917 147.089 57.322 146.285 57.9825C145.481 58.6717 145.079 59.562 145.079 60.6533C145.079 61.5435 145.352 62.2758 145.898 62.8502C146.443 63.4246 147.132 63.8697 147.965 64.1856C148.769 64.5302 149.889 64.9035 151.325 65.3056C153.278 65.8799 154.872 66.4399 156.107 66.9856C157.313 67.5599 158.361 68.4071 159.251 69.5271C160.113 70.6758 160.544 72.1979 160.544 74.0933C160.544 75.8738 160.099 77.4246 159.208 78.7456C158.318 80.0666 157.069 81.0717 155.461 81.761C153.852 82.4789 152.014 82.8379 149.947 82.8379C146.845 82.8379 144.332 82.0769 142.408 80.5548C140.456 79.0615 139.379 76.9651 139.178 74.2656H145.811C145.869 75.2994 146.314 76.1466 147.147 76.8071C147.951 77.4964 149.028 77.841 150.378 77.841C151.555 77.841 152.503 77.5394 153.221 76.9364C153.91 76.3333 154.254 75.4574 154.254 74.3087C154.254 73.5046 153.996 72.8297 153.479 72.284C152.933 71.7671 152.273 71.3364 151.498 70.9917C150.693 70.6758 149.573 70.3025 148.138 69.8717C146.185 69.2974 144.591 68.723 143.356 68.1487C142.121 67.5743 141.059 66.7128 140.168 65.564C139.278 64.4153 138.833 62.9076 138.833 61.041C138.833 59.4328 139.249 57.9394 140.082 56.561C140.915 55.1825 142.136 54.0769 143.744 53.244C145.352 52.4399 147.262 52.0379 149.473 52.0379Z" fill="#F0F0F0"></path><path d="M128.494 82.8379V64.2287C128.494 62.1897 127.962 60.6246 126.9 59.5333C125.837 58.4707 124.344 57.9394 122.42 57.9394C120.467 57.9394 118.959 58.4707 117.897 59.5333C116.834 60.6246 116.303 62.1897 116.303 64.2287V82.8379H110.229V64.2717C110.229 61.7158 110.789 59.5476 111.909 57.7671C113 56.0153 114.479 54.6943 116.346 53.804C118.184 52.9138 120.237 52.4687 122.506 52.4687C124.746 52.4687 126.785 52.9138 128.623 53.804C130.432 54.6943 131.868 56.0153 132.931 57.7671C133.993 59.5476 134.524 61.7158 134.524 64.2717V82.8379H128.494Z" fill="#F0F0F0"></path><rect x="93.5" y="8.5" width="83" height="83" stroke="#F0F0F0"></rect></g></svg>