<svg xmlns="http://www.w3.org/2000/svg" width="270" height="100" viewBox="0 0 270 100" fill="none"><g opacity="0.7"><path d="M26.4683 55.1941L23 57.6377C23.6043 58.8989 24.4189 60.0682 25.4436 61.1454C26.4946 62.2227 27.7033 63.0898 29.0696 63.7467C30.4622 64.3773 31.9599 64.6926 33.5627 64.6926C34.7451 64.6926 35.8749 64.4955 36.9522 64.1014C38.0557 63.7336 39.0411 63.2081 39.9081 62.5249C40.7752 61.8155 41.4584 60.9484 41.9576 59.9236C42.4831 58.8989 42.7459 57.7428 42.7459 56.4553C42.7459 55.2466 42.5357 54.1956 42.1153 53.3023C41.6949 52.3826 41.1431 51.5944 40.4599 50.9375C39.803 50.2806 39.0542 49.7288 38.2134 49.2822C37.3989 48.8355 36.5712 48.4676 35.7304 48.1786C34.259 47.6531 33.0634 47.1407 32.1438 46.6415C31.2242 46.1423 30.541 45.6168 30.0943 45.065C29.6739 44.4869 29.4637 43.8432 29.4637 43.1337C29.4637 42.3455 29.7659 41.6623 30.3702 41.0843C30.9745 40.4799 31.9205 40.1778 33.2079 40.1778C34.1276 40.1778 34.929 40.3617 35.6121 40.7296C36.3216 41.0711 36.939 41.5441 37.4645 42.1484C37.99 42.7265 38.4367 43.3571 38.8046 44.0402L42.5488 41.9119C42.1021 40.9398 41.4584 40.007 40.6176 39.1136C39.7768 38.2203 38.752 37.4846 37.5434 36.9065C36.3347 36.3022 34.9158 36 33.2868 36C31.6314 36 30.1469 36.3153 28.8331 36.9459C27.5456 37.5765 26.5209 38.4567 25.7589 39.5866C24.9969 40.6901 24.6159 41.9776 24.6159 43.449C24.6159 44.7365 24.8655 45.8401 25.3648 46.7597C25.864 47.6531 26.4946 48.4151 27.2566 49.0457C28.0186 49.65 28.82 50.1624 29.6608 50.5828C30.5016 50.9769 31.2636 51.2922 31.9467 51.5287C33.1028 51.9491 34.1276 52.3826 35.0209 52.8293C35.9143 53.2497 36.5975 53.7752 37.0704 54.4058C37.5696 55.0102 37.8193 55.8116 37.8193 56.81C37.8193 57.9136 37.4251 58.8069 36.6369 59.4901C35.8486 60.1733 34.8239 60.5148 33.5627 60.5148C32.5379 60.5148 31.592 60.2915 30.7249 59.8448C29.8841 59.3981 29.109 58.7807 28.3996 57.9924C27.7164 57.2042 27.0727 56.2714 26.4683 55.1941Z" fill="#F0F0F0"></path><path d="M47.6765 36.5124V64.1014H52.406V36.5124H47.6765Z" fill="#F0F0F0"></path><path d="M58.7275 36.5124V64.1014H74.335V59.9236L63.3782 59.9236V36.5124H58.7275Z" fill="#F0F0F0"></path><path d="M79.7521 51.4499H99.4586V47.1539H79.7521V51.4499ZM96.4238 36.5124V64.1014H101.075V36.5124H96.4238ZM77.8997 36.5124V64.1014H82.5505V36.5124H77.8997Z" fill="#F0F0F0"></path><path d="M110.776 50.3069C110.776 48.4151 111.183 46.7335 111.997 45.262C112.812 43.7643 113.916 42.5951 115.308 41.7543C116.727 40.9135 118.343 40.4931 120.156 40.4931C122.021 40.4931 123.651 40.9135 125.043 41.7543C126.462 42.5951 127.566 43.7643 128.354 45.262C129.142 46.7335 129.536 48.4151 129.536 50.3069C129.536 52.1987 129.129 53.8803 128.314 55.3517C127.526 56.8232 126.423 57.9924 125.004 58.8595C123.611 59.7003 121.995 60.1207 120.156 60.1207C118.343 60.1207 116.727 59.7003 115.308 58.8595C113.916 57.9924 112.812 56.8232 111.997 55.3517C111.183 53.8803 110.776 52.1987 110.776 50.3069ZM105.849 50.3069C105.849 52.3564 106.204 54.2613 106.913 56.0218C107.623 57.7822 108.621 59.3062 109.909 60.5937C111.196 61.8812 112.707 62.8928 114.441 63.6285C116.201 64.3379 118.106 64.6926 120.156 64.6926C122.258 64.6926 124.176 64.3379 125.91 63.6285C127.644 62.8928 129.155 61.8812 130.443 60.5937C131.73 59.3062 132.729 57.7822 133.438 56.0218C134.148 54.2613 134.502 52.3564 134.502 50.3069C134.502 48.2311 134.148 46.3262 133.438 44.592C132.729 42.8578 131.717 41.3602 130.403 40.0989C129.116 38.8115 127.605 37.813 125.871 37.1036C124.137 36.3679 122.232 36 120.156 36C118.133 36 116.241 36.3679 114.48 37.1036C112.746 37.813 111.222 38.8115 109.909 40.0989C108.621 41.3602 107.623 42.8578 106.913 44.592C106.204 46.3262 105.849 48.2311 105.849 50.3069Z" fill="#F0F0F0"></path><path d="M139.064 36.5124V55.0364C139.064 56.5604 139.3 57.9267 139.773 59.1354C140.272 60.3178 140.969 61.3294 141.862 62.1702C142.755 63.011 143.819 63.6547 145.054 64.1014C146.289 64.5481 147.643 64.7714 149.114 64.7714C150.585 64.7714 151.939 64.5481 153.173 64.1014C154.408 63.6547 155.473 63.011 156.366 62.1702C157.286 61.3294 157.982 60.3178 158.455 59.1354C158.954 57.9267 159.204 56.5604 159.204 55.0364V36.5124H154.514V54.8394C154.514 56.521 154.054 57.8873 153.134 58.9383C152.241 59.9893 150.901 60.5148 149.114 60.5148C147.354 60.5148 146.013 59.9893 145.094 58.9383C144.174 57.8873 143.714 56.521 143.714 54.8394V36.5124H139.064Z" fill="#F0F0F0"></path><path d="M168.2 64.1014H182.112V60.0025H168.2V64.1014ZM168.2 40.6113L182.112 40.6113V36.5124L168.2 36.5124V40.6113ZM168.2 51.3316L181.324 51.3316V47.3115L168.2 47.3115V51.3316ZM165.323 36.5124V64.1014H169.894V36.5124L165.323 36.5124Z" fill="#F0F0F0"></path><path d="M185.277 40.8084H192.568V64.1014H197.219V40.8084H204.51V36.5124H185.277V40.8084Z" fill="#F0F0F0"></path><path d="M206.527 40.8084H213.819V64.1014H218.47V40.8084L225.761 40.8084V36.5124L206.527 36.5124V40.8084Z" fill="#F0F0F0"></path><path d="M232.221 64.1014H246.134V60.0025H232.221V64.1014ZM232.221 40.6113H246.134V36.5124H232.221V40.6113ZM232.221 51.3316H245.346V47.3115H232.221V51.3316ZM229.344 36.5124V64.1014H233.916V36.5124H229.344Z" fill="#F0F0F0"></path></g></svg>