<svg xmlns="http://www.w3.org/2000/svg" fill="none" height="100" viewBox="0 0 270 100" width="270"><path d="m30.58 56v-12.9h5.36v-1.1h-12.54v1.1h5.36v12.9zm10.3536-7c0 .7467.14 1.5467.42 2.4.2933.84.7467 1.62 1.36 2.34s1.3933 1.32 2.34 1.8c.9467.4667 2.08.7 3.4.7.8933 0 1.7-.1067 2.42-.32.7333-.2267 1.3867-.5267 1.96-.9.5867-.3733 1.0933-.8 1.52-1.28.4267-.4933.7733-1.0067 1.04-1.54.28-.5467.4867-1.0933.62-1.64.1467-.5467.22-1.0667.22-1.56 0-.7467-.1533-1.54-.46-2.38-.3067-.8533-.78-1.64-1.42-2.36s-1.4533-1.3133-2.44-1.78c-.9733-.48-2.1267-.72-3.46-.72-1.32 0-2.4533.2333-3.4.7s-1.7267 1.06-2.34 1.78c-.6133.7067-1.0667 1.4867-1.36 2.34-.28.8533-.42 1.66-.42 2.42zm1.96 0c0-.9333.14-1.7867.42-2.56.2933-.7867.6867-1.46 1.18-2.02.5067-.56 1.1-.9933 1.78-1.3.68-.32 1.42-.48 2.22-.48.7867 0 1.5267.16 2.22.48.7067.3067 1.32.74 1.84 1.3.5333.56.9533 1.2333 1.26 2.02.3067.7733.46 1.6267.46 2.56s-.1533 1.7933-.46 2.58c-.3067.7733-.7267 1.44-1.26 2-.52.56-1.1333 1-1.84 1.32-.6933.3067-1.4333.46-2.22.46-.8 0-1.54-.1533-2.22-.46-.68-.32-1.2733-.76-1.78-1.32-.4933-.56-.8867-1.2267-1.18-2-.28-.7867-.42-1.6467-.42-2.58zm20.9447-7v8.6c0 .5467.0533 1.1533.16 1.82.1066.6533.36 1.2667.76 1.84.4.56.9933 1.0333 1.78 1.42.7866.3733 1.86.56 3.22.56.8533 0 1.6066-.1333 2.26-.4.6666-.2667 1.22-.6333 1.66-1.1.4533-.4667.7933-1.0067 1.02-1.62.2266-.6267.34-1.2933.34-2v-9.12h-.88v8.46c0 .2933-.0067.5933-.02.9-.0134.2933-.0534.5933-.12.9-.0667.2933-.1734.5867-.32.88-.1334.2933-.3334.5867-.6.88-.48.52-1.02.8733-1.62 1.06s-1.2267.28-1.88.28c-.56 0-1.06-.0867-1.5-.26-.4267-.1733-.8334-.4333-1.22-.78-.3067-.2667-.54-.5333-.7-.8s-.28-.5267-.36-.78c-.08-.2667-.1267-.5333-.14-.8-.0134-.2667-.02-.5333-.02-.8v-9.14zm25.3745 14v-12.9h5.36v-1.1h-12.54v1.1h5.36v12.9zm13.1602-14v14h9.04v-1.1h-7.22v-5.86h6.2v-.92h-6.2v-5.02h7.22v-1.1zm29.023 14v-14h1.82v12.9h7.22v1.1zm16.671-10.32h-.84l-.6-4.62h2zm16.343 6.2 1.92 4.12h1.94l-6.52-14h-1l-5.92 14h.92l1.76-4.12zm-.42-.9h-6.1l2.88-6.74h.08zm23.569-8.98v10.7h-.08l-11.1-10.94h-.1v14.24h.92v-10.7h.08l11.1 10.94h.1v-14.24zm21.992 0v10.7h-.08l-11.1-10.94h-.1v14.24h.92v-10.7h.08l11.1 10.94h.1v-14.24zm10.712 0v14h9.04v-1.1h-7.22v-5.86h6.2v-.92h-6.2v-5.02h7.22v-1.1zm3.34-4.24h2.22l-3.1 2.54h-.78zm13.692 4.24v14h9.04v-1.1h-7.22v-5.86h6.2v-.92h-6.2v-5.02h7.22v-1.1z" fill="#f0f0f0" opacity=".7"></path></svg>