<svg xmlns="http://www.w3.org/2000/svg" width="270" height="100" viewBox="0 0 270 100" fill="none"><g opacity="0.7"><path d="M73.775 31.9777H80.7329L83.8351 54.1808H83.9237L87.0259 31.9777H93.9838V63H89.3748V39.5117H89.2861L85.7407 63H81.6635L78.1181 39.5117H78.0295V63H73.775V31.9777ZM104.712 63.4432C102.349 63.4432 100.547 62.7784 99.3057 61.4489C98.0648 60.0898 97.4444 58.1546 97.4444 55.6433V31.9777H102.319V55.9978C102.319 57.0614 102.526 57.8296 102.94 58.3023C103.383 58.7751 104.003 59.0114 104.801 59.0114C105.599 59.0114 106.204 58.7751 106.618 58.3023C107.061 57.8296 107.283 57.0614 107.283 55.9978V31.9777H111.981V55.6433C111.981 58.1546 111.36 60.0898 110.119 61.4489C108.878 62.7784 107.076 63.4432 104.712 63.4432ZM121.79 63.4432C119.426 63.4432 117.639 62.7784 116.428 61.4489C115.216 60.0898 114.61 58.1546 114.61 55.6433V53.8706H119.22V55.9978C119.22 58.0069 120.062 59.0114 121.746 59.0114C122.573 59.0114 123.193 58.7751 123.607 58.3023C124.05 57.8001 124.272 57.0024 124.272 55.9092C124.272 54.6092 123.976 53.4717 123.385 52.4967C122.794 51.4922 121.701 50.2956 120.106 48.907C118.097 47.1343 116.693 45.5389 115.896 44.1207C115.098 42.673 114.699 41.048 114.699 39.2458C114.699 36.7936 115.32 34.9027 116.56 33.5731C117.801 32.2141 119.604 31.5345 121.967 31.5345C124.301 31.5345 126.059 32.2141 127.241 33.5731C128.452 34.9027 129.058 36.8231 129.058 39.3344V40.6196H124.449V39.0242C124.449 37.9606 124.242 37.1924 123.829 36.7197C123.415 36.2174 122.809 35.9663 122.012 35.9663C120.387 35.9663 119.574 36.9561 119.574 38.9356C119.574 40.0583 119.87 41.1071 120.46 42.0821C121.081 43.0571 122.189 44.2389 123.784 45.6275C125.823 47.4002 127.226 49.0104 127.994 50.4581C128.763 51.9058 129.147 53.6047 129.147 55.5547C129.147 58.0955 128.511 60.0455 127.241 61.4046C126 62.7636 124.183 63.4432 121.79 63.4432ZM135.753 36.4095H130.657V31.9777H145.725V36.4095H140.628V63H135.753V36.4095ZM149.818 31.9777H156.421L161.473 63H156.598L155.712 56.8399V56.9285H150.172L149.286 63H144.765L149.818 31.9777ZM155.136 52.7183L152.964 37.3845H152.876L150.748 52.7183H155.136ZM163.838 31.9777H171.062C173.573 31.9777 175.405 32.5686 176.557 33.7504C177.71 34.9027 178.286 36.6901 178.286 39.1128V41.0185C178.286 44.2389 177.222 46.2775 175.095 47.1343V47.223C176.277 47.5775 177.104 48.3013 177.577 49.3945C178.079 50.4877 178.33 51.9502 178.33 53.782V59.233C178.33 60.1194 178.36 60.8432 178.419 61.4046C178.478 61.9364 178.626 62.4682 178.862 63H173.898C173.721 62.4977 173.603 62.025 173.544 61.5818C173.485 61.1387 173.455 60.3409 173.455 59.1887V53.516C173.455 52.0979 173.219 51.1081 172.746 50.5468C172.303 49.9854 171.52 49.7047 170.397 49.7047H168.713V63H163.838V31.9777ZM170.486 45.273C171.461 45.273 172.185 45.0218 172.657 44.5196C173.16 44.0173 173.411 43.1753 173.411 41.9935V39.6003C173.411 38.4776 173.204 37.6651 172.79 37.1629C172.406 36.6606 171.786 36.4095 170.929 36.4095H168.713V45.273H170.486ZM181.712 31.9777H189.158C191.58 31.9777 193.398 32.6277 194.609 33.9277C195.82 35.2277 196.426 37.1333 196.426 39.6447V55.3331C196.426 57.8444 195.82 59.75 194.609 61.05C193.398 62.35 191.58 63 189.158 63H181.712V31.9777ZM189.069 58.5682C189.867 58.5682 190.473 58.3319 190.886 57.8592C191.329 57.3864 191.551 56.6183 191.551 55.5547V39.4231C191.551 38.3594 191.329 37.5913 190.886 37.1186C190.473 36.6458 189.867 36.4095 189.069 36.4095H186.587V58.5682H189.069Z" fill="#F0F0F0"></path><path d="M49.7508 43.9206H47.6273V42.074H53.9056V43.9206H51.7821V55H49.7508V43.9206ZM54.889 42.074H56.9203V47.3368H59.0992V42.074H61.1304V55H59.0992V49.1833H56.9203V55H54.889V42.074ZM62.6432 42.074H68.1829V43.9206H64.6744V47.3368H67.4627V49.1833H64.6744V53.1534H68.1829V55H62.6432V42.074Z" fill="#F0F0F0"></path></g></svg>