<svg xmlns="http://www.w3.org/2000/svg" width="270" height="100" viewBox="0 0 270 100" fill="none"><path opacity="0.7" d="M104.011 34.0027C105.961 34.0027 107.557 34.2982 108.798 34.8891C110.068 35.4504 111.191 36.1152 112.166 36.8834C112.757 37.3265 113.2 37.3856 113.495 37.0606C113.82 36.7061 114.042 35.8936 114.16 34.6232H115.179C115.12 35.7754 115.076 37.1788 115.046 38.8333C115.017 40.4583 115.002 42.6299 115.002 45.348H113.983C113.835 43.989 113.643 42.8367 113.407 41.8913C113.17 40.9163 112.845 40.0595 112.432 39.3208C112.018 38.5822 111.427 37.9174 110.659 37.3265C109.92 36.5879 109.063 36.0413 108.088 35.6868C107.113 35.3323 106.094 35.155 105.031 35.155C103.435 35.155 102.076 35.5834 100.953 36.4402C99.8306 37.2675 98.9147 38.4049 98.2057 39.8526C97.5261 41.3004 97.0239 42.9401 96.6989 44.7719C96.3739 46.5741 96.2114 48.4503 96.2114 50.4002C96.2114 52.3797 96.3739 54.2854 96.6989 56.1172C97.0534 57.9194 97.5852 59.5296 98.2943 60.9478C99.0329 62.366 99.9784 63.4887 101.131 64.3159C102.283 65.1432 103.642 65.5568 105.208 65.5568C106.183 65.5568 107.158 65.3796 108.133 65.025C109.137 64.6409 109.994 64.0943 110.703 63.3853C111.855 62.4989 112.638 61.4057 113.052 60.1058C113.466 58.7762 113.776 57.0183 113.983 54.832H115.002C115.002 57.6388 115.017 59.9137 115.046 61.6569C115.076 63.3705 115.12 64.8182 115.179 66H114.16C114.042 64.7296 113.835 63.9318 113.54 63.6069C113.274 63.2819 112.816 63.3262 112.166 63.7398C111.073 64.508 109.905 65.1875 108.665 65.7784C107.453 66.3398 105.887 66.6204 103.967 66.6204C100.835 66.6204 98.0875 65.9852 95.7239 64.7148C93.3898 63.4444 91.5728 61.6126 90.2728 59.2194C88.9728 56.8263 88.3228 53.9456 88.3228 50.5775C88.3228 47.2684 88.9876 44.373 90.3171 41.8913C91.6762 39.4095 93.5228 37.4743 95.8568 36.0857C98.2204 34.697 100.939 34.0027 104.011 34.0027ZM141.877 53.2365C141.877 53.9456 141.832 54.6843 141.744 55.4524H124.593C124.711 56.9888 125.199 58.1706 126.055 58.9978C126.942 59.7955 128.02 60.1944 129.29 60.1944C131.181 60.1944 132.496 59.3967 133.235 57.8013H141.301C140.887 59.4262 140.134 60.8887 139.04 62.1887C137.977 63.4887 136.632 64.508 135.007 65.2466C133.382 65.9852 131.565 66.3545 129.556 66.3545C127.134 66.3545 124.977 65.8375 123.086 64.8034C121.195 63.7694 119.718 62.2921 118.654 60.3717C117.591 58.4512 117.059 56.2058 117.059 53.6354C117.059 51.065 117.576 48.8196 118.61 46.8991C119.674 44.9787 121.151 43.5015 123.042 42.4674C124.933 41.4333 127.104 40.9163 129.556 40.9163C131.95 40.9163 134.077 41.4185 135.938 42.4231C137.799 43.4276 139.247 44.8605 140.281 46.7219C141.345 48.5832 141.877 50.7548 141.877 53.2365ZM134.121 51.2423C134.121 49.9423 133.678 48.9082 132.792 48.14C131.905 47.3719 130.797 46.9878 129.468 46.9878C128.197 46.9878 127.119 47.3571 126.233 48.0957C125.376 48.8343 124.844 49.8832 124.637 51.2423H134.121ZM151.606 33.205V66H144.028V33.205H151.606ZM153.745 53.5911C153.745 51.0502 154.218 48.8196 155.163 46.8991C156.138 44.9787 157.453 43.5015 159.107 42.4674C160.762 41.4333 162.608 40.9163 164.647 40.9163C166.39 40.9163 167.912 41.2708 169.212 41.9799C170.541 42.689 171.561 43.6196 172.27 44.7719V41.2708H179.848V66H172.27V62.4989C171.531 63.6512 170.497 64.5818 169.167 65.2909C167.867 66 166.346 66.3545 164.603 66.3545C162.594 66.3545 160.762 65.8375 159.107 64.8034C157.453 63.7398 156.138 62.2478 155.163 60.3274C154.218 58.3774 153.745 56.132 153.745 53.5911ZM172.27 53.6354C172.27 51.7445 171.738 50.2525 170.674 49.1593C169.64 48.0662 168.37 47.5196 166.863 47.5196C165.356 47.5196 164.071 48.0662 163.007 49.1593C161.973 50.223 161.456 51.7002 161.456 53.5911C161.456 55.482 161.973 56.9888 163.007 58.1115C164.071 59.2046 165.356 59.7512 166.863 59.7512C168.37 59.7512 169.64 59.2046 170.674 58.1115C171.738 57.0183 172.27 55.5263 172.27 53.6354Z" fill="#F0F0F0"></path></svg>