<svg xmlns="http://www.w3.org/2000/svg" xmlns:xlink="http://www.w3.org/1999/xlink" width="1920" height="1080" viewBox="0 0 1920 1080"><defs><clipPath id="clip-path"><rect id="Rectangle_49" data-name="Rectangle 49" width="1920" height="1080" fill="none"></rect></clipPath></defs><g id="Mask_Group_3" data-name="Mask Group 3" clip-path="url(#clip-path)"><g id="Group_12" data-name="Group 12" transform="translate(-97.462 289.807)" opacity="0.06"><g id="Group_4" data-name="Group 4" transform="translate(81.443 353.286)"><path id="Path_9" data-name="Path 9" d="M1484.167,880.043c1.129-.362,1.417-1.3,1.809-2.129,3.2-6.8,6.316-13.641,9.588-20.406a407.453,407.453,0,0,1,27.6-48.835,238.929,238.929,0,0,1,17.049-22.392c13.637-15.992,25.565-33.216,37.091-50.745,7.535-11.465,15.074-22.932,22.817-34.257a314.334,314.334,0,0,1,37.3-44.481c25.963-26.012,53.125-50.693,82.292-73.107a46.432,46.432,0,0,1,14.3-7.963,15.65,15.65,0,0,1,11.566.351,21.436,21.436,0,0,1,4,2.537,39.8,39.8,0,0,1,3.138,2.91,43.34,43.34,0,0,0,26.3,11.966,227.146,227.146,0,0,0,23.009,1.006c9.985-.016,19.962.23,29.939.822,19.186,1.137,37.97,4.779,56.716,8.708,11.6,2.433,23.269,4.491,35.052,5.826a51.8,51.8,0,0,0,12.646.219c6.3-.825,11-3.891,13.336-10.023a13.161,13.161,0,0,0-4.546-15.849,47.319,47.319,0,0,0-14.621-7.4c-3.834-1.145-7.722-2.135-11.641-2.951a11.99,11.99,0,0,1-7.839-5.51,7.032,7.032,0,0,1-.367-.789c.809-.09,1.485-.192,2.165-.238a135.725,135.725,0,0,0,23.924-3.387c16.192-4.028,27.58-13.958,34.918-28.7,3.3-6.637,3.266-13.539.792-20.469a12.851,12.851,0,0,0-4.53-6.135,41.924,41.924,0,0,0-3.94-2.685,12.87,12.87,0,0,1-5.894-7.228,70.377,70.377,0,0,0-6.028-13.682c-1.34-2.2-2.787-4.338-4.269-6.445-3.85-5.461-9.423-7.892-15.824-8.629a72.7,72.7,0,0,0-7.626-.093c-.088-.238-.3-.723-.45-1.23a74.758,74.758,0,0,0-5.263-12.942,39.484,39.484,0,0,0-8.665-11.314c-2.228-2.03-4.62-3.88-6.938-5.812l-1.027-.858a7.052,7.052,0,0,1,.315-.795c4.546-8.207,4.713-16.718,1.838-25.47a28.193,28.193,0,0,0-14.476-16.715,43.637,43.637,0,0,0-16.515-4.694c-2.132-.186-4.258-.43-6.39-.586a12.082,12.082,0,0,1-5.371-1.891c-2.872-1.715-5.727-3.485-8.73-4.94a50.539,50.539,0,0,0-28.2-4.68c-.545.063-1.085.162-1.625.252-.485.079-.967.167-1.518.266-.375-.323-.754-.633-1.112-.956-2-1.8-4.022-3.57-5.963-5.426a4.061,4.061,0,0,1-.98-1.809c-.28-1-.346-2.055-.548-3.077a11.291,11.291,0,0,0-7.094-8.651,8.627,8.627,0,0,0-9.522,1.57,19.521,19.521,0,0,0-5.425,8.133,68.607,68.607,0,0,0-3.617,14.509c-1.427,10.1-2.781,20.214-3.978,30.347-1.365,11.547-2.483,23.13-4.8,34.542a133.963,133.963,0,0,1-5.691,20.433,65.9,65.9,0,0,1-4.938,10.388c-3.847,6.519-7.546,13.128-11.407,19.639-1.957,3.3-4.094,6.5-6.212,9.7-4.611,6.974-8.875,14.134-11.873,21.97a55.716,55.716,0,0,0-3.9,16.093,19.879,19.879,0,0,0,.861,7.152,9.743,9.743,0,0,1-.165,6.617,31.529,31.529,0,0,1-3.252,6.428,92.472,92.472,0,0,1-7.152,8.8,110.99,110.99,0,0,1-13.237,12.087,834.58,834.58,0,0,0-80.613,73.008,342.66,342.66,0,0,0-40.981,51.854q-12.118,18.533-24.434,36.94a339.088,339.088,0,0,1-24.776,33.049c-17.386,20.176-31.191,42.675-43.179,66.35-3.842,7.587-7.5,15.268-11.166,22.943-1.061,2.222-1.869,4.565-2.737,6.875C1483.186,878.731,1483,879.591,1484.167,880.043Zm388.385-403.924-.151-.06c-4.99,4.458-9.884,9.026-14.991,13.347-13.786,11.673-28.254,22.464-43.047,32.816A213.933,213.933,0,0,1,1778.9,542.6c-10.511,4.691-21.088,9.2-32.416,11.594-1.5.315-3.011.91-4.88.482a33.24,33.24,0,0,1,1.877-3.606,47.132,47.132,0,0,1,11.2-11.958,183.8,183.8,0,0,1,22.927-14.186c3.269-1.677,6.516-3.392,9.771-5.1,15.849-8.305,30.78-17.989,44.174-29.909,4.05-3.606,7.8-7.555,11.673-11.358a12.139,12.139,0,0,0,.968-1.225,1.486,1.486,0,0,0-.935.518,213.281,213.281,0,0,1-16.334,14.81,230.038,230.038,0,0,1-39.738,25.968c-8.892,4.647-17.882,9.116-26.218,14.756a1.272,1.272,0,0,1-.408.1l-.151-.186c.236-.206.471-.414.71-.619a160.089,160.089,0,0,1,13.81-10.919c4.866-3.381,9.661-6.864,14.5-10.286a134.436,134.436,0,0,0,27.714-26.341,83.057,83.057,0,0,1,6.275-6.968q5.4-5.417,11.032-10.615a489.1,489.1,0,0,1,38.359-31.328c1.795-1.345,3.658-2.6,5.239-3.721,2.05.581,3.823,1.145,5.623,1.581,1.708.411,3.442.7,5.168,1.019a24.643,24.643,0,0,1,9.659,3.581c2.973,2.05,5.765,4.362,8.628,6.568a3.064,3.064,0,0,1,.441.649c-1.482,1.973-2.866,4.02-4.458,5.891-3.34,3.929-6.79,7.766-10.19,11.64-.359.408-.7.836-1.041,1.255l.362.28a121.159,121.159,0,0,0,16.222-18.5,41.691,41.691,0,0,1,6.226,7.42c-16.885,19.392-35.6,36.375-57.189,50.128a5.419,5.419,0,0,0,1.633-.682c3.617-2.28,7.335-4.42,10.815-6.891a248.029,248.029,0,0,0,44.158-40.294c.334-.386.7-.751,1.233-1.318,3.7,7.2,6.91,14.243,7.738,22.4-.4.348-.88.721-1.31,1.14-2,1.956-3.976,3.94-5.981,5.891a370.9,370.9,0,0,1-60.44,47.8,282.4,282.4,0,0,1-43.612,22.943c-13.163,5.4-26.623,9.714-40.866,11.273a64.024,64.024,0,0,1-18.167-.417,45.466,45.466,0,0,1-7.705-2.252,6.145,6.145,0,0,1-3.836-4.65c1.477.378,2.658.762,3.872.978a53.325,53.325,0,0,0,16.865-.126,82.514,82.514,0,0,0,17.252-4.612c13.9-5.165,26.681-12.468,39.107-20.45.51-.329.962-.748,1.439-1.123-3.115,1.671-6.135,3.436-9.149,5.209a200.141,200.141,0,0,1-31.271,15.271,75.421,75.421,0,0,1-18.877,4.82,105.051,105.051,0,0,1-12.974.255,12.124,12.124,0,0,1-6.179-1.751l.258-1.345a31.636,31.636,0,0,0,3.631-.488c4.187-1.058,8.434-1.965,12.517-3.354a219.011,219.011,0,0,0,50.577-24.587c12.229-8.083,23.913-16.918,35.471-25.919a267.7,267.7,0,0,0,25.571-22.236C1870.376,478.4,1871.458,477.251,1872.552,476.119Zm-134.018,77.067a1.965,1.965,0,0,1-1.466-1.83,23.606,23.606,0,0,1-.438-4.4c.131-5,1.548-9.738,3.2-14.4,2.959-8.336,7.406-15.9,12.276-23.228,2.976-4.48,5.979-8.941,8.916-13.449a136.064,136.064,0,0,0,13.487-25.582,33.162,33.162,0,0,1,2.412-4.85c4.762-8.146,9.7-16.191,14.339-24.406,7.971-14.1,14.186-28.925,17.614-44.823a112.932,112.932,0,0,0,2.953-20.107,19.415,19.415,0,0,1,.332-2.22c2.641,1.321,11.023,9.681,12.374,12.372a236.136,236.136,0,0,1-16.75,42.516c7.99-12.912,13.1-27.051,17.55-41.486a13.781,13.781,0,0,1,3.749,6.634,57.377,57.377,0,0,1,1.384,15.359,73.393,73.393,0,0,1-7.875,30.843,113.38,113.38,0,0,1-10.1,15.794,144.312,144.312,0,0,0-14.961,25.705c-2.427,5.335-5.083,10.593-8.026,15.663a100.2,100.2,0,0,1-22.247,26.883q-5.052,4.23-9.971,8.607a118.133,118.133,0,0,0-15.622,16.452,8.707,8.707,0,0,1-.879.808,10.609,10.609,0,0,1,.2-1.381c.957-3.028,1.789-6.105,2.924-9.064a107.952,107.952,0,0,1,13.068-23.543q14.69-20.76,29.662-41.324A374.184,374.184,0,0,0,1811,437.387a130.083,130.083,0,0,0,8.357-17.5c.258-.682.4-1.408.6-2.115l-.321-.1c-.756,1.682-1.5,3.37-2.277,5.047a237.091,237.091,0,0,1-20.348,35.137c-7.278,10.574-14.9,20.913-22.36,31.366-6.853,9.6-13.835,19.118-20.488,28.859-7.127,10.435-12.873,21.559-15.189,34.172A4.445,4.445,0,0,1,1738.534,553.186Zm123.926-10.733-.115-.389c.572-.4,1.143-.8,1.712-1.206,5.053-3.595,10.155-7.124,14.282-11.846a5.691,5.691,0,0,1,2.181-1.4c2.244-.882,4.53-1.663,6.809-2.452,7.985-2.759,15.556-6.3,22.206-11.607,4.445-3.551,8.566-7.407,11.235-12.528a5.412,5.412,0,0,1,3.056-2.789c4.269-1.537,8.549-3.036,12.823-4.551.359-.126.71-.271,1.063-.408a4.324,4.324,0,0,0-2.014.03,75.817,75.817,0,0,0-11.98,3.96,10.121,10.121,0,0,1-1.033.309,47.155,47.155,0,0,0,2.362-24.809,11.929,11.929,0,0,1,1.455-.353,23.566,23.566,0,0,1,8,.534,12.305,12.305,0,0,1,8.1,6.217,31.667,31.667,0,0,1,4.272,20.217,85.958,85.958,0,0,0-.523,8.7,14.662,14.662,0,0,0,5.8,12.484,73.246,73.246,0,0,1,6.475,6.078,21.014,21.014,0,0,1,3.113,4.02,13.857,13.857,0,0,1,1.808,9.8,62.234,62.234,0,0,1-9.133,4.647,178.012,178.012,0,0,1-31.388,9.982,118.955,118.955,0,0,1-20.145,2.792,3.087,3.087,0,0,1-2.4-.77,49.942,49.942,0,0,0-10.588-7.2,8.137,8.137,0,0,1-.888-.619c7.573-2.3,15.068-4.455,22.48-6.861a128.023,128.023,0,0,0,21.746-9.037.912.912,0,0,0-.567.1,279.083,279.083,0,0,1-44.171,14.662,4.185,4.185,0,0,1-2.872-.244c-2-.891-4.055-1.669-6.086-2.5-.291-.118-.567-.266-1.2-.567A161.363,161.363,0,0,0,1912.812,531c-.2-.137-.26-.206-.288-.195-.455.184-.91.359-1.354.564-10.837,5.014-21.79,9.733-33.446,12.55a8.657,8.657,0,0,1-3.066.063c-2.5-.315-4.979-.8-7.478-1.129C1865.619,542.642,1864.035,542.578,1862.459,542.453ZM1751.933,576.7a50.849,50.849,0,0,0,9.818,3.337c8.41,1.94,16.948,2.074,25.5,1.743,3.664-.143,7.33-.537,10.969-1.019,5.264-.7,10.527-1.433,15.742-2.428a185.9,185.9,0,0,0,22.384-5.828,147.235,147.235,0,0,0,30.065-13.073c.485-.288.951-.6,1.425-.9a1.164,1.164,0,0,0-.808.17,177.453,177.453,0,0,1-28.7,12.15,194.991,194.991,0,0,1-34.465,8.1c-4.559.614-9.133,1.184-13.717,1.521a111.91,111.91,0,0,1-16.6.137,69.695,69.695,0,0,1-14.709-2.42,27.1,27.1,0,0,1-7.333-3.277c-.564-.373-1.113-.751-.987-1.554a1.48,1.48,0,0,1,1.343-1.269,18.517,18.517,0,0,1,3.9-.258c3.82.307,7.626.839,11.448,1.126a97.254,97.254,0,0,0,22.168-.806,161.759,161.759,0,0,0,32.611-8.42,155.574,155.574,0,0,0,33.863-17.455,6.282,6.282,0,0,1,4-1.238c2.738.137,5.475.255,8.209.406a9.367,9.367,0,0,1,1.384.274l.06.34c-13.3,8.264-27.486,14.786-41.828,21.017a192.129,192.129,0,0,0,22.368-9.3,206.124,206.124,0,0,0,21.346-11.769c9.755,2.1,19.951,12.347,22.853,19.748-.636.268-1.263.583-1.921.811-7.922,2.707-15.821,5.483-23.781,8.083-8.843,2.888-17.74,5.617-26.832,7.626q-8.405,1.858-16.9,3.335a123.9,123.9,0,0,1-13.18,1.773c-6.072.394-12.172.381-18.26.5-2.138.044-4.283.06-6.415-.071-4.48-.274-8.968-.521-13.424-1.036a96.619,96.619,0,0,1-10.492-1.855C1758.2,583.818,1754.857,580.521,1751.933,576.7ZM1881.712,416l.252.263a14.511,14.511,0,0,0,1.5-1.447q4.9-6.3,9.747-12.635c.32-.417.625-.847,1.027-1.392,5.562,4.76,8.018,10.911,9.094,17.734a28.852,28.852,0,0,1-3.1,17.923c-1.907-.858-3.568-1.707-5.305-2.357-1.712-.641-3.5-1.08-5.4-1.65,1.833-2.184,3.984-3.836,4.951-6.437l-6.368,6.376c-2.135-.469-4.159-.923-6.193-1.354a4.462,4.462,0,0,1-2.937-2.176c-1.5-2.359-3.025-4.71-4.677-6.965a27.828,27.828,0,0,0-16.545-10.621,14.449,14.449,0,0,0-3.587-.359,22.211,22.211,0,0,0-11.99,4.053c-.518.34-1.039.674-1.581,1.028-.625-2.748-1.233-5.245-1.729-7.763a3.011,3.011,0,0,1,.326-1.718c1.918-4.127,3.883-8.229,5.828-12.339.143-.3.233-.627.348-.94-3.115,3.8-4.9,8.314-7.138,12.92-3.907-9.289-8.039-18.025-14.821-25.511a21.424,21.424,0,0,1,2.1-.406,50.763,50.763,0,0,1,13.284.523,53.923,53.923,0,0,1,20.677,8.59,15.745,15.745,0,0,0,8.143,2.773c1.151.066,2.3.173,3.445.269,5.332.449,10.566,1.307,15.454,3.639.532.252,1.047.532,1.789.91-2.241,3.477-4.384,6.8-6.524,10.133,3.162-2.68,5.094-6.294,7.513-9.733l4.253,2.828C1889.513,405.571,1885.613,410.786,1881.712,416ZM1845.3,593.756a4.27,4.27,0,0,1,.719-.2c6.034-.131,12.064-.373,18.1-.348,5.036.019,10.073.3,15.1.551,3.17.156,6.335.411,9.5.7,4.247.389,8.486.855,12.73,1.293,4.675.482,9.379.8,14.021,1.5,6.376.962,12.711,2.2,19.055,3.37,1.9.348,3.776.86,5.664,1.3l.112-.3a5.217,5.217,0,0,0-.89-.518q-1.4-.473-2.825-.86a159.491,159.491,0,0,0-24.223-4.192c-8.311-.951-16.641-1.732-24.954-2.65-7.248-.8-14.523-1.121-21.8-1.239-6.688-.109-13.383.071-20.074.151-4.993.06-9.985.167-14.978.247-.438.008-.877-.025-1.315-.033-9.324-.2-18.65-.534-27.974-.57a208.108,208.108,0,0,1-22.677-1.091,40.1,40.1,0,0,1-12.38-3.187c-.553-.258-1.085-.567-1.625-.855,2.422.142,4.724.625,7.047.836,5.124.463,10.254.866,15.388,1.151,3.39.186,6.8.162,10.193.17,3.5.005,7.009.005,10.511-.123,3.015-.107,6.02-.43,9.031-.6,9.368-.534,18.74-1.028,28.108-1.567,14.192-.814,28.374-1.729,42.568-2.458,12.826-.658,25.659-1.159,38.493-1.639a50.54,50.54,0,0,1,7.883.359c4.338.523,7.922,2.746,11.24,5.464a8.376,8.376,0,0,1,3,8.686c-1.09,5.535-5.108,9.322-10.8,10.371a42.263,42.263,0,0,1-11.977.014,303.125,303.125,0,0,1-32.479-5.234c-12.24-2.589-24.5-5.036-36.863-6.96C1852.472,594.759,1849.008,594.293,1845.3,593.756Zm-95.833-27.048.1-.282c.307.044.617.066.915.132a48.9,48.9,0,0,0,10.58,1.252,91.7,91.7,0,0,0,17.028-1.4,148.826,148.826,0,0,0,18.142-4.535,233.762,233.762,0,0,0,42.376-18.589,351.576,351.576,0,0,0,83.021-63.645c.4-.408.82-.795,1.4-1.354a7.05,7.05,0,0,1,.211,1.06c.022,6.25-.658,12.353-3.351,18.123-2.65,5.672-6.763,10.062-11.577,13.912-6.653,5.321-14.235,8.829-22.231,11.552-2.233.762-4.486,1.485-6.651,2.411a9.033,9.033,0,0,0-3.066,2.113,53.456,53.456,0,0,1-7.163,6.538,225.793,225.793,0,0,1-25.042,16.7,155.385,155.385,0,0,1-43.582,16.86,119.776,119.776,0,0,1-23.595,3.252c-3.234.071-6.472-.156-9.708-.205a51.861,51.861,0,0,1-15.627-2.918A22.944,22.944,0,0,1,1749.464,566.708Zm34.109-134.59a11.8,11.8,0,0,1,.011-1.244c.937-8.174,1.809-16.356,2.85-24.516q1.607-12.565,3.5-25.091a57.6,57.6,0,0,1,3.453-13.018,16.772,16.772,0,0,1,4.346-6.324,6.261,6.261,0,0,1,7.031-1.222,8.9,8.9,0,0,1,5.5,6.343,24.506,24.506,0,0,1,.768,5.856,71.717,71.717,0,0,1-.666,9.322,154.175,154.175,0,0,1-10.223,37.965c-5.946,14.216-13.728,27.453-21.8,40.527a7.367,7.367,0,0,1-.817.849c.244-.924.4-1.447.521-1.978,1.288-5.721,2.559-11.448,3.861-17.17a36.959,36.959,0,0,1,1.406-5.557,251.566,251.566,0,0,0,15.279-57.968,4.244,4.244,0,0,0-.077-2.428C1795.2,395.463,1790.928,414.181,1783.573,432.118Zm48.421-32.3.318-.071c.236.529.49,1.052.709,1.587a59.013,59.013,0,0,1,4.439,23.93,85.158,85.158,0,0,1-7.135,32.912,120.543,120.543,0,0,1-36.307,46.717c-4.313,3.392-8.81,6.544-13.23,9.8-.375.274-.794.488-1.192.732a4.365,4.365,0,0,1,1-1.693,106.18,106.18,0,0,0,12.465-18.159c2.37-4.456,4.661-8.96,6.763-13.544a135.048,135.048,0,0,1,13.533-23.31c2.1-2.883,4.179-5.784,6.141-8.763,9.684-14.706,14.147-30.783,12.574-48.421C1832.022,400.957,1832.019,400.384,1831.995,399.814Zm45.67,31.769c-19.156,13.591-37.392,28.081-54,44.563.688-1.48,1.51-2.833,2.3-4.2,4.444-7.667,8.371-15.575,10.577-24.206a13.318,13.318,0,0,1,3.271-5.932A252.605,252.605,0,0,1,1859,423.539c.583-.512,1.145-1.049,1.715-1.576l-.266-.268a198.773,198.773,0,0,0-22.214,19.97,99.588,99.588,0,0,0,1.567-21.691,25.338,25.338,0,0,1,8.782-5.486,14.244,14.244,0,0,1,7.908-.921,27.514,27.514,0,0,1,10.086,4.277C1871.568,421.371,1874.535,426.5,1877.664,431.584Zm35.647,150.486c-.381.033-.759.08-1.14.1q-20.716,1.06-41.434,2.118c-3.508.178-7.02.3-10.528.493q-15.042.81-30.084,1.65c-.594.033-1.192.019-1.786.025,22.872-4.379,44.73-11.917,66.569-19.9,2.18,3.491,4.035,7.207,7.39,9.788A33.03,33.03,0,0,0,1913.311,582.069Zm52.137-41.1a2.579,2.579,0,0,1-.156-.559,16.891,16.891,0,0,0-3.346-12.835,44.73,44.73,0,0,0-3.836-4.283c-1.83-1.811-3.759-3.524-5.675-5.245a10.551,10.551,0,0,1-3.694-6.6,39.242,39.242,0,0,1-.318-6.053c.1-3.228.553-6.448.592-9.675a65.932,65.932,0,0,0-.535-8.179,40.069,40.069,0,0,0-1.1-4.738,3.121,3.121,0,0,1,1.01,1.08c1.587,2.937,3.258,5.839,4.686,8.853,1.123,2.37,1.959,4.88,2.89,7.341a14.918,14.918,0,0,0,6.491,7.807c1.365.808,2.675,1.715,3.963,2.644a10.713,10.713,0,0,1,3.795,5.053,22.526,22.526,0,0,1-.08,17.159,78.819,78.819,0,0,1-3.968,7.366A6.28,6.28,0,0,1,1965.448,540.967Zm-62.563,17.992a157.118,157.118,0,0,0,60.486-17.29,7.354,7.354,0,0,1-1.926,4.7,48.555,48.555,0,0,1-25.368,15.337c-8.862,2.28-17.961,2.872-27.015,3.888-2.011-2.05-4.009-4.08-6-6.119C1902.967,559.373,1902.962,559.187,1902.885,558.959Zm27.385,20.425-.1.279c-2.449-.214-4.9-.436-7.346-.636a62.321,62.321,0,0,1-11.076-1.438,20.4,20.4,0,0,1-12.213-8.358c-.825-1.228-1.726-2.414-2.45-3.7a50.451,50.451,0,0,0-10.941-13.887,5.641,5.641,0,0,1-.545-.753c.7.252,1.1.362,1.477.534a48.837,48.837,0,0,1,13.24,9.075,72.526,72.526,0,0,1,9.385,10.341,13.457,13.457,0,0,0,8.664,5.491c3.379.707,6.716,1.617,10.067,2.455C1929.056,578.943,1929.659,579.181,1930.27,579.384Z" transform="translate(-1483.257 -357.745)" fill="#6a5975"></path><path id="Path_10" data-name="Path 10" d="M1534.586,443.449a15.6,15.6,0,0,0,2.2-.693c3.795-1.828,7.609-3.625,11.344-5.573a235.319,235.319,0,0,0,25.029-14.78c2.118-1.463,4.132-3.077,6.179-4.636.422-.32.792-.715,1.2-1.085a1.573,1.573,0,0,0-.219-.167c-.047-.019-.12-.036-.154-.011-14.229,10.588-29.873,18.756-45.73,26.558Z" transform="translate(-1229.756 -255.521)" fill="#6a5975"></path></g><g id="Group_5" data-name="Group 5" transform="translate(0 87.283)"><path id="Path_11" data-name="Path 11" d="M1827.242,404.941c.367-.847.586-1.4.842-1.932q9.873-20.732,19.745-41.461a153.954,153.954,0,0,0,9.188-22.888,41.218,41.218,0,0,0,1.847-14.293,25.782,25.782,0,0,0-5.568-14.865,21.081,21.081,0,0,0-2.742-2.831c-4.623-3.935-9.492-4.834-15.961-1.159a28.574,28.574,0,0,0-7.162,6.256c-.757.863-1.508,1.732-2.365,2.721-.687-.362-1.34-.7-1.97-1.033,0-.948-.036-1.767.005-2.581a39.164,39.164,0,0,0-5.053-21.5,22.145,22.145,0,0,0-23.009-10.991c-1.841.3-3.694.526-5.53.838a8.263,8.263,0,0,1-5.664-1.208c-2.475-1.422-4.935-2.885-7.5-4.118a28.439,28.439,0,0,0-17.011-2.315,16.33,16.33,0,0,0-7,3.151c-.482.351-.965.7-1.548,1.129-.567-.419-1.1-.789-1.606-1.184a70.474,70.474,0,0,0-28.141-13.046,54,54,0,0,0-15.408-.742,38.692,38.692,0,0,0-10.834,1.86,38.136,38.136,0,0,0-7.143,3.3c-4.892,3.072-8.528,7.218-9.709,13.317-.7-.14-1.323-.233-1.931-.389-8.045-2.055-21.954.677-28.794,10.667a32.014,32.014,0,0,0-4.987,13.292c-.356,2.211-.556,4.45-.847,6.856-.5-.211-.948-.365-1.367-.575a27.8,27.8,0,0,0-19.052-2.3,22.907,22.907,0,0,0-4.877,1.907,11.287,11.287,0,0,1-3.228,1.107,35.58,35.58,0,0,0-5.935,1.277,14.868,14.868,0,0,0-10.555,14.2,46.958,46.958,0,0,0,3.167,18.041,86.97,86.97,0,0,0,6.387,13.35c6.272,10.886,12.451,21.833,19.715,32.114,4.267,6.039,7.4,12.7,10.374,19.428,3.726,8.429,7.412,16.879,11.235,25.267a98.868,98.868,0,0,0,9.927,17.233c8.492,11.681,20.094,18.019,34.238,20.017a41.506,41.506,0,0,0,10.509.055c11.632-1.315,21.291,5.486,25.248,15.271a37.865,37.865,0,0,1,2.3,12.385c.455,8.382,1,16.759,1.512,25.138.828,13.473,2,26.927,2.083,40.436a202.124,202.124,0,0,1-1.8,25.6c-1.482,12.2-3.058,24.387-4.291,36.611-1.192,11.8-1.452,23.656-1.773,35.507-.655,24.316.23,48.621.49,72.932q.329,31.032.091,62.072c-.1,12.287-.726,24.571-1.825,36.822q-1.775,19.836-3.428,39.683c-.967,11.478-1.943,22.96-2.8,34.446-.885,11.818-1.523,23.656-2.485,35.468-.583,7.157-1.567,14.282-2.392,21.42-.573,4.959-1.187,9.911-1.773,14.868a10.568,10.568,0,0,0-.063,1.48,1.2,1.2,0,0,0,.995,1.318c.808.129,1.214-.381,1.419-1.071a7.084,7.084,0,0,0,.2-1.129c1.061-8.434,2.2-16.86,3.148-25.308.625-5.56,1.009-11.147,1.436-16.726.537-7.056,1.016-14.117,1.512-21.179.383-5.472.726-10.95,1.143-16.419.469-6.127.992-12.248,1.5-18.373q.715-8.611,1.455-17.222c.608-7.05,1.293-14.1,1.841-21.151.761-9.788,1.622-19.576,2.1-29.382,1.444-29.566.685-59.151.389-88.729-.159-15.915-.479-31.827-.532-47.742-.027-9.382.228-18.77.538-28.149.378-11.462,1.12-22.908,2.5-34.3,1.154-9.53,2.442-19.044,3.571-28.577a176.561,176.561,0,0,0,1.236-30.72q-.884-15.779-1.833-31.553c-.406-6.735-1.038-13.462-1.247-20.206-.15-4.815.137-9.651.419-14.465a16.2,16.2,0,0,1,3.211-8.355,11.233,11.233,0,0,1,1.918-2.02,5.682,5.682,0,0,1,5.319-1.3,76.732,76.732,0,0,0,24.039,1.691,103.271,103.271,0,0,0,22.938-5.047,93.188,93.188,0,0,0,40.527-26.933,50.7,50.7,0,0,0,12.418-25.05,26.712,26.712,0,0,0,.244-9.654,10.577,10.577,0,0,0-10.292-8.949,29.416,29.416,0,0,0-3.6.241C1828.894,404.639,1828.259,404.779,1827.242,404.941Zm-94.291,59.7a13.441,13.441,0,0,0,1.361,1.606,40.73,40.73,0,0,0,8.933,5.825,60.683,60.683,0,0,0,17.452,5.617c-3.349-.085-6.678-.315-10.01-.521a43.9,43.9,0,0,1-13.972-3.469,8.992,8.992,0,0,1-3.957-3.121c-1.269-1.784-1.83-3.748-.551-5.916h.767c-.15-.288-.3-.573-.436-.817,1.414-4.568,7.67-8.741,11.078-9.2,4.048,3.357,8.27,6.626,13.347,8.544a67.461,67.461,0,0,1-12.52-8.99,13.551,13.551,0,0,1,7.152-1.126,42,42,0,0,1,8.643,1.893,5.265,5.265,0,0,1,2.8,2.074c5.225,7.269,11.832,12.744,20.518,15.435a7.234,7.234,0,0,1,.852.389c-10.325,1.548-20.137-.573-29.813-3.79a36.135,36.135,0,0,0,9.095,3.236,81.5,81.5,0,0,0,9.695,1.661c3.135.31,6.313.181,9.472.244-4.2,1.184-8.319,2.54-12.722,2.521-4.7-.016-9.415.4-14.068-.77A56.68,56.68,0,0,1,1732.951,464.643Zm-13.084-200.6c.249.595.5,1.134.7,1.7a247.833,247.833,0,0,1,8.248,28.35,397.382,397.382,0,0,1,7.623,44.448c.677,5.982,1.34,11.966,1.894,17.962.425,4.636.768,9.286.97,13.936.307,7.124.619,14.254.635,21.384.017,6.963-.252,13.928-.551,20.888-.222,5.143-.538,10.292-1.094,15.408-.562,5.165-1.364,10.308-2.255,15.427a75.633,75.633,0,0,1-7.105,22.118c-1.425,2.746-3.332,3.59-6.535,2.589-.277-.932-.6-1.967-.888-3.014-2.507-9.149-3.129-18.553-3.554-27.958-.339-7.563-.293-15.142-.424-22.713-.006-.364-.052-.729-.079-1.1-.225,2.529-.162,5.05-.236,7.568a244.259,244.259,0,0,0,.693,28.429,93.84,93.84,0,0,0,2.945,17.279,6.581,6.581,0,0,1,.118,1.222,3.319,3.319,0,0,1-3.359-2.088c-.532-1.143-1.192-2.225-1.721-3.368-3.233-7.012-5.05-14.454-6.552-21.984-1.463-7.322-1.937-14.758-2.6-22.173-.46-5.129-.795-10.27-1.351-15.386-.576-5.332-1.206-10.665-2.069-15.953-1.691-10.374-4-20.62-6.678-30.788-3.8-14.443-8.22-28.73-11.188-43.387-1.184-5.839-2.395-11.679-3.466-17.54-.619-3.384-.979-6.817-1.466-10.223a14.888,14.888,0,0,1,3.1-12.051,24.8,24.8,0,0,1,13.826-8.366,3.717,3.717,0,0,1,.921.041c4.053,14.627,8.125,29.215,10.509,44.212-1.488-15.18-5.694-29.78-9.569-44.418a19.623,19.623,0,0,1,7.771-.858c1.491,6.341,3,12.78,4.519,19.222a14.282,14.282,0,0,0-.2-2.759c-1.072-5.187-2.189-10.366-3.274-15.553a6.759,6.759,0,0,1-.009-1.217A47.6,47.6,0,0,1,1719.867,264.04Zm125.1,66.429-.315-.1a2.363,2.363,0,0,0-.249.378c-.548,1.313-1.121,2.617-1.62,3.949-6.831,18.282-14.5,36.214-22.759,53.893a191.491,191.491,0,0,1-16.972,30.043,38.967,38.967,0,0,1-4.354,5.124c-1.986,1.962-4.178,3.718-6.286,5.565a72.621,72.621,0,0,1-11.632,8.316c-.5.291-1.033.542-1.548.811l-.214-.252c.384-.419.756-.847,1.151-1.258a146.729,146.729,0,0,0,21.316-28.144c8.374-14.4,14.816-29.692,20.479-45.325.74-2.036,1.357-4.118,2.1-6.387-.323.2-.447.23-.477.3-.255.6-.507,1.208-.732,1.822a360,360,0,0,1-15.624,36.726,155.941,155.941,0,0,1-29.9,42.261,12.637,12.637,0,0,1-6.793,3.694c-.864.162-1.713.381-2.579.532a11.3,11.3,0,0,1-1.488.008c15.323-16.7,26.492-35.668,35.417-56.03-.154-.041-.208-.019-.227.019-.556,1.071-1.115,2.137-1.655,3.217a266.143,266.143,0,0,1-18.439,32.051,185.363,185.363,0,0,1-15.983,20.074,3.888,3.888,0,0,1-2.118,1.441c-2.524.515-5.023,1.148-7.533,1.724-.334.074-.682.082-1.225.143.263-.485.392-.781.57-1.044a169.816,169.816,0,0,0,13.479-24.85c1.1-2.387,2.321-4.721,3.562-7.039,3.809-7.1,7.782-14.12,11.456-21.294,5.875-11.473,10.7-23.42,15.49-35.378,3.4-8.489,6.892-16.937,9.645-25.667.206-.658.353-1.334.529-2.006a9.452,9.452,0,0,0-1.085,2.236q-5.5,13.81-11.015,27.618a388.007,388.007,0,0,1-22.415,47.566c-.331.589-.685,1.167-1.03,1.751a2.873,2.873,0,0,1,.143-1.5c1.441-5.064,3.039-10.086,4.285-15.2a100.538,100.538,0,0,0,3.247-20.611,9.748,9.748,0,0,1,.729-2.842q3.908-11.073,7.853-22.132a11.622,11.622,0,0,0,.318-1.376,51.179,51.179,0,0,0-2.981,6.639c-1.688,4.513-3.315,9.051-4.979,13.572-.192.521-.46,1.011-.836,1.825-.118-.573-.173-.732-.181-.891a80.03,80.03,0,0,0-1.608-12.555,5.694,5.694,0,0,1,.148-2.74c1.118-3.614,2.263-7.226,3.567-10.774a53.634,53.634,0,0,1,9.059-16.329,22.216,22.216,0,0,1,10.412-7.2c6.286-1.984,12.46-1.236,18.589.726a4.808,4.808,0,0,1,.89.537c-2.992,9.327-6.9,18.214-10.76,27.127a147.973,147.973,0,0,0,11.687-26.686l2.919.438c-.129.384-.211.7-.335.995-3.485,8.519-6.866,17.082-10.5,25.535-2.51,5.837-5.385,11.514-8.078,17.271-.266.562-.427,1.173-.636,1.759l.34.148c.252-.461.51-.915.757-1.378a362.688,362.688,0,0,0,19.409-43.867,16.144,16.144,0,0,1,4.576-6.683c1.071-.94,2.187-1.833,3.329-2.685a12.258,12.258,0,0,1,5.283-2.167,18.237,18.237,0,0,1,1.97-.11c-2.634,7.755-5.188,15.282-7.738,22.809l.367.134c3.247-7.44,5.5-15.265,8.513-22.842a8.308,8.308,0,0,1,3.885,1.606,19.79,19.79,0,0,1,7.418,10.01c2.069,5.68,1.8,11.429.482,17.192a88.75,88.75,0,0,1-6.308,17.814c-8.238,17.589-16.6,35.12-24.9,52.679a3.6,3.6,0,0,1-1.682,1.715,41.623,41.623,0,0,0-4.149,2.354c-4,2.707-7.943,5.488-11.911,8.24-.444.307-.891.6-1.337.907a4.2,4.2,0,0,1,.762-1.795,162.843,162.843,0,0,0,10.182-17.477,579.452,579.452,0,0,0,26.632-62.229C1843.488,334.78,1844.217,332.62,1844.965,330.469Zm-192.487-4.6c-.529-3-1.129-6-1.57-9.012-.781-5.354-1.485-10.719-2.175-16.087-.23-1.789-.236-3.612-.515-5.393a5.155,5.155,0,0,1,.917-4.028,22.129,22.129,0,0,1,7.617-6.908,28.418,28.418,0,0,1,22.727-2.033c.107,1.493.118,3.033.348,4.54.835,5.516,1.608,11.043,2.655,16.52,2.653,13.873,6.064,27.569,9.887,41.165,4.162,14.81,8.023,29.7,10.185,44.963.984,6.935,1.784,13.9,2.513,20.866.567,5.393.924,10.81,1.324,16.219a124.008,124.008,0,0,0,2.679,18.011c1.639,7.341,3.623,14.567,7.27,21.225a3.662,3.662,0,0,1,.2.784c-2.291-.449-4.168-1.176-5.133-3.332a11.184,11.184,0,0,0-.869-1.395c-5.1-8.034-9.5-16.4-12.1-25.618a6.254,6.254,0,0,0-.392-.855l-.3.11c.874,2.809,1.668,5.647,2.639,8.42a95.755,95.755,0,0,0,9.469,18.751c.293.474.567.962,1.006,1.7a6.812,6.812,0,0,1-4.034-2.406,89.237,89.237,0,0,1-10.68-16.567,168.794,168.794,0,0,1-12.172-33.279c-2.466-9.316-4.431-18.74-5.988-28.251-1.148-7.017-2.354-14.024-3.524-21.039-1.033-6.2-1.981-12.421-3.093-18.608-1.682-9.366-4.157-18.554-6.541-27.758-.148-.573-.375-1.126-.567-1.688,1.31,6.617,3,13.123,4.269,19.707,1.909,9.93,3.559,19.91,5.258,29.879,1.477,8.681,2.809,17.389,4.308,26.064a245.144,245.144,0,0,0,8.305,33.945c4.168,12.84,9.434,25.154,17.655,36.016a4.9,4.9,0,0,1,.362.9c-.622-.3-.97-.441-1.288-.63-8.272-4.94-14.84-11.511-18.759-20.389a144.714,144.714,0,0,1-6.267-16.266,366.7,366.7,0,0,0-16.265-43.963,201.123,201.123,0,0,1-9.67-26.757c-3.721-12.868-7.349-25.749-7.966-39.253a46.794,46.794,0,0,1,2-16.737c.173-.543.428-1.058.644-1.584.915,5.091,1.546,10.114,2.26,15.128A80.728,80.728,0,0,0,1652.479,325.869Zm86.468,127.142-.288-.2c.167-.5.337-1,.5-1.5.929-2.809,1.935-5.593,2.765-8.429a176.171,176.171,0,0,0,5.308-24.864c.8-5.634,1.6-11.273,2.206-16.931.518-4.845.833-9.716,1.093-14.583.384-7.226.822-14.457.9-21.688.1-8.722-.1-17.447-.285-26.166-.12-5.535-.449-11.065-.7-16.6-.08-1.7-.209-3.39-.362-5.08q-.584-6.543-1.217-13.081c-.34-3.485-.641-6.976-1.1-10.448-.671-5.146-1.466-10.278-2.2-15.419-.129-.9-.23-1.8-.356-2.79.345.071.531.058.65.143.934.677,1.868,1.348,2.773,2.061,5.9,4.647,10.478,10.275,12.991,17.446a47.077,47.077,0,0,1,2.412,14.388c.17,6.253.137,12.511.2,18.764a58.483,58.483,0,0,1,.071,5.916c-.405,4.411-.97,8.81-1.534,13.2a178.158,178.158,0,0,1-4.061,21.916c-.085.332-.11.677-.162,1.017l.4.082c2.121-5.9,3.135-12.073,4.058-18.252.932-6.234,1.71-12.492,2.593-19.022,1.239,1.118,2.392,2.036,3.4,3.091a32.934,32.934,0,0,1,8.1,15.389,63.3,63.3,0,0,1,1.828,20.225,115.516,115.516,0,0,1-1.727,12.207c-3.337,17.693-9.982,34.175-18.677,49.862-2.31,4.168-5.039,8.105-7.549,12.163a4.944,4.944,0,0,1-2.11,1.74c-3.006,1.584-5.971,3.242-8.949,4.872C1739.6,452.628,1739.273,452.822,1738.947,453.011ZM1763.161,273.7c4.239.208,8.272.493,11.971,2.433,2.236,1.17,4.507,2.3,6.623,3.664a12.79,12.79,0,0,0,9.769,1.743c2.154-.406,4.335-.682,6.519-.885a9.119,9.119,0,0,1,4.554.554,12.164,12.164,0,0,1-.107,1.7c-.893,4.277-1.817,8.552-2.719,12.827a11.554,11.554,0,0,0-.134,1.269,66.959,66.959,0,0,0,4.077-15.619,13.016,13.016,0,0,1,5,2.019,192.572,192.572,0,0,1-5.152,22.058,9.736,9.736,0,0,0,1.479-2.863c1.411-5.225,2.746-10.47,4.1-15.712.225-.866.389-1.746.611-2.743.474.282.767.422,1.025.614a18.189,18.189,0,0,1,5.048,5.79,37.987,37.987,0,0,1,4.806,20.071c-.022.537-.118,1.069-.189,1.7-.644-.071-1.178-.118-1.7-.195-1.789-.263-3.57-.617-5.368-.792-8.768-.858-16.251,1.74-22.129,8.445a43.752,43.752,0,0,0-7.689,12.207c-1.647,4-3.047,8.108-4.557,12.166-.2.531-.4,1.058-.726,1.91-.784-1.652-1.31-2.976-2.019-4.19a5.578,5.578,0,0,1-.658-3.806c.707-4.59,1.463-9.174,2.192-13.761.11-.7.175-1.4.26-2.1l-.32-.036c-1.658,5.28-2.143,10.81-3.211,16.507-1.039-1.321-1.877-2.389-2.735-3.483.529-12.177,2.606-24.168,4.157-36.225a221.436,221.436,0,0,0-5.11,35.06,30.577,30.577,0,0,0-2.387-2.008,3.8,3.8,0,0,1-1.715-3.513c.035-2.028.027-4.061,0-6.091-.077-6.415.1-12.832-.663-19.233a39.244,39.244,0,0,0-11.964-24.3c-.386-.373-.75-.767-1.227-1.252a15.022,15.022,0,0,1,9.146-3.836c.239,2.45-.794,4.625-.471,6.837l.422.038C1762.353,278.418,1762.736,276.174,1763.161,273.7Zm-29.2,183.343c.172-.762.26-1.173.362-1.581.677-2.7,1.417-5.4,2.031-8.119a190.892,190.892,0,0,0,3.861-29.111c.452-6.672.63-13.369.7-20.055.069-6.253-.072-12.509-.288-18.759q-.312-9.116-.983-18.222c-.436-6-1.009-12-1.647-17.992-.589-5.546-1.178-11.106-2.072-16.611q-2.039-12.544-4.524-25.018a224.793,224.793,0,0,0-10.221-36.123,11.707,11.707,0,0,1-.3-1.326,72.537,72.537,0,0,1,23.363,10.073c.57,3.968,1.194,7.853,1.671,11.755.635,5.215,1.2,10.435,1.715,15.66.573,5.776,1.154,11.552,1.556,17.34.438,6.289.745,12.588.987,18.888.2,5.154.331,10.314.285,15.471q-.107,11.6-.526,23.2c-.205,5.639-.562,11.276-1.011,16.9-.427,5.346-.909,10.7-1.644,16.011-.954,6.88-2.042,13.75-3.332,20.573a125,125,0,0,1-6.56,22.861A9,9,0,0,1,1733.962,457.039Zm-30.492,11.133c-3.127.427-5.894.959-8.695-.636a66.1,66.1,0,0,1-16.663-13.786,113.793,113.793,0,0,1-15.594-23.146c-9.662-18.49-15.822-38.214-20.334-58.488-1.606-7.2-2.905-14.476-4.209-21.743-.731-4.088-1.208-8.223-1.759-12.344-.4-2.981-.743-5.971-1.085-8.96q-.469-4.077-.875-8.16c-.326-3.376-.619-6.757-.912-10.136a11.069,11.069,0,0,1,.055-1.282,22.062,22.062,0,0,1,8.078,3.62c.047.617.066,1.107.124,1.595.57,4.792.822,9.648,1.781,14.361,3.551,17.452,8.369,34.545,15.529,50.9,5.921,13.531,11.429,27.209,15.534,41.423a154.581,154.581,0,0,0,6.365,17.638,49.078,49.078,0,0,0,11.144,16.539,56.385,56.385,0,0,0,11.815,8.593,6.522,6.522,0,0,1,1.5.995c.787.778.69,1.488-.365,2.447-1.773-1.151-3.658-2.263-5.423-3.535a82.14,82.14,0,0,1-24.322-28.16,224.377,224.377,0,0,1-17.219-41.683c-.222-.732-.493-1.449-.74-2.176a.533.533,0,0,0-.176.545c.066.321.137.641.219.956a197.09,197.09,0,0,0,16.441,41.615c6.938,13.281,16.362,24.365,29.18,32.372A5.641,5.641,0,0,1,1703.47,468.172Zm-86.241-156.487c-.082-.09.088.011.126.151.181.63.343,1.266.48,1.907,1.5,7.116,2.723,14.306,4.568,21.332,3.433,13.076,7.171,26.073,10.9,39.069,3.549,12.372,7.3,24.686,11.906,36.715,4.135,10.791,9.1,21.157,15.838,30.6,4.74,6.642,10,12.8,16.665,17.63a93.812,93.812,0,0,0,14.323,8.385c.482.233.942.515,1.413.773l-.148.332c-1.4-.219-2.811-.395-4.2-.669-12.243-2.4-22.327-8.27-29.728-18.477a74.18,74.18,0,0,1-7.349-12.081q-6.2-13.272-12.106-26.675c-3.693-8.338-7.406-16.649-12.711-24.138-7.565-10.676-13.945-22.08-20.367-33.452a65.158,65.158,0,0,1-6.316-14.983,39.2,39.2,0,0,1-1.507-14.161,11.116,11.116,0,0,1,4.894-8.21,216.917,216.917,0,0,0,8.157,24.809,35.225,35.225,0,0,0-1.049-4.272q-2.931-9.828-5.864-19.658a13.227,13.227,0,0,1-.282-1.57,16.021,16.021,0,0,1,6.582-2.348C1613.322,312.379,1615.188,312.042,1617.229,311.686Zm15.5-2.4c0,1.523-.094,2.841.016,4.14q.546,6.626,1.219,13.243c.427,4.247.8,8.5,1.414,12.725.962,6.656,2.042,13.3,3.19,19.926a294.061,294.061,0,0,0,7.938,33.693c4.258,14.326,9.552,28.237,16.849,41.318,5.842,10.467,12.758,20.1,21.984,27.911a2.109,2.109,0,0,1,.288.422,6.464,6.464,0,0,1-1.727-.762c-8.9-5.187-15.813-12.449-21.729-20.768a133.585,133.585,0,0,1-14.805-27.821c-4.417-10.991-7.935-22.286-11.3-33.63-6.228-20.987-12.747-41.9-16.811-63.459-.343-1.814-.773-3.612-1.2-5.587C1622.748,308.54,1627.5,308.387,1632.733,309.285Zm186.425,108.005c2.619,9.04,2.3,17.657.416,26.325a37.909,37.909,0,0,0,1.576-6.187,48.931,48.931,0,0,0-1.384-21.1c1.575-1.491,3.025-2.987,4.606-4.324a22.947,22.947,0,0,1,7.949-4.538,5.179,5.179,0,0,1,3.543-.006,7.255,7.255,0,0,1,4.9,5.343,21.39,21.39,0,0,1,.46,5.379,43.433,43.433,0,0,1-5.836,19.016c-3.866,6.968-9.319,12.572-15.3,17.721a5.205,5.205,0,0,1-.753.389c9.379-13.065,14.708-27.111,13.917-43.1a16.085,16.085,0,0,0-.315,2.858,68.706,68.706,0,0,1-1.556,12.364,70.418,70.418,0,0,1-9.415,22.48c-3.485,5.519-7.749,10.369-13.544,13.64-.389.219-.8.4-1.373.68,6.434-11.117,6.226-22.694,3.8-34.509A95.206,95.206,0,0,1,1819.159,417.291Zm-69.551,33.057-.032-.31c.539-.244,1.071-.507,1.619-.732a58.553,58.553,0,0,1,14.246-3.875,42.024,42.024,0,0,0,13.241-3.735,76.214,76.214,0,0,0,15.4-10.311c4.349-3.694,8.56-7.56,13.076-11.035,4.469-3.439,9.224-6.513,13.893-9.689a16.313,16.313,0,0,1,4.828-2.28,1,1,0,0,1-.392.513c-5.252,3.244-9.177,7.787-12.506,12.887-2.126,3.261-4.151,6.587-6.192,9.906a45.374,45.374,0,0,1-16.071,15.726c-6.826,3.948-14.128,6.308-22.157,5.294a49.785,49.785,0,0,1-6.42-1.384,30.413,30.413,0,0,0-10.588-.984C1750.91,450.4,1750.258,450.348,1749.608,450.348Zm38.044,22c-10.539-1.817-18.252-7.889-24.5-16.244a17.225,17.225,0,0,1,3.226.373,24.185,24.185,0,0,0,8.495.26,48.37,48.37,0,0,0,13.309-4.592c.529-.26,1.063-.515,1.743-.844,1.425,6.491,3.151,12.731,6.351,18.573l-1.657.614-2.661-2.918-.175.159c.646.992,1.29,1.984,1.989,3.058-4.209,2.376-7.478.373-10.708-1.951C1784.145,470.628,1785.926,471.441,1787.653,472.348ZM1803.51,455.3c-.184,1.233-.348,2.469-.556,3.7a20.434,20.434,0,0,1-3.11,8.393,4.013,4.013,0,0,1-2.693,1.976c-3.414-5.719-4.955-12.065-6.571-18.545a69.183,69.183,0,0,0,14.528-12.1,52.1,52.1,0,0,1,1.082,7.36,55.222,55.222,0,0,1-.625,12.607,17.8,17.8,0,0,1-2.776,7.135,3.576,3.576,0,0,1-2.1,1.754C1802.975,463.788,1803.526,459.607,1803.51,455.3Zm1.137,9.963c3.458-9.163,2.88-18.351,1.044-27.58.778-1.121,1.515-2.209,2.285-3.272a22.242,22.242,0,0,1,2.356-3.439,54.136,54.136,0,0,1,.137,22.28,25.551,25.551,0,0,1-3.9,9.695C1805.99,463.766,1805.288,464.5,1804.647,465.265Z" transform="translate(-1596.343 -260.669)" fill="#6a5975"></path><path id="Path_12" data-name="Path 12" d="M1653.624,394.72a5.068,5.068,0,0,0,.189-.9c.132-3.34.285-6.68.36-10.021.132-5.7.337-11.407.274-17.107-.068-6.083-.354-12.163-.658-18.241-.227-4.59-.548-9.182-.99-13.758-.54-5.549-1.255-11.081-1.879-16.622a175.857,175.857,0,0,0-3.344-19.534c-.537-2.343-1.126-4.672-1.7-7a1.5,1.5,0,0,0-.687-.97c.11.586.194,1.178.332,1.757a193.611,193.611,0,0,1,3.814,20.11c.683,5.532,1.408,11.062,1.943,16.611.562,5.828.943,11.673,1.359,17.512q1.028,14.443.9,28.925c-.058,5.757-.2,11.514-.3,17.274-.011.652,0,1.3,0,1.956Z" transform="translate(-1525.703 -208.641)" fill="#6a5975"></path><path id="Path_13" data-name="Path 13" d="M1640.62,294.384c-1.674,15.934-6.2,31.2-11.177,46.577,1.143-.148,1.159-.759,1.3-1.228,1.956-6.374,4.085-12.7,5.8-19.137,1.446-5.426,2.507-10.963,3.554-16.485.559-2.943.731-5.96,1.063-8.944a2.922,2.922,0,0,0-.107-.74Z" transform="translate(-1469.281 -201.999)" fill="#6a5975"></path></g><g id="Group_9" data-name="Group 9" transform="translate(67.277)"><path id="Path_20" data-name="Path 20" d="M1936.99,353c.682-.975,1.354-1.907,1.994-2.863a17.154,17.154,0,0,0,2.91-8.788A26.275,26.275,0,0,0,1938.348,327a13.318,13.318,0,0,0-6.494-5.6c-.49-.222-.986-.428-1.647-.71.337-.625.606-1.14.891-1.647a31.928,31.928,0,0,0,3.8-9.6,17.258,17.258,0,0,0-4.688-15.923,24.219,24.219,0,0,0-16.8-7.672,42.141,42.141,0,0,0-12.407,1.187c-.731.181-1.477.31-2.414.5-.046-.844-.112-1.534-.115-2.225a47.008,47.008,0,0,0-2.765-16.139,36.634,36.634,0,0,0-13.391-17.515,27.524,27.524,0,0,0-15.21-5.193,21.384,21.384,0,0,0-15.764,5.483c-1.987,1.8-3.77,3.828-5.645,5.754a4.884,4.884,0,0,1-1.633,1.228q.172-1.007.351-2.011a11.526,11.526,0,0,0-3.406-10.522c-1.688-1.745-3.938-2.324-6.242-2.683a31.676,31.676,0,0,0-10.807.255c-.482.09-.973.134-1.666.225a11.611,11.611,0,0,1-.3-1.882,10.3,10.3,0,0,0-5.293-9.256c-2.792-1.759-5.554-3.54-8.941-3.979a21.428,21.428,0,0,0-12.082,1.461c-.4.184-.813.334-1.2.534a11.873,11.873,0,0,1-8.439,1,21.467,21.467,0,0,0-12.147,1,13.518,13.518,0,0,0-7.935,6.768c-.143.29-.332.556-.554.923-.444-.1-.864-.164-1.266-.285a17.38,17.38,0,0,0-13.112,1.2,33.352,33.352,0,0,0-8.8,6.305,192.466,192.466,0,0,1-15.082,13.5c-.427.343-.825.723-1.249,1.069a22.806,22.806,0,0,0-8.3,14.712c-.759,4.823-1.356,9.67-2,14.509-1.954,14.791-3.932,29.58-5.826,44.379-1.165,9.086-2.537,18.167-3.173,27.292a175.375,175.375,0,0,0-.071,23.36,55.093,55.093,0,0,0,7.872,24.4,90.527,90.527,0,0,0,12.774,17.12,91.7,91.7,0,0,0,7.335,6.6,27.791,27.791,0,0,1,6.261,7.357,12.566,12.566,0,0,1,.622,11.426,40.49,40.49,0,0,1-7.481,11.558c-5.121,5.8-10.424,11.44-15.545,17.244a840.652,840.652,0,0,0-76.663,102.062,884.7,884.7,0,0,0-66.852,124.257,655.972,655.972,0,0,0-32.292,90.268,422.326,422.326,0,0,0-10,46.136c-.9,5.8-1.457,11.651-2.4,17.444-1.271,7.834-1.288,15.739-1.628,23.628-.468,10.911-.849,21.825-1.378,32.734a105.659,105.659,0,0,1-2.743,17.041c-3.173,14.75-6.376,29.492-9.481,44.253a238.666,238.666,0,0,0-4.71,59.743q.419,9.7.874,19.406a15.223,15.223,0,0,0,.326,1.951c1.474.329,1.948.134,2.126-.929a11.674,11.674,0,0,0,.044-2.3c-.31-10.366-.718-20.729-.921-31.1a187.242,187.242,0,0,1,3.493-38.792c2.2-11.528,4.773-22.984,7.171-34.474,1.759-8.431,3.656-16.838,5.2-25.308a102.249,102.249,0,0,0,1.508-13.893c.589-13.651.893-27.316,1.466-40.968.178-4.264.767-8.519,1.332-12.755.838-6.3,1.923-12.577,2.724-18.888a250.207,250.207,0,0,1,5.261-26.445c7.883-33.131,19.05-65.171,32.3-96.5a888.165,888.165,0,0,1,87-157.714,798.612,798.612,0,0,1,69.934-88.161c1.005-1.091,2.071-2.126,3.019-3.264,3.2-3.839,7.212-6.722,11.246-9.58a1.97,1.97,0,0,1,.274-.181c5.831-3.058,11.919-4.965,18.616-4.209a11.976,11.976,0,0,1,7.119,3.433,60.079,60.079,0,0,0,13.287,9.917,35.847,35.847,0,0,0,14.887,4.327c13.043.775,25.36-1.611,36.71-8.24,7.012-4.1,14.043-8.168,20.893-12.525,14.635-9.308,29.353-18.474,44.585-26.79,7.492-4.091,14.271-9.242,21.094-14.323q3.7-2.75,7.286-5.65a40.045,40.045,0,0,0,9.694-11.942c3.031-5.48,2.921-11.125.956-16.874a8.679,8.679,0,0,0-2.783-4.006,2.411,2.411,0,0,1-.825-3.047c1.679-4.543,1.559-9.262,1.227-13.988C1937.277,355.176,1937.113,354.091,1936.99,353Zm-9.018-11.355a21.344,21.344,0,0,1,6,9.982,36.889,36.889,0,0,1,.568,14.868,9.637,9.637,0,0,1-3.1,6c-7.218,6.415-14.161,13.158-21.592,19.31-13.652,11.3-27.563,22.288-41.39,33.378a244.2,244.2,0,0,1-32.791,22.529c-11.07,6.239-22.53,11.566-34.961,14.509-5.058,1.2-10.117,2.11-15.438,1.573-7.426-.748-12.314-4.858-16.172-10.939a8.537,8.537,0,0,1,1,.123,51.63,51.63,0,0,0,16.994,1.039,64.856,64.856,0,0,0,17.383-4.069,149.465,149.465,0,0,0,29.917-15.761,310.37,310.37,0,0,0,30.881-23.53c9.879-8.462,19.822-16.855,29.449-25.6,7.143-6.486,13.827-13.484,20.71-20.258.088-.085.1-.247.142-.373a47.483,47.483,0,0,0-4.779,4.02c-8.884,8.494-17.6,17.167-27.059,25.048-10.665,8.886-21.184,17.953-31.994,26.662a204.933,204.933,0,0,1-34.4,22.76c-9.993,5.157-20.321,9.273-31.728,10.056a48.629,48.629,0,0,1-16.285-1.43A5.853,5.853,0,0,1,1765,446.08c.071-.079.129-.189.22-.233a9.2,9.2,0,0,1,.9-.392,148.33,148.33,0,0,0,28.857-14.6c11.075-7.078,21.326-15.257,31.456-23.587,7.5-6.171,14.8-12.583,22.322-18.729a366.57,366.57,0,0,0,27.661-24.362c2.545-2.551,5.22-4.973,7.834-7.456a1.88,1.88,0,0,0-.973.455c-2.228,1.954-4.467,3.894-6.659,5.886-4.387,3.987-8.61,8.163-13.142,11.977q-19.459,16.375-39.121,32.512a322.8,322.8,0,0,1-27.6,20.789,148.989,148.989,0,0,1-30.13,15.7c-.589.216-1.189.4-1.9.633a4.9,4.9,0,0,1,1.715-4.754c1.058-.869,2.25-1.592,3.239-2.532,3.853-3.672,7.713-7.338,11.443-11.133,3-3.052,5.814-6.283,8.7-9.445a118.158,118.158,0,0,1,18.293-16.033c6.338-4.584,13.454-7.609,20.809-10.086a27.169,27.169,0,0,0,9.47-5.469,145.02,145.02,0,0,0,12.667-12.465q4.2-4.747,8.437-9.462a115.932,115.932,0,0,1,24.2-20.444,59.585,59.585,0,0,1,12.867-6.206,34.872,34.872,0,0,1,20.579-.776c.605.162,1.187.414,1.543.54-2.307,2.464-4.532,4.88-6.8,7.253-2.294,2.4-4.847,4.546-6.719,7.344,5.165-4.53,10.16-9.234,14.991-14,2.924.852,5.828,2.611,6.746,4.064-.208.233-.414.488-.641.721a262.094,262.094,0,0,1-23.22,21.422c-1.71,1.376-3.37,2.811-5.033,4.242a3.438,3.438,0,0,0-.526.8C1908.582,360.506,1918.466,351.444,1927.971,341.646Zm-187.6,92.5c-.23-.121-.469-.222-.686-.362a36.131,36.131,0,0,1-14.627-18.7c-3.042-8.56-4-17.49-4.519-26.464a129.443,129.443,0,0,1,1.332-24.6q1.118-8.381,2.529-16.718c1.436-8.467,2.981-16.918,4.508-25.368,1.11-6.138,2.274-12.265,3.4-18.4q2.1-11.459,4.181-22.924,2.38-13,4.79-25.982c.2-1.052.3-2.335.954-3.047a32.466,32.466,0,0,1,11.161-8.264c10.149-4.327,21.061,4.132,20.883,13.635a55.48,55.48,0,0,1-1.86,13.788c-1.625,5.91-3.444,11.766-5.113,17.666-5.437,19.233-9.643,38.765-14.126,58.228-2.332,10.128-4.346,20.332-6.363,30.531-1.2,6.064-2.288,12.158-3.135,18.28-.712,5.146-1.05,10.347-1.466,15.531a66.781,66.781,0,0,0,2.392,24.4c.132.449.219.912.326,1.367l-.348.227a18.465,18.465,0,0,1-1.652-1.682,32.152,32.152,0,0,1-5.006-10.476c-2.513-8.3-3.282-16.866-3.559-25.467a201.751,201.751,0,0,1,.9-26.618c.474-4.74.819-9.495,1.428-14.216q1.093-8.459,2.551-16.871c1.285-7.324,2.543-14.662,4.189-21.907,2.593-11.407,5.5-22.743,8.272-34.109.241-.989.477-1.984.715-2.976a1.5,1.5,0,0,0-.644.9c-1.159,3.932-2.359,7.853-3.444,11.8-3.258,11.87-5.96,23.875-8.3,35.959-1.093,5.634-2.036,11.3-2.948,16.97-.649,4.05-1.195,8.122-1.674,12.2-.444,3.748-.773,7.513-1.088,11.276-.348,4.149-.811,8.3-.885,12.457-.146,8.44-.472,16.9.594,25.311.436,3.417.88,6.837,1.521,10.218A54.608,54.608,0,0,0,1740.371,434.147Zm151.014-168.376c-.523.564-1,1.088-1.488,1.6-8.919,9.39-17.969,18.647-26.434,28.47-11.761,13.646-23.064,27.629-33.43,42.371-8.207,11.67-16.531,23.256-24.823,34.863a451.568,451.568,0,0,1-34.726,42.379c-.285.312-.617.584-.929.871a12.1,12.1,0,0,1,1.334-2.737c7.165-11.821,14.252-23.686,20.622-35.964,6.574-12.67,11.972-25.864,17.244-39.1,5.878-14.764,11.581-29.6,17.431-44.371,5.672-14.32,13.243-27.412,24.39-38.291,4.236-4.135,8.889-6.911,14.893-7.081a19.316,19.316,0,0,1,7.284,1.06,127.605,127.605,0,0,0-10.44,13.408,4.8,4.8,0,0,0,1.567-1.269c3-3.5,5.982-7.015,8.985-10.511.383-.449.844-.833,1.211-1.192a8.3,8.3,0,0,1,4.14,2,244.118,244.118,0,0,0-19.854,25.785,7.649,7.649,0,0,0,2.8-2.85c5.415-7.264,11.029-14.364,17.027-21.154.389-.441.808-.855,1.176-1.247C1883.433,254.75,1889.267,261.036,1891.385,265.771Zm-107.134-.723c-2.833,11.429-6.023,22.6-7.916,34.087a7.018,7.018,0,0,0,.772-1.883q3.8-15.031,7.584-30.062c.11-.436.3-.852.512-1.417,1.584,1.195,3.048,2.146,3.719,3.9a29.4,29.4,0,0,1,1.932,11.613,69,69,0,0,1-5.665,24.891c-1.1,2.573-2.2,5.146-3.266,7.733a66.558,66.558,0,0,0-5.28,29.234c.26,4.82.811,9.629.975,14.452a139.73,139.73,0,0,1,.055,16.94c-.978,11.21-3.428,22.107-8.9,32.12a175.154,175.154,0,0,0-11.078,23.5,24.563,24.563,0,0,1-1.787,3.217,7.4,7.4,0,0,1-.46-1.373c-.252-3.058-.581-6.113-.674-9.177a96.481,96.481,0,0,1,.893-14.917,172.421,172.421,0,0,1,3.519-18.855c1.784-7.44,3.68-14.852,5.521-22.277.153-.622.255-1.255.378-1.882-1.491,4.34-2.663,8.714-3.847,13.084-3.278,12.1-6.469,24.217-7.138,36.808-.23,4.365-.1,8.758-.008,13.133.05,2.291.384,4.573.592,6.886a6.467,6.467,0,0,1-8.01,2.8c-.15-.386-.35-.83-.506-1.291a56.507,56.507,0,0,1-2.905-15.454,109.719,109.719,0,0,1,.68-18.562q.908-7.579,2.219-15.106c1.392-7.922,2.817-15.841,4.48-23.708,2.223-10.495,4.618-20.951,7.064-31.394,2.886-12.309,5.817-24.607,8.906-36.866,1.671-6.631,3.7-13.174,5.595-19.748a95.474,95.474,0,0,0,3.067-15.334C1778.324,261.814,1781.231,263.4,1784.251,265.048Zm107.655,1.636a32.8,32.8,0,0,1,2.85,7.982,53.894,53.894,0,0,1-.205,24.467,21.513,21.513,0,0,1-2.047,6.031,98.027,98.027,0,0,1-6.823,10.262,197.8,197.8,0,0,1-26.424,27.944q-19.754,17.419-39.639,34.685a389.486,389.486,0,0,0-39.82,39.488c-5.362,6.223-11.3,11.958-16.983,17.9-.444.46-.975.838-1.663,1.422a8.772,8.772,0,0,1-.8-1.926,7.449,7.449,0,0,1,.756-5.108,72.3,72.3,0,0,1,4.433-6.705c2.7-3.384,5.637-6.582,8.47-9.862,5.957-6.889,12.12-13.61,17.822-20.7,11.413-14.2,22.135-28.933,32.378-43.993a583.678,583.678,0,0,1,50.13-63.3c5.56-6.143,11.3-12.122,16.956-18.173A5.075,5.075,0,0,1,1891.906,266.684Zm-128.03,155.678-.258-.126c.268-.636.5-1.288.811-1.9,3.34-6.552,6.719-13.079,10.034-19.641a242.408,242.408,0,0,0,13.739-33.646,177.169,177.169,0,0,0,6.059-25.771c1.219-7.135,2.255-14.317,3.833-21.376a266.534,266.534,0,0,1,11.095-36.94c2.987-7.826,5.844-15.712,9.832-23.116.044-.082.005-.214.005-.321a45.793,45.793,0,0,0-3.924,6.853,257.316,257.316,0,0,0-14.194,38.839c-.214.781-.5,1.54-.759,2.31.017-3.283.351-6.5.54-9.727.255-4.324.5-8.651.545-12.98a58.334,58.334,0,0,1,5.171-24.264c3.379-7.067,8.371-12.295,16.34-14.068a29.6,29.6,0,0,1,13.052-.236,7.478,7.478,0,0,1,4.853,3.392,9.892,9.892,0,0,1,1.074,8.368,61.311,61.311,0,0,1-6.606,15.537,136.756,136.756,0,0,0-9.936,20.017c-5.154,13.049-10.215,26.13-15.391,39.17-5.157,12.991-10.3,25.993-16.46,38.557-8.511,17.362-18.628,33.811-28.785,50.235A8.455,8.455,0,0,1,1763.876,422.362Zm30.643,42.754-.044-.356c.734-.159,1.472-.318,2.206-.474.751-.159,1.5-.307,2.253-.469a120.184,120.184,0,0,0,27.6-9.963c15.457-7.563,29.555-17.222,42.918-27.993,10.04-8.094,19.866-16.46,30.06-24.357a353.938,353.938,0,0,0,32.953-28.791,1.827,1.827,0,0,1,.441-.3c.888,1.047,1.721,1.97,2.486,2.948a10.949,10.949,0,0,1,1.839,2.677c1.822,4.872,2.024,9.73-.494,14.487a36.1,36.1,0,0,1-9.7,11.914c-4.989,3.864-10.042,7.645-15.112,11.4a123.989,123.989,0,0,1-14.312,9.073c-13.821,7.571-27.265,15.772-40.5,24.31-7.2,4.642-14.559,9-21.968,13.29a63.688,63.688,0,0,1-33.331,8.7,36.816,36.816,0,0,1-20.178-6.1c-.395-.258-.753-.564-1.436-1.082,2.148.408,3.916.7,5.664,1.082a44.064,44.064,0,0,0,11.095.9,71.431,71.431,0,0,0,11.517-1.707,116.917,116.917,0,0,0,30.226-10.333,311.748,311.748,0,0,0,32.013-18.554c17.375-11.632,34.21-24.023,50.84-36.69,1.025-.781,2.014-1.611,3.02-2.417a2.4,2.4,0,0,0-1.348.529c-10.471,7.522-20.979,14.994-31.4,22.587a399.254,399.254,0,0,1-42.042,27.366,187.661,187.661,0,0,1-21.5,10.64,135.957,135.957,0,0,1-27.1,7.16C1799,464.974,1796.741,464.955,1794.519,465.116Zm-54.1-211.618c-.066.71-.074,1.2-.165,1.677q-1.849,9.758-3.724,19.507c-1.477,7.738-2.975,15.474-4.414,23.22-1.54,8.283-3.014,16.581-4.523,24.87-1.237,6.782-2.6,13.545-3.691,20.351-1.266,7.886-2.291,15.813-3.422,23.721a111.017,111.017,0,0,0-1.148,17.046c.052,4.486.515,8.969.868,13.448a77.813,77.813,0,0,0,2.348,13.575,41.7,41.7,0,0,0,9.623,18.3c.252.271.488.559.732.841a25.527,25.527,0,0,1-3.718-3.261,91.887,91.887,0,0,1-13.052-17.723,52.306,52.306,0,0,1-7.045-22.447,178.282,178.282,0,0,1,.05-22.7c.57-8.527,1.866-17.008,2.951-25.494,1.3-10.174,2.745-20.332,4.081-30.5,1.258-9.571,2.433-19.156,3.683-28.728.8-6.119,3.274-11.35,8.286-15.186.521-.4,1.009-.847,1.5-1.28q5.088-4.431,10.177-8.864A5.553,5.553,0,0,1,1740.414,253.5Zm195.975,95.962c-.263-.178-.392-.216-.43-.3-.189-.395-.348-.8-.532-1.2A23.862,23.862,0,0,0,1925.2,336.5a35.308,35.308,0,0,0-20.836-4.042,43.28,43.28,0,0,0-13.265,3.661c-.518.227-1.055.411-1.584.614a2.471,2.471,0,0,1,.759-1.159,22.143,22.143,0,0,0,7.724-16,2.694,2.694,0,0,1,.855-1.65c1.891-1.751,3.861-3.417,5.8-5.119.468-.411.923-.844,1.383-1.266l-.277-.332c-2.806,1.507-5.034,3.831-7.681,5.921-.293-1.852-.545-3.461-.83-5.294q8.544-7,17.169-14.06l-.252-.315a172.849,172.849,0,0,0-17.3,13.427c-.309-.63-.474-1.036-.7-1.406a5.964,5.964,0,0,1-.367-5.338,70.089,70.089,0,0,0,1.872-7.826c.367-1.814.542-3.669.822-5.65,1.077-.433,2.107-.945,3.195-1.274a32.564,32.564,0,0,1,10.744-1.2,22.546,22.546,0,0,1,15.307,6.349,15.1,15.1,0,0,1,4.374,15.786,37.674,37.674,0,0,1-4.171,9.092c-1.178,2-.787,3,1.365,3.713.417.14.842.258,1.246.419a10.532,10.532,0,0,1,5.437,4.34,23.192,23.192,0,0,1,3.494,13.492A13.866,13.866,0,0,1,1936.389,349.46Zm-43.917-42.335c.447,1.093.778,2.072,1.233,2.989,1.9,3.847,2.085,7.908,1.535,12.057a17.19,17.19,0,0,1-4.5,9.516,33.8,33.8,0,0,1-2.877,2.935c-5.244,4.5-10.541,8.944-15.783,13.446-3.162,2.715-6.39,5.368-9.347,8.294-3.507,3.469-6.812,7.149-10.1,10.834a189.622,189.622,0,0,1-14.443,14.862,30.679,30.679,0,0,1-11.207,6.648,79.687,79.687,0,0,0-26.349,14.539,174.05,174.05,0,0,0-17.572,17.3c-3.987,4.376-7.815,8.927-12.391,12.722a41.3,41.3,0,0,1-5.33,3.51,9.1,9.1,0,0,1-2.266.644,1.217,1.217,0,0,1,.381-.9c6.785-6.341,12.942-13.276,19.107-20.2,6.53-7.338,12.936-14.8,20.255-21.376q23.334-20.937,46.881-41.642c9.4-8.256,18.841-16.457,27.212-25.8,5.5-6.135,10.821-12.4,14.942-19.584A8.036,8.036,0,0,1,1892.473,307.125ZM1799.149,231.9l.239.345c-.7,2.184-1.441,4.354-2.077,6.557-.622,2.154-1.178,4.329-1.675,6.513-.509,2.239-.92,4.5-1.361,6.749a27.16,27.16,0,0,0-.836,6.6c2.321-9.078,3.749-18.392,7.4-27.053a18.684,18.684,0,0,1,7.176.044c2.842.51,5.168,2.085,7.511,3.612,3.524,2.293,4.379,4.4,3.866,9.659a1.549,1.549,0,0,1-.236.227,2.337,2.337,0,0,1-.436.225c-6.258,2.326-10.522,6.927-13.6,12.583a59.77,59.77,0,0,0-6.546,19.513c-.161,1.041-.361,2.077-.542,3.116l-.332.019c-.384-1.058-.761-2.121-1.148-3.179a28.3,28.3,0,0,0-6.678-11.021,30.773,30.773,0,0,0-7.13-4.968c-2.03-1.071-4.053-2.159-6.225-3.316.523-7.2-2.921-12.35-8.774-16.139a10.7,10.7,0,0,1,.362-1.03,11.055,11.055,0,0,1,6.313-5.467c5.138-2.014,10.292-1.482,15.564-.107-.521,2.217-1.132,4.373-1.512,6.568s-1,4.412-.411,6.691a101.062,101.062,0,0,1,3.044-13.531C1793.9,233.994,1796.527,232.944,1799.149,231.9Zm-20.422,153.382-.211-.068c.046-.307.093-.617.136-.926.482-3.307,1.154-6.6,1.406-9.928.688-9,.03-17.978-.737-26.949a68.324,68.324,0,0,1,.965-20.14,89.151,89.151,0,0,1,5.823-17.1,76.722,76.722,0,0,0,5.352-16.381,51.037,51.037,0,0,0,.827-16.52c-.189-1.381-.482-2.748-.729-4.121a17.342,17.342,0,0,1,2.091,3.9,54.886,54.886,0,0,1,4.215,21.483c-.052,2.524-.17,5.045-.318,7.563a50.684,50.684,0,0,1-.5,5.4c-.627,3.729-1.425,7.428-2.08,11.155-1.381,7.886-2.664,15.789-4.083,23.667A183.093,183.093,0,0,1,1779.371,384C1779.19,384.441,1778.944,384.855,1778.727,385.279Z" transform="translate(-1509.984 -228.815)" fill="#6a5975"></path><path id="Path_21" data-name="Path 21" d="M1542.776,326.585c.954.592,1.417.052,1.866-.236,2.4-1.537,4.831-3.036,7.149-4.691a369.306,369.306,0,0,0,34.69-27.7c.808-.74,1.567-1.532,2.337-2.313.05-.049.009-.189.009-.567A445.634,445.634,0,0,1,1542.776,326.585Z" transform="translate(-1246.747 -120.469)" fill="#6a5975"></path><path id="Path_22" data-name="Path 22" d="M1586.479,266.741c-2.715,4.8-12.665,42.724-12.21,46.1C1578.3,297.631,1582.347,282.346,1586.479,266.741Z" transform="translate(-1330.64 -162.819)" fill="#6a5975"></path><path id="Path_23" data-name="Path 23" d="M1595.319,274.821c-.1.008-.241-.025-.283.028q-21.266,25.627-42.51,51.273c-.258.312-.444.685-.833,1.293C1556.239,324.02,1593.656,278.8,1595.319,274.821Z" transform="translate(-1277.659 -148.764)" fill="#6a5975"></path><path id="Path_24" data-name="Path 24" d="M1569.64,264.7a5.889,5.889,0,0,0-.865.608c-11.808,11.736-24.708,22.228-37.4,32.956a21.307,21.307,0,0,0-1.625,1.7l.252.307a2.249,2.249,0,0,0,.493-.228,450.2,450.2,0,0,0,36.208-31.555c1.121-1.1,2.156-2.294,3.234-3.444Z" transform="translate(-1192.135 -166.367)" fill="#6a5975"></path></g></g><g id="Group_13" data-name="Group 13" transform="translate(1600.485 -148.654)" opacity="0.06"><g id="Group_7" data-name="Group 7" transform="translate(190.537)"><path id="Path_16" data-name="Path 16" d="M937.9,301.961a9.956,9.956,0,0,0,4.221,4.733c-.091.474-.162.841-.234,1.209a34.563,34.563,0,0,0-.08,13.925,22.032,22.032,0,0,0,5.088,10.064,12.5,12.5,0,0,0,10.866,4.434c.938-.075,1.853-.419,2.79-.549a4.7,4.7,0,0,1,2.006,0,8.189,8.189,0,0,0,6.967-.306c.166.475.311.848.425,1.229a35.376,35.376,0,0,0,4.432,9.835,27.268,27.268,0,0,0,8.183,7.982,41.14,41.14,0,0,0,10.758,4.9,21.9,21.9,0,0,0,9.134.769,19.047,19.047,0,0,0,10.985-5.574c2.169-2.166,1.571-1.882,4.744-2.069,2.574-.15,5.151-.344,7.713-.647a19.289,19.289,0,0,0,3.525-.911,2.43,2.43,0,0,1,1.958.138,31.216,31.216,0,0,0,8.881,2.812,21.123,21.123,0,0,0,10.506-1.424,20.589,20.589,0,0,0,11.106-9.5,2.021,2.021,0,0,1,1.463-1.113,12.819,12.819,0,0,0,7.2-4.319,26.126,26.126,0,0,0,5.018-8.624A67.892,67.892,0,0,0,1079,312.6a102.58,102.58,0,0,0-.037-19.465c-.252-2.99-.622-5.97-.935-8.956-.019-.18,0-.364,0-.787.367.343.6.544.82.766a22.646,22.646,0,0,0,10.029,6.282,20.365,20.365,0,0,0,13.3-.6,31.633,31.633,0,0,0,2.912-1.3,6.068,6.068,0,0,1,3.113-.474c1.515.065,3.04.184,4.551.1a12.585,12.585,0,0,0,6.053-1.821,8.931,8.931,0,0,0,.757-.509c2.007-1.549,3.176-3.513,2.727-6.116a6.6,6.6,0,0,0-4.338-5.3,13.421,13.421,0,0,0-3.667-.732c-2.082-.164-4.176-.159-6.264-.236a52.057,52.057,0,0,1-21.211-5.665,62.935,62.935,0,0,1-12.236-8.106,65.638,65.638,0,0,1-10.242-9.873,26.931,26.931,0,0,0-2.277-2.393,27.758,27.758,0,0,0-16.947-7.856c-.038-.005-.075,0-.114-.009-4.24-.488-4.232-.5-7.8-2.756-1.089-.69-2.241-1.283-3.351-1.942q-2.008-1.193-3.99-2.426c-3.053-1.9-4.443-4.8-4.857-8.244a21,21,0,0,1,.517-7.919,344.966,344.966,0,0,1,17.639-50.676c1.7-3.859,3.725-7.571,5.595-11.354.979-1.975,1.93-3.966,2.926-5.932a45.943,45.943,0,0,0,4.822-17.471c.678-8.881,2.148-17.653,3.69-26.413a107.3,107.3,0,0,1,4.546-16.705A253.47,253.47,0,0,1,1081,51.176c2.805-5.224,5.486-10.518,8.36-15.706A242.606,242.606,0,0,1,1105.468,11a247.047,247.047,0,0,1,24.092-28.718c4.132-4.2,8.459-8.2,12.694-12.3a3.162,3.162,0,0,0,.745-.844,1.033,1.033,0,0,0-.031-.923,1.2,1.2,0,0,0-1-.2,2.875,2.875,0,0,0-1.014.71c-.914.858-1.807,1.741-2.7,2.616-4.109,4.008-8.333,7.9-12.3,12.048a271.489,271.489,0,0,0-24.885,30.578A239.922,239.922,0,0,0,1083.119,43.2c-5.184,10.073-10.621,20.016-14.953,30.506a184.109,184.109,0,0,0-8.3,23.655,172.125,172.125,0,0,0-3.385,18.383c-.706,4.772-1.306,9.566-1.718,14.372A46.789,46.789,0,0,1,1049.9,147.8c-.993,1.928-1.87,3.913-2.889,5.824a235.815,235.815,0,0,0-11.869,26.775,359.847,359.847,0,0,0-11.983,37.81,22.168,22.168,0,0,1-3.59,7.811,10.589,10.589,0,0,1-7.14,4.49,20.978,20.978,0,0,1-3.4.266,40.74,40.74,0,0,1-8.811-.926,111.167,111.167,0,0,0-27.441-3.2,74.594,74.594,0,0,0-19.17,2.438,45.215,45.215,0,0,0-16.954,8.344,18.7,18.7,0,0,0-5.013,6.133,5.625,5.625,0,0,0-.71,3.4,4.69,4.69,0,0,0,2.744,3.8,16.844,16.844,0,0,0,4.787,1.437c1.091.161,2.176.346,3.263.519a2.2,2.2,0,0,1,1.9,1.564,11.864,11.864,0,0,0,3.677,5.261,8.328,8.328,0,0,0,2.917,1.729,9.732,9.732,0,0,1,.926.39,7.554,7.554,0,0,1-.416.793q-8.552,12.39-17.116,24.772a63.784,63.784,0,0,0-5.829,9.784,11.134,11.134,0,0,0-1.229,5.616,3.4,3.4,0,0,0,4.1,3.347,11.8,11.8,0,0,0,6.512-3.274C937.382,302.5,937.583,302.285,937.9,301.961Zm84.548-65.619a3.871,3.871,0,0,1,.059.419,74.623,74.623,0,0,1-1.3,15.849c-1.825,10.02-4.328,19.887-6.9,29.734q-5.094,19.516-10.968,38.815c-2.6,8.61-4.878,17.321-7.3,25.986a4.77,4.77,0,0,0-.089.612,48.141,48.141,0,0,0,1.858-5.151c1.674-5.759,3.275-11.541,4.953-17.3,3.048-10.466,6.2-20.9,9.178-31.387,3.377-11.913,6.455-23.9,9.033-36.02a86.626,86.626,0,0,0,2.29-21.675c-.033-.816-.056-1.634-.086-2.529a4.313,4.313,0,0,1,2.575.722,13.579,13.579,0,0,1,4.882,5.448,34.917,34.917,0,0,1,3.562,11.941,85.435,85.435,0,0,1,.71,12.93,163.182,163.182,0,0,1-2.975,27.463,283.633,283.633,0,0,1-18.336,59.207,4.383,4.383,0,0,1-.762,1.257,17.118,17.118,0,0,1-12.4,5.93c-5.058.145-9.623-1.563-14-3.9-.061-.033-.1-.11-.2-.231.07-.28.14-.61.234-.932.945-3.205,1.926-6.4,2.83-9.62.668-2.373,1.243-4.775,1.842-7.168a8.8,8.8,0,0,0,.135-1.143l-.14-.012q-2.755,9.255-5.507,18.506a2.208,2.208,0,0,1-.481-.1,23.647,23.647,0,0,1-6-4.492,3.118,3.118,0,0,1-.683-1.624c-.2-1.421-.267-2.863-.416-4.293a105.246,105.246,0,0,1-.433-14.065,161.848,161.848,0,0,1,7.8-44.371A131.936,131.936,0,0,1,999.8,253.724a66.283,66.283,0,0,1,11.922-14.32,31.6,31.6,0,0,1,8.669-5.586c.486-.2.972-.461,1.568-.056-.054.35-.094.724-.171,1.089-.4,1.895-.755,3.8-1.227,5.677q-4.813,19.125-10.927,37.877c-2.831,8.744-5.936,17.4-8.917,26.095-.1.3-.2.6-.3.9l.318.1c4.016-11.369,8.41-22.608,11.88-34.17C1016.094,259.731,1019.681,248.164,1022.451,236.342Zm5.343,103.769.147.087a4.323,4.323,0,0,0,.372-.488c.589-1.019,1.192-2.034,1.75-3.071a123.83,123.83,0,0,0,13.114-38.917,99.042,99.042,0,0,0,0-33.851,64.116,64.116,0,0,0-3.721-12.9,45.5,45.5,0,0,0-9.758-15.227,5.639,5.639,0,0,1-.5-.767,5.163,5.163,0,0,1,.869.344c1.748,1.209,3.574,2.326,5.214,3.67,7.724,6.331,12.68,14.526,15.715,23.927a67.018,67.018,0,0,1,2.879,13.811,91.273,91.273,0,0,1,.115,17.261c-1.383,15.774-5.918,30.676-12.488,45.009a6.386,6.386,0,0,1-.923,1.43,38.476,38.476,0,0,1-5.883,5.7,20.835,20.835,0,0,1-11.544,4.408c-2.938.2-5.88.339-8.865.507.077-.2.175-.472.294-.739a263.183,263.183,0,0,0,10.165-26.853,237.41,237.41,0,0,0,9.669-42.255c1.285-10.109,1.909-20.238.32-30.384a34.429,34.429,0,0,0-3.924-12.172c-.128-.222-.215-.467-.322-.7a2.318,2.318,0,0,1,.743.594,48.672,48.672,0,0,1,9.041,16.83,64.662,64.662,0,0,1,2.185,8.725,91.523,91.523,0,0,1,1.269,10.609,106.307,106.307,0,0,1-1.012,21.327,129.823,129.823,0,0,1-14.449,43.11C1028.1,339.461,1027.951,339.789,1027.794,340.111ZM938.025,299.88c.46-1,.87-1.893,1.285-2.788a240.027,240.027,0,0,1,17.761-32.354,124.252,124.252,0,0,1,16.2-20.126,52.662,52.662,0,0,1,14.439-10.579,15.772,15.772,0,0,1,7.273-1.744c-.306.131-.439.194-.578.246a35.837,35.837,0,0,0-8.145,4.245,64.79,64.79,0,0,0-14.379,14.51,118.536,118.536,0,0,0-12.212,20.685,139.457,139.457,0,0,0-9.574,27.14c-.075.32-.128.647-.191.97,1.526-4.481,2.88-8.991,4.452-13.423,4.481-12.642,10.316-24.592,18.438-35.342a65.237,65.237,0,0,1,12.56-12.979,29.545,29.545,0,0,1,11.64-5.743,13.91,13.91,0,0,1,5.315-.124,1.934,1.934,0,0,1,1.591.946c-.505.241-.926.47-1.367.645-1.907.757-3.847,1.433-5.721,2.26a68.92,68.92,0,0,0-11.329,6.553A50.351,50.351,0,0,0,972.336,255.7a54.967,54.967,0,0,0-7.183,15.7c-2.319,7.8-3.45,15.727-2.4,23.87.095.745.194,1.487.3,2.337-.827.353-1.611.631-2.339,1.015-.745.4-1.433.9-2.344,1.477.76-3.567,1.48-6.946,2.2-10.324l-.257-.068a15.056,15.056,0,0,0-.509,1.468c-.6,2.51-1.368,5-1.718,7.545a5.945,5.945,0,0,1-2.863,4.342,15.373,15.373,0,0,1-7.189,2.961,8.393,8.393,0,0,1-5.958-1.493,176.559,176.559,0,0,1,7.951-21.395c-3.686,6.589-6.079,13.7-8.433,20.912C939.946,302.972,939.649,300.929,938.025,299.88Zm70.068-65.464c-.526.323-.832.521-1.145.7-1.837,1.061-3.732,2.036-5.5,3.193a79.722,79.722,0,0,0-32.091,45.317c-.1.4-.183.807-.274,1.211a.5.5,0,0,0,.325-.381,81.5,81.5,0,0,1,15.332-29.786c6.893-8.575,15.047-15.6,25.165-20.189a14.274,14.274,0,0,1,6.806-1.127,2.359,2.359,0,0,1-.621.283,33.816,33.816,0,0,0-8.258,4.013,54.747,54.747,0,0,0-12.375,11.85,104.123,104.123,0,0,0-13.077,22.258,166.691,166.691,0,0,0-11.994,40.65c-.071.43-.166.858-.279,1.44-1.009-2.76-1.935-5.326-2.88-7.886a48.9,48.9,0,0,1-2.961-14.113c-.439-7.267.937-14.278,3-21.213,3.485-11.7,10.574-20.633,20.591-27.392a61.776,61.776,0,0,1,15.363-7.629C1004.72,235.127,1006.291,234.853,1008.093,234.416Zm38.931,9.047.145-.191c.337.2.685.386,1.01.6a29.448,29.448,0,0,1,7.259,7.173c4.17,5.686,6.657,12.145,8.531,18.866a88.287,88.287,0,0,1,2.258,11.85,109.684,109.684,0,0,1,.975,13.257,154.405,154.405,0,0,1-6.465,45.8,9.888,9.888,0,0,1-1.265,2.655c-3.714,5.567-9.153,8.2-15.631,8.788-3.8.348-7.358-.862-10.8-2.377-.091-.04-.149-.156-.259-.276,8.756-5.6,14.138-13.9,18.61-22.987-.374,2.125-.865,4.207-1.374,6.285-.523,2.139-1.072,4.272-1.592,6.411-.5,2.043-1.092,4.064-1.4,6.152a7.347,7.347,0,0,0,.643-1.58c2-6.58,3.67-13.243,5.186-19.949.433-1.921.949-3.833,1.568-5.7a154.771,154.771,0,0,0,6.385-25.867,72.3,72.3,0,0,0-.005-24.272c-1.75-9.237-5.735-17.254-12.757-23.637C1047.689,244.146,1047.363,243.8,1047.023,243.463Zm-29.585-9.37.11.213c-.114.077-.224.161-.343.229a41.7,41.7,0,0,0-9.671,7.888,86.731,86.731,0,0,0-13.451,19.717A149.5,149.5,0,0,0,981.6,296.194c-4,16.861-6.028,33.872-3.511,51.19a3.518,3.518,0,0,1-.133.853c-.393-.465-.669-.771-.923-1.094a28.3,28.3,0,0,1-4.53-8.388,48.432,48.432,0,0,1-2.125-22.59c.379-2.742.893-5.469,1.435-8.183a163.917,163.917,0,0,1,12.8-39.34,95.451,95.451,0,0,1,13.8-21.531,45,45,0,0,1,13.51-11.009A25.837,25.837,0,0,1,1017.438,234.093Zm34.718,11.981.133-.149a13.928,13.928,0,0,1,1.148.86c1.542,1.41,3.153,2.756,4.578,4.277,6.2,6.624,10.1,14.547,12.626,23.165,1.01,3.455,1.657,7.021,2.384,10.555a76.069,76.069,0,0,1,1.313,12.427,140.061,140.061,0,0,1-3.745,36.9,3.634,3.634,0,0,1-.6,1.335,12.891,12.891,0,0,1-4.539,3.908,10.327,10.327,0,0,1-3.976,1.1,1.5,1.5,0,0,1,0-.306c.066-.257.14-.514.217-.767a149.984,149.984,0,0,0,6.089-35.83,118.23,118.23,0,0,0-1.7-27.521,71.944,71.944,0,0,0-5.388-17.48,41.809,41.809,0,0,0-8.042-11.93C1052.478,246.444,1052.321,246.256,1052.157,246.074Zm-88.876,53.584a76.943,76.943,0,0,0-5.215,20.968c.839-3.337,1.549-6.7,2.353-10.048a70.071,70.071,0,0,1,3.157-9.805,1.616,1.616,0,0,1,.337.636c.489,1.6,1.007,3.191,1.44,4.8a4.983,4.983,0,0,1,.119,1.771c-.26,2.562-.575,5.119-.86,7.68a1.3,1.3,0,0,0,.094.416c.753-2.433.676-5.009,1.431-7.435a15.471,15.471,0,0,1,.835,1.795,14.848,14.848,0,0,1,1.22,7.217c-.177,2.3-.035,4.632-.037,6.949,0,.336-.005.671-.007.965a3.668,3.668,0,0,1-3.773.287,13.447,13.447,0,0,0-5.834-.727c-1.019.11-2.035.266-3.048.43a9.78,9.78,0,0,1-10.265-4.784,16.354,16.354,0,0,1-1.463-13.093c.017-.061.1-.1.232-.224,2.265.727,4.591.4,7.042-.124-.32,1.811-1.019,3.42-.9,5.182.564-1.837,1.127-3.672,1.661-5.406a28.2,28.2,0,0,0,3.3-1.83c1.735-1.285,3.4-2.678,5.021-4.106A6.905,6.905,0,0,1,963.281,299.658Zm23.613-66.081a7.271,7.271,0,0,1-.669.419,46.991,46.991,0,0,0-9.833,6.736,102.539,102.539,0,0,0-15.772,17.625,213.451,213.451,0,0,0-22.671,40.507,6.551,6.551,0,0,1-1.764,2.456,12.178,12.178,0,0,1-5.12,2.868c-1.98.458-2.9-.357-2.826-2.374a4.963,4.963,0,0,1,.2-1.461,34.127,34.127,0,0,1,1.461-3.7,63.56,63.56,0,0,1,5.333-8.618c2.786-3.941,5.539-7.907,8.305-11.861,4.924-7.037,9.791-14.113,14.788-21.1a83.774,83.774,0,0,1,11-12.612,35.5,35.5,0,0,1,10.81-7.075A25.724,25.724,0,0,1,986.894,233.577Zm47.858,3.931.108-.191c.238.1.484.185.713.3a57.65,57.65,0,0,1,8.285,5.427c8.741,6.633,13.65,15.534,15.458,26.245a64.046,64.046,0,0,1,.449,17.494,141.36,141.36,0,0,1-10.048,38.82,55.061,55.061,0,0,1-5.729,10.359c-.194.281-.423.537-.636.806a2.193,2.193,0,0,1,.219-1.068c1.12-2.744,2.305-5.462,3.351-8.232a123.674,123.674,0,0,0,7.867-33.946,87.419,87.419,0,0,0-1.141-23.33,61.181,61.181,0,0,0-4.653-14.491,48.8,48.8,0,0,0-13.206-17.331C1035.439,238.088,1035.1,237.8,1034.752,237.508Zm50.468,41.176c-2.344-2.667-4.749-5.282-7.017-8.01-3.473-4.177-5.754-7.638-5.923-8.793.322.313.584.58.856.835,2.421,2.249,4.765,4.588,7.28,6.726a37.462,37.462,0,0,0,14.356,7.933c.4.112.811.2,1.215.3l.08-.231A41.785,41.785,0,0,1,1082.06,270c-4.586-3.618-10.8-9.814-11.263-11.322.391.322.706.589,1.028.848,2.077,1.664,4.076,3.434,6.243,4.971,9.51,6.745,20,10.658,31.777,10.749,1.6.012,3.2.049,4.782.192a11.164,11.164,0,0,1,2.877.634,5.545,5.545,0,0,1,3.064,3.345c-4.937.928-9.658.5-14.383.058a40.714,40.714,0,0,0,14.414.554,3.56,3.56,0,0,1-.332,2.464,2.922,2.922,0,0,1-2.337,1.945c-3.543.259-6.991.014-10.13-1.914a29.513,29.513,0,0,0-2.711-1.459A9.646,9.646,0,0,0,1099,280.1c-1.942.365-3.91.608-5.831,1.061a16.172,16.172,0,0,1-11.9-1.716c-2.6-1.442-4.866-3.286-5.388-6.514a7.718,7.718,0,0,0-.327-1.091q-.925-2.9-1.853-5.8A77.912,77.912,0,0,0,1085.22,278.684Zm-13.6,54.822c-.133-.073-.266-.147-.4-.218.079-.367.154-.736.238-1.1a139.48,139.48,0,0,0,3.389-22.707,111.086,111.086,0,0,0-1.134-25.273,76.627,76.627,0,0,0-6.846-21.624c-4.189-8.272-9.9-15.169-18.036-19.871a2.706,2.706,0,0,1-.423-.381,8.033,8.033,0,0,1,2.213.2,19.485,19.485,0,0,1,7.577,3.821,34.9,34.9,0,0,1,7.722,8.323,63.649,63.649,0,0,1,9.519,24.116,145.82,145.82,0,0,1,2.137,19.934,86.182,86.182,0,0,1-2.281,25.114,35.242,35.242,0,0,1-3.211,8.512A9.8,9.8,0,0,0,1071.617,333.506Zm-138.15-84.685c15.077-11.827,32.072-17.49,50.957-17.742a1.6,1.6,0,0,1-.617.271A83.85,83.85,0,0,0,971.726,235c-2.992,1.175-5.995,2.346-8.9,3.721a80.349,80.349,0,0,0-18.16,12c-.339.292-.7.556-.9.71-1.837-.306-3.49-.53-5.119-.869-1.3-.269-2.568-.655-3.837-1.038A8.653,8.653,0,0,1,933.467,248.821Zm59.745-18.979-.011.14a6.571,6.571,0,0,1-.757.108c-4.088.147-8.178.26-12.264.433a75.649,75.649,0,0,0-14.624,2.055,91.683,91.683,0,0,0-9.115,2.852c-2.638.939-5.223,2.034-7.783,3.169a64.356,64.356,0,0,0-14.5,9.106c-.285.232-.587.444-.928.7a3.657,3.657,0,0,1-.411-.479,3.409,3.409,0,0,1,.023-3.284,15.56,15.56,0,0,1,3.842-5.184,39.377,39.377,0,0,1,13.484-7.678,63.725,63.725,0,0,1,13.652-3.1q1.133-.128,2.269-.21c.7-.051,1.409-.07,2.115-.1-7.066,1.692-14.066,3.464-20.519,6.9a.669.669,0,0,0,.441-.03,86.66,86.66,0,0,1,14.984-4.972c1.77-.432,3.562-.8,5.362-1.073a62.288,62.288,0,0,1,7.328-.9,83.208,83.208,0,0,1,16.784,1.37A5.8,5.8,0,0,1,993.212,229.842ZM965.677,243.38a156.947,156.947,0,0,0-13.355,16.8,9.63,9.63,0,0,1-6.8-5.6c-.437-.881-.82-1.786-1.234-2.692,2.8-3.031,12.922-9.763,19.224-12.789,6.993-3.358,18.348-7.016,21.972-7.28-.2.059-.341.107-.488.145a37.719,37.719,0,0,0-15.653,8.094,13.683,13.683,0,0,1-2.043,1.438,84.392,84.392,0,0,0-15.7,12.193c-.2.194-.376.416-.561.624C955.811,250.52,960.385,246.5,965.677,243.38Zm149.143,42.6.07.194a12.146,12.146,0,0,1-1.884.325c-1.517.035-3.038.037-4.553-.047a8.875,8.875,0,0,0-4.626.89,19.6,19.6,0,0,1-10.132,2.213,19.982,19.982,0,0,1-14.129-7.213,27.736,27.736,0,0,1-2.033-2.877,3.95,3.95,0,0,1-.264-.876c.353.26.5.364.645.477a17.18,17.18,0,0,0,11.8,4.072,47.2,47.2,0,0,0,6.526-.974c5.444-1.022,5.757-1,10.646,1.627a15.718,15.718,0,0,0,5.1,1.9C1112.928,285.833,1113.877,285.889,1114.821,285.983ZM943.655,321.432c.353.477.542.741.741,1,2.714,3.49,6.067,5.6,10.7,4.927.6-.087,1.2-.171,1.8-.267a12.743,12.743,0,0,1,6.095.131,7.559,7.559,0,0,0,5.109.276c.026-.009.07.028.173.073.279,2.01.564,4.058.842,6.06a4.888,4.888,0,0,1-5.067.7,7.725,7.725,0,0,0-4.681-.122,10.456,10.456,0,0,1-10.324-2.657,19.377,19.377,0,0,1-4.31-6.378A11.641,11.641,0,0,1,943.655,321.432Z" transform="translate(-926.522 32.014)" fill="#6a5975" stroke="rgba(0,0,0,0)" stroke-width="1"></path><path id="Path_17" data-name="Path 17" d="M1027,135.16c-.212.329-.442.647-.629.989-2.782,5.074-5,10.412-7.259,15.725a242.789,242.789,0,0,0-11.457,33.147,152.076,152.076,0,0,0-3.433,16.945,1.29,1.29,0,0,0,.037.545c1.342-5.777,2.52-11.595,4.069-17.312s3.3-11.385,5.263-16.973c1.973-5.624,4.219-11.158,6.507-16.665,2.27-5.462,4.745-10.84,7.129-16.255Z" transform="translate(-946.436 157.028)" fill="#6a5975" stroke="rgba(0,0,0,0)" stroke-width="1"></path></g><g id="Group_10" data-name="Group 10" transform="translate(0 46.043)"><path id="Path_25" data-name="Path 25" d="M966.356,281.835c.143,1.206.243,2.206.383,3.2a20.953,20.953,0,0,0,1.725,5.659c1.781,3.952,6.74,4.646,9.608,3.223a3.63,3.63,0,0,1,1.365-.442c-.171.3-.332.608-.516.9-.729,1.159-1.494,2.295-2.192,3.471-3,5.058-2.908,10.179-.26,15.339a20.5,20.5,0,0,0,10.5,9.387,26.216,26.216,0,0,0,15.774,1.494c1.132-.211,2.255-.475,3.382-.71.06-.012.131.038.3.093.035.849.061,1.737.11,2.623a23.838,23.838,0,0,0,2.377,9.683,15.581,15.581,0,0,0,5.806,6.261,11.474,11.474,0,0,0,12.764.089,43.536,43.536,0,0,0,4.251-3.305c.3-.239.565-.524.911-.851.283.362.5.64.717.914a9.022,9.022,0,0,0,5.348,3.408,17.839,17.839,0,0,0,8.447-.115,11.491,11.491,0,0,0,5.846-3.676l1.178-1.383c1.944-.409,3.781-.75,5.595-1.187a14.911,14.911,0,0,0,5.32-2.3,1.562,1.562,0,0,1,2.069,0,6.727,6.727,0,0,0,4.076,1.194,13.071,13.071,0,0,0,9.971-3.863,26.643,26.643,0,0,0,5.715-8.061A157.405,157.405,0,0,0,1095.851,298c2.508-10.066,5.776-19.914,8.991-29.777,1.638-5.03,3.043-10.137,4.422-15.246a37.316,37.316,0,0,0,1.115-13.919,46.122,46.122,0,0,0-2.644-11.335,24.233,24.233,0,0,0-7.607-10.055,63.551,63.551,0,0,0-5.506-3.988,8.483,8.483,0,0,1-3.4-4.058,12.611,12.611,0,0,1-1.019-4.826c.017-1.367-.042-2.739.037-4.1a10.781,10.781,0,0,1,.461-2.865,39.052,39.052,0,0,1,3.726-8.363,537.173,537.173,0,0,1,58.92-75.958,578.012,578.012,0,0,1,71.263-65.637,418.888,418.888,0,0,1,53.92-35.819A283.88,283.88,0,0,1,1309.2-2.595c1.568-.634,3.143-1.255,4.7-1.916a8.89,8.89,0,0,0,1.2-.759,1.147,1.147,0,0,0-1.386-.29c-1.168.367-2.337.731-3.483,1.155a221.932,221.932,0,0,0-21.563,9.412,378.913,378.913,0,0,0-56.94,35.468,578.275,578.275,0,0,0-91.351,85.092,525.876,525.876,0,0,0-46.907,62.369,39.023,39.023,0,0,1-5.791,7.1,9.961,9.961,0,0,1-5.042,2.751,7.938,7.938,0,0,1-4.667-.388,22.61,22.61,0,0,1-5.469-3,31,31,0,0,0-4.791-3.116c-6.3-3.265-12.8-5.95-19.983-6.558a36.592,36.592,0,0,0-13.07.956c-4.4,1.23-8.835,2.37-13.187,3.761-3.115,1-6.128,2.312-9.166,3.534-7.447,3-14.877,6.03-22.323,9.031-6.175,2.489-12.369,4.934-18.539,7.44a27.154,27.154,0,0,0-3.461,1.758,12.94,12.94,0,0,0-5.044,5.208c-.755,1.433-1.431,2.908-2.174,4.347-1.419,2.751-2.817,5.514-4.307,8.229a34.416,34.416,0,0,0-2.98,6.575,11.85,11.85,0,0,0,1.238,10.361,2.158,2.158,0,0,1,.14.374,6.681,6.681,0,0,1-.536.6,8.987,8.987,0,0,0-2.945,6.182,15.676,15.676,0,0,0,1.736,8.673,5.346,5.346,0,0,1,.552,3.345c-.1.64-.162,1.286-.283,1.923a13.591,13.591,0,0,0,1.389,8.907,14.814,14.814,0,0,0,5.341,5.537,5.74,5.74,0,0,0,4.371.711C965.068,282.057,965.662,281.959,966.356,281.835Zm40.58-12.275.159.091c2.84-2.429,5.675-4.868,8.524-7.287q10.94-9.289,21.893-18.562c4.006-3.393,8.09-6.7,12.02-10.177,5.792-5.128,11.452-10.408,17.226-15.557,1.931-1.722,4.02-3.27,6.079-4.841a8.128,8.128,0,0,1,3.366-1.6c-.311.418-.461.652-.641.86-5.371,6.206-10.728,12.425-16.5,18.268-3.059,3.1-6.2,6.11-9.3,9.167-.253.25-.477.53-.716.8,10.522-8.879,19.631-19.1,28.508-29.4,1.82.194,2.33,1.237,1.416,2.616q-1.434,2.158-2.917,4.286a190.114,190.114,0,0,1-22.216,26.131q-22.381,22.282-45.922,43.34c-9.511,8.517-19.254,16.775-28.895,25.146a6.209,6.209,0,0,1-.617.419,2.682,2.682,0,0,1-.32-.36c-2.138-3.763-2.791-7.7-1.2-11.819a20.969,20.969,0,0,1,1.744-3.342c1.145-1.874,2.393-3.684,3.55-5.551a19.049,19.049,0,0,0,.979-2.206c1.213-.951,2.683-2.106,4.154-3.258s2.963-2.283,4.418-3.455a26.039,26.039,0,0,0,4.156-3.618,4.03,4.03,0,0,0-1.3.671c-2.127,1.6-4.238,3.214-6.369,4.808-2.611,1.952-4.971,4.251-7.933,5.722-.869.432-1.676.984-2.531,1.445a5.8,5.8,0,0,1-8.346-3.115,23.628,23.628,0,0,1-1.4-5.64,14.534,14.534,0,0,1,3.635-11.9c4.543-4.973,10.3-7.858,16.683-9.646,1.942-.542,3.912-.993,5.827-1.615,3.078-1,6.121-2.108,9.181-3.164.323-.11.662-.175.993-.26l.1.19a181.119,181.119,0,0,0-28.078,21.091,10.694,10.694,0,0,0,1.882-1.3,226.33,226.33,0,0,1,27.016-19.448c2.527-1.514,5.016-3.1,7.619-4.474,2.319-1.222,4.763-2.216,7.168-3.27q7.472-3.277,14.652-7.14a116.962,116.962,0,0,0,12.011-7.853c.341-.243.7-.461,1.047-.692a.412.412,0,0,1-.122.334c-.832.743-1.638,1.517-2.5,2.218q-14.175,11.475-27.87,23.518-4.41,3.891-8.788,7.811C1007.912,268.44,1007.442,269.021,1006.937,269.561Zm31.205,52.794a20.607,20.607,0,0,1-.9-5.228,34.274,34.274,0,0,1,1.8-12.114,71.352,71.352,0,0,1,7.414-16.276c1.515-2.407,3.118-4.758,4.658-7.15,1.7-2.634,3.35-5.292,5.048-7.925a30.667,30.667,0,0,1,2.087-3,151.5,151.5,0,0,0,19.268-29.249,82.45,82.45,0,0,0,6.406-16.705,31.1,31.1,0,0,0,1.106-9.5c-.056-.874-.182-1.744-.274-2.616a1.76,1.76,0,0,1,.788.61,12.81,12.81,0,0,1,1.93,3.95,24.262,24.262,0,0,1,.657,8.978,60.014,60.014,0,0,1-3.607,15.183,147.31,147.31,0,0,1-15.79,30.539,237.173,237.173,0,0,1-25.4,32.156c-.182.194-.343.409-.514.613a2.2,2.2,0,0,0,.841-.62c2.847-3.1,5.768-6.135,8.521-9.316a201.07,201.07,0,0,0,26.348-38.12,108.423,108.423,0,0,0,8.113-19.4,49.579,49.579,0,0,0,2.328-13.673,20.577,20.577,0,0,0-1.79-9.017c-.309-.668-.722-1.29-1.086-1.933l.108-.2a12.447,12.447,0,0,1,1.7.468c1.784.767,3.544,1.6,5.324,2.379a3.65,3.65,0,0,1,1.778,1.65,17.8,17.8,0,0,1,1.994,7.33,44.739,44.739,0,0,1-.47,10.207,111.61,111.61,0,0,1-5.345,20.661,251.248,251.248,0,0,1-18.873,40.593,327.629,327.629,0,0,1-24.955,37.583,7.131,7.131,0,0,1-.556.573c-4.471-2.342-6.855-6.206-8.436-10.695a178.346,178.346,0,0,0,20.82-27.493A260.956,260.956,0,0,1,1038.142,322.355Zm33.678,10.765a5.162,5.162,0,0,1-3.8-1.042,154.471,154.471,0,0,0,10.564-17.649,12.261,12.261,0,0,0-1.346,1.886c-2.858,4.922-5.845,9.761-9.085,14.444-.22.32-.46.627-.711.97a3.429,3.429,0,0,0-3.485.61,8.094,8.094,0,0,1-1.994,1.057,51.572,51.572,0,0,1-5.6,1.582,14.084,14.084,0,0,1-7.979-.53c-.348-.135-.682-.308-1.087-.493.234-.323.371-.533.526-.727,4.95-6.147,9.506-12.581,13.864-19.156a291.19,291.19,0,0,0,25.523-46.78,158.759,158.759,0,0,0,8.335-24.284A65.892,65.892,0,0,0,1097.8,226.7a22.616,22.616,0,0,0-1.362-8.465c-.173-.426-.32-.863-.566-1.535.544.344.905.551,1.246.792,3.4,2.414,4.887,5.957,5.647,9.856a39.461,39.461,0,0,1,.419,10.738,90.565,90.565,0,0,1-3.536,18.079,202.77,202.77,0,0,1-14.54,35.533,349.065,349.065,0,0,1-17.592,30.368c-.133.208-.229.439-.341.659a1.7,1.7,0,0,0,.648-.62,292.7,292.7,0,0,0,20.243-34.8,194.683,194.683,0,0,0,12.11-30.246,88.5,88.5,0,0,0,3.833-20.2,32.148,32.148,0,0,0-2.01-14.4,2.859,2.859,0,0,1-.051-.648,20.932,20.932,0,0,1,3.326,4.64,36.7,36.7,0,0,1,3.171,11.065,35.151,35.151,0,0,1-.834,14.989c-1.361,5.112-2.77,10.219-4.406,15.25-3.221,9.9-6.458,19.794-8.978,29.891a153.651,153.651,0,0,1-9.048,24.945,22.083,22.083,0,0,1-5.887,7.779,13.1,13.1,0,0,1-2.783,1.823,8.681,8.681,0,0,1-3.752.844,176.1,176.1,0,0,0,9.075-15.826c3.129-6.3,6.72-15.131,6.731-16.408-2.47,5.427-4.882,11-7.53,16.464A144.915,144.915,0,0,1,1071.82,333.119Zm5.762-129.028c-.93-.058-1.751-.149-2.573-.152a29.9,29.9,0,0,0-7.767,1.15,103.57,103.57,0,0,0-15.751,5.544c-5.02,2.227-10.048,4.448-14.977,6.864-8.87,4.35-17.488,9.172-25.964,14.246-7.827,4.688-15.543,9.548-23,14.809-.278.194-.54.411-.808.617a2.2,2.2,0,0,0,1.082-.416c6.435-4.065,12.81-8.227,19.313-12.18a345.484,345.484,0,0,1,41.495-21.923c3.884-1.69,7.813-3.3,11.8-4.719,3.078-1.092,6.268-1.9,9.443-2.686a17.892,17.892,0,0,1,6.2-.517c.519.054,1.031.194,1.566.3a4.35,4.35,0,0,1-1.054,2.585,21.78,21.78,0,0,1-3.113,3.116,113.266,113.266,0,0,0-10.9,9,44.5,44.5,0,0,1-9.76,7.44q-2.244,1.182-4.481,2.375a25.546,25.546,0,0,1-5.215,2.047,80.938,80.938,0,0,1-17.111,2.917,27.853,27.853,0,0,0-15.042,5.385c-3.606,2.629-7.238,5.224-10.782,7.933a47.814,47.814,0,0,1-14.694,7.825,20.7,20.7,0,0,1-8.1.923,4.261,4.261,0,0,1-2.1-.757c-2.646-1.821-4.49-4.436-6.818-6.7.39-.255.676-.453.974-.638,14.395-8.971,29.1-17.4,44.209-25.111q8.827-4.5,17.829-8.657c4.46-2.069,9.013-3.947,13.566-5.81,3.092-1.264,6.249-2.368,9.388-3.513,1.386-.5,2.8-.932,4.2-1.388a54.622,54.622,0,0,1,12.848-2.734,11.449,11.449,0,0,1,4.274.381A2.386,2.386,0,0,1,1077.583,204.091Zm-11.271,32.784.124.084c-.371.731-.75,1.456-1.108,2.192a57.487,57.487,0,0,0-4.972,12.864,12.86,12.86,0,0,1-1.771,4.245,190.457,190.457,0,0,1-12.245,16.859,123.91,123.91,0,0,1-10.1,11.656c-.028.028.007.117.024.329.865-.821,1.706-1.54,2.456-2.342a189.92,189.92,0,0,0,19.995-25.439c.176-.271.374-.528.561-.79-.017,1.638-.283,3.171-.323,4.709a18.525,18.525,0,0,1-2.335,8.115,123.931,123.931,0,0,1-7.806,12.687,93.823,93.823,0,0,0-7.7,13.124q-2.989,6.41-6.119,12.755a30.748,30.748,0,0,1-2.421,3.952,11.285,11.285,0,0,1-5.638,3.99,14.42,14.42,0,0,1-8.907.248c8.342-9.539,16.623-19.09,24.3-29.162a1.923,1.923,0,0,0-.837.554c-.968,1.115-1.912,2.249-2.872,3.37q-10.822,12.626-21.669,25.233a9.658,9.658,0,0,1-2.5,2.015,37.579,37.579,0,0,1-13.512,4.607,8.9,8.9,0,0,1-2.865.121c.274-.3.432-.481.6-.652,4.247-4.251,8.543-8.454,12.728-12.764,2.706-2.786,5.25-5.729,7.86-8.608a3.416,3.416,0,0,0,.339-.561c-7.509,7.682-14.944,15.391-22.714,22.7a22.582,22.582,0,0,1-10.756-2.6c.348-.332.57-.556.808-.764q22.528-19.768,43.363-41.311a456.285,456.285,0,0,0,35.353-40.631C1065.857,237.384,1066.091,237.134,1066.311,236.875Zm9.625-36.111c-.423-.038-.662-.07-.9-.082-1.11-.051-2.221-.157-3.329-.135a42.255,42.255,0,0,0-8.917,1.51c-2.064.493-4.107,1.1-6.121,1.765-2.727.907-5.431,1.893-8.119,2.908-2.887,1.092-5.78,2.185-8.61,3.413-4.509,1.959-8.989,3.992-13.449,6.063-8.858,4.118-17.518,8.625-26.083,13.32-11.088,6.079-21.989,12.472-32.645,19.282a3.651,3.651,0,0,1-1.062.5,9.494,9.494,0,0,1-9.071-2.464c-.066-.059-.072-.187-.15-.409,3.9-2.541,7.771-5.153,11.733-7.615s8.033-4.789,12.057-7.175c-8.709,3.794-16.438,9.256-24.436,14.388a9.064,9.064,0,0,1-2.354-6.474c.909-.554,1.736-1.054,2.559-1.563q15.5-9.561,31.714-17.849c6.587-3.359,13.245-6.579,20.046-9.491,3.927-1.683,7.849-3.38,11.812-4.974,2.865-1.154,5.777-2.2,8.7-3.2,3.877-1.33,7.75-2.685,11.684-3.831A99.727,99.727,0,0,1,1060,194.818a36.346,36.346,0,0,1,8.917.192,7.545,7.545,0,0,1,4.724,2.573c.582.675,1.171,1.348,1.716,2.052A7.4,7.4,0,0,1,1075.936,200.764Zm-6.857-6.7-.072.173c-.447-.054-.9-.117-1.346-.163-.5-.051-1-.1-1.505-.126a54.944,54.944,0,0,0-14.872,1.435c-4.569.991-9.082,2.258-13.6,3.494-2.251.615-4.466,1.386-6.668,2.171-3.08,1.1-6.142,2.248-9.193,3.422-2.816,1.084-5.635,2.164-8.4,3.361-4.186,1.809-8.34,3.691-12.486,5.589-7.019,3.216-13.892,6.733-20.689,10.394-8.475,4.565-16.8,9.394-24.915,14.578-.219.14-.467.232-.863.426.1-.626.14-1.052.231-1.468a23.466,23.466,0,0,1,2.651-6.587c1.134-2.007,2.23-4.034,3.389-6.026a2.85,2.85,0,0,1,1.038-1.026c5.132-2.81,10.221-5.7,15.444-8.337,4.226-2.132,8.6-3.98,12.944-5.873,2.732-1.19,5.539-2.206,8.293-3.347,2.952-1.225,5.88-2.506,8.819-3.761,4.13-1.762,8.235-3.578,12.4-5.263,3.5-1.414,7-2.831,10.6-3.962a80.548,80.548,0,0,1,13.76-3.207,63.593,63.593,0,0,1,10.312-.6,25.951,25.951,0,0,1,13.89,4.118C1068.52,193.671,1068.8,193.869,1069.08,194.063Zm9.66,21.713.164.122c-.072.161-.135.325-.217.481-.421.8-.828,1.6-1.274,2.379a178.1,178.1,0,0,1-13.851,20.336c-7.891,10.246-16.375,19.99-25.156,29.477-16.559,17.892-34.117,34.762-52.279,51.013a7.684,7.684,0,0,1-.633.456,18.622,18.622,0,0,1-6.769-6.128c1.108-.968,2.15-1.9,3.216-2.805,4.829-4.09,9.709-8.124,14.491-12.268,19.638-17.015,38.553-34.813,57.06-53.046a193.8,193.8,0,0,0,21.956-25.355C1076.553,218.89,1077.644,217.329,1078.74,215.775Zm-26.656,121.215a9.034,9.034,0,0,1-3.564,2.973,14.706,14.706,0,0,1-9.519.711,7.173,7.173,0,0,1-4.591-3.169c-.479-.7-.86-1.465-1.827-1.718.622-.9,1.183-1.687,1.722-2.494.561-.839,1.126-1.676,1.634-2.545a7.707,7.707,0,0,0,1.257-2.492,2.528,2.528,0,0,0-.648.676q-2.512,3.649-5.011,7.3a15.285,15.285,0,0,1-5.283,4.691,9.838,9.838,0,0,1-10.378-.126,14.5,14.5,0,0,1-6.091-6.949,22.666,22.666,0,0,1-1.688-7.556,8.387,8.387,0,0,1,.409-3.634c.28-.117.54-.236.806-.337a37.723,37.723,0,0,0,7.536-3.721,3.316,3.316,0,0,1,2.755-.519,11,11,0,0,0,5.037.03c1.781-.43,3.532-.989,5.273-1.564a13.291,13.291,0,0,0,1.889-.968c-3.534,6.341-8.419,11.609-13,17.12a3.062,3.062,0,0,0,.8-.634,104.7,104.7,0,0,0,13.606-17.139,29.584,29.584,0,0,1,2.557-3.123c-.058,1.842-.091,3.413-.171,4.983a1.93,1.93,0,0,1-.341.891q-3.67,5.6-7.364,11.182c-.129.2-.264.39-.395.584l.2.145c3.162-3.291,5.3-7.334,7.918-11.2.427,1.914.82,3.683,1.218,5.471l-.406,1.187c.222-.135.3-.191.39-.232.115-.058.234-.1.391-.171C1039.919,331.408,1044.346,336.066,1052.084,336.991Zm-97.029-75.112c-2-3.518-2.744-7.077-1.6-10.894a6.813,6.813,0,0,1,.93-1.816,3.688,3.688,0,0,1,1.692-1.5,13.9,13.9,0,0,0,5.478,3.181,11.685,11.685,0,0,0,6.184-.257c1.5,1.606,2.868,3.132,4.3,4.595a15.717,15.717,0,0,0,8.222,4.48c.334.068.661.166.991.252l.04.22a78.986,78.986,0,0,0-15.915,10.083,3.494,3.494,0,0,0,.935-.484,105.4,105.4,0,0,1,15.346-9.113,3.2,3.2,0,0,1,1.3-.467c1.533.021,3.066.149,4.77.246a2.245,2.245,0,0,1-.4.252,33.046,33.046,0,0,0-6.809,2.707,29.644,29.644,0,0,0-10.641,8.106,15.919,15.919,0,0,0-3.26,7.428c-.06.351-.121.7-.183,1.073-.837.217-1.627.435-2.422.622a3.8,3.8,0,0,1-3.109-.535,14.107,14.107,0,0,1-4.667-4.857,12.554,12.554,0,0,1-1.1-8.809,1.87,1.87,0,0,1,.916-1.351,127.539,127.539,0,0,1,11.205-6.42,9.845,9.845,0,0,0,.933-.578l-.115-.215a20.921,20.921,0,0,0-2.13.884c-3.207,1.758-6.4,3.557-9.59,5.338-.262.145-.537.269-.9.449-.054-.76-.1-1.362-.145-2.043l7.918-5.039-.168-.281c-1.323.741-2.662,1.454-3.964,2.227C957.769,260.149,956.479,260.989,955.055,261.879Zm6.61-38.785a3.1,3.1,0,0,1,.128-.549c.923-1.872,1.821-3.758,2.793-5.605a9.91,9.91,0,0,1,3.574-3.829,25.516,25.516,0,0,1,3.793-2.043c5.661-2.321,11.357-4.553,17.032-6.841,7.411-2.987,14.809-6.005,22.22-8.991,3.438-1.386,6.87-2.795,10.349-4.069a120.219,120.219,0,0,1,14.124-4.018,38.188,38.188,0,0,1,20.663,1.066c.355.114.7.269,1.043.405a1.416,1.416,0,0,1-.874.152,59.969,59.969,0,0,0-18.721,1.566,97.115,97.115,0,0,0-16.511,5.329q-7,2.942-13.99,5.911c-3.868,1.639-7.729,3.295-11.6,4.927-4.134,1.744-8.3,3.4-12.409,5.217a189.8,189.8,0,0,0-20.584,10.8C962.4,222.7,962.09,222.858,961.665,223.094Zm122.208-10.508c.149.746.32,1.369.386,2a25.359,25.359,0,0,1-.493,7.505,67.208,67.208,0,0,1-4.663,14.236,151.058,151.058,0,0,1-19.925,32.521c-.184.232-.407.432-.612.647a8.179,8.179,0,0,1,.652-1.751,13.006,13.006,0,0,0,1.215-4.567c.06-.718.108-1.437.178-2.153a50.744,50.744,0,0,1,3.129-14.3,81.742,81.742,0,0,1,7.234-14.11,151.948,151.948,0,0,0,8.32-13.519c.79-1.535,1.517-3.1,2.249-4.663A3.239,3.239,0,0,1,1083.873,212.586ZM979.746,257.964l-.01-.329c.245-.021.489-.031.732-.065,1.741-.241,3.508-.376,5.219-.755a37.522,37.522,0,0,0,9.77-3.967,59.244,59.244,0,0,0,8.132-5.68,44.8,44.8,0,0,1,19.876-9.22c3.293-.6,6.595-1.152,9.872-1.826a59.749,59.749,0,0,0,14.746-4.794c.231-.115.474-.2.877-.374a2.667,2.667,0,0,1-.311.421c-.928.682-1.87,1.342-2.789,2.036a106,106,0,0,1-18.626,11.266c-4.747,2.244-9.569,4.335-14.349,6.509-1.671.759-3.342,1.524-4.973,2.361a61.979,61.979,0,0,1-9.513,3.485,33.869,33.869,0,0,1-12.986,1.554C983.518,258.446,981.635,258.175,979.746,257.964Z" transform="translate(-951.304 5.671)" fill="#6a5975" stroke="rgba(0,0,0,0)" stroke-width="1"></path></g></g></g></svg>