<svg xmlns="http://www.w3.org/2000/svg" width="181.003" height="32.315" viewBox="0 0 181.003 32.315"><g id="Group_4370" data-name="Group 4370" transform="translate(-377.268 -54.516)"><path id="Path_3191" data-name="Path 3191" d="M2.268,2.379h8.41c5.645,0,8.1-3.543,8.1-8.994,0-4.477-1.6-7.086-5.373-7.981,3.076-.428,4.516-2.764,4.516-6.658,0-5.412-2.725-7.9-8.41-7.9H2.268ZM6.668-16v-9.889H7.719c4.477,0,6.385.311,6.385,4.633C14.1-17.516,12.975-16,9.276-16Zm0,15.223V-12.649H9.276c3.854,0,5.295,2.1,5.295,6.035,0,4.088-1.012,5.84-4.945,5.84ZM22.708,2.379h4.166V-29.157H22.708Zm12.576.311A4.769,4.769,0,0,0,39.839-.93c.117,1.051.389,2.492.545,3.309H44.2a40.329,40.329,0,0,1-.389-5.412V-13.311c0-4.633-1.713-7.125-6.152-7.125-4.594,0-6.7,2.3-6.774,7.281L35.011-13v-1.129c0-1.947.662-3.193,2.375-3.193,1.947,0,2.258,1.324,2.258,4.049v1.6c-4.828,1.908-8.877,3.543-8.877,9.149C30.767.121,32.636,2.691,35.284,2.691ZM36.919-.891c-1.285,0-1.986-1.09-1.986-2.92,0-2.609,2.141-3.854,4.711-5.334V-2.76A3.924,3.924,0,0,1,36.919-.891ZM53.972,2.691c4.828,0,6.152-2.686,6.152-7.242V-6.108H56.347v1.83c0,2.3-.234,3.893-2.3,3.893-1.869,0-2.492-.973-2.492-4.828V-12.3c0-3.816.389-5.061,2.453-5.061,1.83,0,2.336,1.051,2.336,3.971v1.363h3.777V-13.35c0-4.633-1.246-7.086-6.152-7.086-5.451,0-6.58,3.348-6.58,8.994v5.178C47.392-.852,48.443,2.691,53.972,2.691ZM63.9,2.34h4.166v-8.6l1.908-2.881,4.2,11.524h4.166l-5.139-13.7,5.295-8.8H74.14l-6.074,9.733V-29.2H63.9Z" transform="translate(375 84.023)" fill="#fff"></path><path id="Path_3192" data-name="Path 3192" d="M-88.02,2.4H-74.7V-1.53H-82.3V-12h5.918v-4.01H-82.3v-9.072h7.514v-4.049H-88.02Zm24.606.428c4.711,0,7.9-3.193,7.9-7.748,0-4.166-2.141-6.93-4.711-9.149l-3.932-3.465c-1.674-1.441-2.57-2.609-2.57-4.75,0-1.674.934-2.959,2.647-2.959,2.531,0,2.959,2.219,3.076,5.178l4.945-.857c-.311-4.594-1.986-8.565-7.9-8.565-5.022,0-8.137,2.8-8.137,7.787a9.308,9.308,0,0,0,3.66,7.631l3.971,3.465C-62.4-8.81-61-7.292-61-4.566c0,1.713-.779,2.959-2.609,2.959-2.531,0-3.426-2.414-3.582-6.152l-4.945.973C-71.9-.517-69.176,2.831-63.414,2.831Zm9.539-.428h5.412l1.285-7.281h5.49L-40.443,2.4h5.334l-6.307-31.536h-6.152Zm7.281-10.94,2.141-13.237,2.141,13.237ZM-31.955,2.4h13.393V-1.53h-7.67v-27.6h-5.723Zm16.391,0H-2.249V-1.53H-9.841V-12h5.918v-4.01H-9.841v-9.072h7.514v-4.049H-15.564ZM.554,2.4H5.693V-2.931H.554Z" transform="translate(552.577 84)" fill="#ffcc01"></path></g></svg>