<svg xmlns="http://www.w3.org/2000/svg" xmlns:xlink="http://www.w3.org/1999/xlink" width="1920" height="960" viewBox="0 0 1920 960"><defs><clipPath id="clip-path"><rect id="Rectangle_404" data-name="Rectangle 404" width="1920" height="960" transform="translate(0 1080)" fill="none"></rect></clipPath></defs><g id="Mask_Group_7" data-name="Mask Group 7" transform="translate(0 -1080)" clip-path="url(#clip-path)"><g id="Group_44" data-name="Group 44" transform="translate(1544.388 1403.172)" opacity="0.06"><g id="Group_4" data-name="Group 4" transform="translate(0 286.82)"><path id="Path_9" data-name="Path 9" d="M1881.158,781.78c-.917-.294-1.15-1.055-1.468-1.729-2.6-5.521-5.127-11.074-7.784-16.567a330.816,330.816,0,0,0-22.411-39.647,193.968,193.968,0,0,0-13.842-18.179c-11.072-12.983-20.756-26.967-30.113-41.2-6.117-9.308-12.238-18.618-18.524-27.812a255.2,255.2,0,0,0-30.279-36.112,681.419,681.419,0,0,0-66.81-59.353,37.7,37.7,0,0,0-11.608-6.465,12.706,12.706,0,0,0-9.39.285,17.407,17.407,0,0,0-3.244,2.06,32.313,32.313,0,0,0-2.547,2.363,35.187,35.187,0,0,1-21.356,9.715,184.432,184.432,0,0,1-18.68.816c-8.107-.013-16.207.187-24.306.667-15.577.923-30.827,3.88-46.045,7.07-9.419,1.975-18.891,3.646-28.457,4.729a42.057,42.057,0,0,1-10.267.178c-5.112-.67-8.932-3.159-10.827-8.138a10.685,10.685,0,0,1,3.691-12.867,38.417,38.417,0,0,1,11.87-6.011c3.113-.93,6.27-1.733,9.451-2.4a9.734,9.734,0,0,0,6.364-4.474,5.732,5.732,0,0,0,.3-.641c-.656-.073-1.206-.156-1.758-.194a110.184,110.184,0,0,1-19.423-2.75c-13.145-3.27-22.391-11.332-28.349-23.3-2.683-5.388-2.652-10.992-.643-16.618a10.434,10.434,0,0,1,3.677-4.981,34.03,34.03,0,0,1,3.2-2.18,10.449,10.449,0,0,0,4.785-5.869,57.134,57.134,0,0,1,4.894-11.108c1.088-1.786,2.262-3.522,3.466-5.232,3.126-4.434,7.65-6.407,12.847-7.005a59.028,59.028,0,0,1,6.191-.076c.071-.193.247-.587.365-1a60.7,60.7,0,0,1,4.273-10.507,32.056,32.056,0,0,1,7.034-9.186c1.809-1.648,3.75-3.15,5.633-4.718l.834-.7a5.726,5.726,0,0,0-.256-.645c-3.691-6.663-3.826-13.572-1.492-20.678a22.888,22.888,0,0,1,11.753-13.57,35.427,35.427,0,0,1,13.408-3.811c1.731-.151,3.457-.349,5.188-.476a9.809,9.809,0,0,0,4.36-1.535c2.332-1.393,4.649-2.83,7.088-4.011a41.031,41.031,0,0,1,22.892-3.8c.442.051.881.131,1.319.2.394.065.785.136,1.232.216.3-.263.612-.514.9-.776,1.622-1.459,3.266-2.9,4.841-4.4a3.3,3.3,0,0,0,.8-1.468c.227-.812.281-1.668.445-2.5a9.167,9.167,0,0,1,5.76-7.023,7,7,0,0,1,7.73,1.275,15.849,15.849,0,0,1,4.4,6.6,55.708,55.708,0,0,1,2.937,11.779c1.159,8.2,2.258,16.411,3.23,24.638,1.108,9.375,2.016,18.778,3.9,28.044a108.773,108.773,0,0,0,4.62,16.589,53.5,53.5,0,0,0,4.009,8.434c3.124,5.292,6.127,10.658,9.261,15.944,1.589,2.681,3.324,5.275,5.043,7.875a92.5,92.5,0,0,1,9.639,17.837,45.234,45.234,0,0,1,3.17,13.065,16.138,16.138,0,0,1-.7,5.806,7.91,7.91,0,0,0,.134,5.372,25.592,25.592,0,0,0,2.641,5.219,75.083,75.083,0,0,0,5.806,7.148,90.105,90.105,0,0,0,10.747,9.813,677.584,677.584,0,0,1,65.447,59.273,278.194,278.194,0,0,1,33.271,42.1q9.838,15.046,19.837,29.99a275.291,275.291,0,0,0,20.115,26.831c14.115,16.38,25.323,34.646,35.055,53.867,3.119,6.16,6.091,12.4,9.065,18.627.861,1.8,1.517,3.706,2.222,5.581C1881.955,780.714,1882.108,781.413,1881.158,781.78ZM1565.843,453.849l.122-.049c4.051,3.619,8.024,7.328,12.171,10.836,11.192,9.477,22.938,18.237,34.949,26.642a173.685,173.685,0,0,0,28.789,16.545c8.533,3.809,17.121,7.47,26.317,9.412a8.494,8.494,0,0,0,3.962.392,26.983,26.983,0,0,0-1.524-2.928,38.263,38.263,0,0,0-9.09-9.708,149.227,149.227,0,0,0-18.613-11.517c-2.654-1.361-5.29-2.754-7.933-4.138a176.923,176.923,0,0,1-35.863-24.282c-3.288-2.928-6.332-6.133-9.477-9.221a9.843,9.843,0,0,1-.786-.994,1.207,1.207,0,0,1,.759.421,173.158,173.158,0,0,0,13.261,12.024,186.755,186.755,0,0,0,32.262,21.083c7.219,3.773,14.518,7.4,21.285,11.98a1.033,1.033,0,0,0,.331.082l.122-.151c-.191-.167-.383-.336-.577-.5a129.986,129.986,0,0,0-11.212-8.865c-3.951-2.745-7.844-5.573-11.773-8.351a109.145,109.145,0,0,1-22.5-21.385,67.427,67.427,0,0,0-5.094-5.657q-4.388-4.4-8.956-8.618a397.068,397.068,0,0,0-31.143-25.434c-1.457-1.092-2.97-2.113-4.253-3.021-1.664.472-3.1.93-4.565,1.284-1.386.334-2.794.565-4.2.828a20.008,20.008,0,0,0-7.842,2.908c-2.413,1.664-4.68,3.542-7.005,5.332a2.485,2.485,0,0,0-.358.527c1.2,1.6,2.327,3.264,3.62,4.783,2.712,3.19,5.513,6.3,8.273,9.45.292.332.565.679.845,1.019l-.294.227a98.368,98.368,0,0,1-13.17-15.016,33.849,33.849,0,0,0-5.054,6.024c13.708,15.744,28.9,29.532,46.43,40.7a4.4,4.4,0,0,1-1.326-.554c-2.936-1.851-5.955-3.588-8.78-5.595a201.363,201.363,0,0,1-35.85-32.713c-.271-.314-.567-.61-1-1.07-3,5.849-5.61,11.564-6.282,18.189.327.282.714.585,1.064.925,1.624,1.588,3.228,3.2,4.856,4.783a301.113,301.113,0,0,0,49.069,38.809,229.27,229.27,0,0,0,35.407,18.627c10.687,4.383,21.615,7.886,33.178,9.152a51.978,51.978,0,0,0,14.749-.338,36.914,36.914,0,0,0,6.256-1.829,4.989,4.989,0,0,0,3.115-3.775c-1.2.307-2.158.618-3.143.794a43.292,43.292,0,0,1-13.693-.1,66.992,66.992,0,0,1-14.006-3.744c-11.288-4.193-21.661-10.122-31.75-16.6-.414-.267-.781-.607-1.168-.912,2.529,1.357,4.981,2.79,7.428,4.229a162.5,162.5,0,0,0,25.387,12.4,61.232,61.232,0,0,0,15.326,3.913,85.274,85.274,0,0,0,10.533.207,9.843,9.843,0,0,0,5.016-1.422l-.209-1.092a25.686,25.686,0,0,1-2.948-.4c-3.4-.859-6.847-1.6-10.162-2.723a177.81,177.81,0,0,1-41.062-19.961c-9.928-6.563-19.414-13.735-28.8-21.043a217.319,217.319,0,0,1-20.76-18.053C1567.609,455.7,1566.731,454.767,1565.843,453.849Zm108.8,62.568a1.6,1.6,0,0,0,1.19-1.486,19.16,19.16,0,0,0,.356-3.573,38,38,0,0,0-2.6-11.693,86.912,86.912,0,0,0-9.967-18.858c-2.416-3.637-4.854-7.259-7.239-10.918a110.457,110.457,0,0,1-10.949-20.769,26.926,26.926,0,0,0-1.958-3.937c-3.866-6.614-7.875-13.145-11.641-19.815a129.2,129.2,0,0,1-14.3-36.39,91.679,91.679,0,0,1-2.4-16.324,15.8,15.8,0,0,0-.27-1.8c-2.144,1.072-8.949,7.86-10.046,10.044a191.714,191.714,0,0,0,13.6,34.517c-6.487-10.482-10.636-21.961-14.248-33.681a11.188,11.188,0,0,0-3.043,5.386,46.584,46.584,0,0,0-1.123,12.469,59.584,59.584,0,0,0,6.393,25.04,92.047,92.047,0,0,0,8.2,12.823,117.166,117.166,0,0,1,12.147,20.869c1.971,4.331,4.127,8.6,6.516,12.716a81.354,81.354,0,0,0,18.062,21.826q4.1,3.434,8.1,6.988A95.909,95.909,0,0,1,1672.1,513.2a7.064,7.064,0,0,0,.714.656,8.616,8.616,0,0,0-.162-1.121c-.777-2.458-1.453-4.956-2.374-7.359a87.645,87.645,0,0,0-10.609-19.114q-11.926-16.855-24.081-33.549a303.792,303.792,0,0,1-19.777-30.313,105.616,105.616,0,0,1-6.785-14.206c-.209-.554-.327-1.143-.485-1.717l.261-.084c.614,1.366,1.221,2.736,1.849,4.1a192.478,192.478,0,0,0,16.52,28.526c5.909,8.585,12.1,16.978,18.153,25.465,5.564,7.8,11.232,15.521,16.633,23.43,5.786,8.471,10.451,17.5,12.331,27.743A3.609,3.609,0,0,0,1674.647,516.416ZM1574.036,507.7l.093-.316c-.465-.325-.928-.65-1.39-.979-4.1-2.919-8.245-5.784-11.595-9.617a4.621,4.621,0,0,0-1.771-1.139c-1.822-.716-3.677-1.35-5.528-1.991a59.454,59.454,0,0,1-18.028-9.423c-3.608-2.883-6.954-6.013-9.121-10.171a4.394,4.394,0,0,0-2.481-2.265c-3.466-1.248-6.94-2.465-10.411-3.7-.291-.1-.576-.22-.863-.332a3.511,3.511,0,0,1,1.635.025,61.554,61.554,0,0,1,9.727,3.215,8.212,8.212,0,0,0,.838.251,38.283,38.283,0,0,1-1.918-20.142,9.683,9.683,0,0,0-1.181-.287,19.133,19.133,0,0,0-6.5.434,9.99,9.99,0,0,0-6.574,5.048,25.709,25.709,0,0,0-3.468,16.413,69.776,69.776,0,0,1,.425,7.061,11.9,11.9,0,0,1-4.7,10.135,59.472,59.472,0,0,0-5.257,4.934,17.06,17.06,0,0,0-2.527,3.264,11.25,11.25,0,0,0-1.468,7.953,50.529,50.529,0,0,0,7.415,3.773,144.53,144.53,0,0,0,25.483,8.1,96.575,96.575,0,0,0,16.355,2.267,2.506,2.506,0,0,0,1.947-.625,40.545,40.545,0,0,1,8.6-5.846,6.605,6.605,0,0,0,.721-.5c-6.149-1.869-12.233-3.617-18.251-5.57a103.938,103.938,0,0,1-17.655-7.337.741.741,0,0,1,.46.08,226.577,226.577,0,0,0,35.861,11.9,3.4,3.4,0,0,0,2.332-.2c1.627-.723,3.292-1.355,4.941-2.029.236-.1.46-.216.972-.46a131,131,0,0,1-27.99-11.234c.164-.111.211-.167.234-.158.369.149.739.291,1.1.458,8.8,4.071,17.69,7.9,27.154,10.189a7.027,7.027,0,0,0,2.489.051c2.029-.256,4.042-.647,6.071-.917C1571.471,507.856,1572.757,507.8,1574.036,507.7Zm89.732,27.805a41.278,41.278,0,0,1-7.971,2.71c-6.828,1.575-13.759,1.684-20.7,1.415-2.974-.116-5.951-.436-8.906-.828-4.273-.57-8.547-1.164-12.78-1.971a150.931,150.931,0,0,1-18.173-4.732,119.535,119.535,0,0,1-24.409-10.614c-.394-.234-.772-.487-1.157-.73a.944.944,0,0,1,.656.138,144.067,144.067,0,0,0,23.3,9.864,158.306,158.306,0,0,0,27.981,6.578c3.7.5,7.415.961,11.136,1.235a90.858,90.858,0,0,0,13.479.111,56.586,56.586,0,0,0,11.942-1.964,22,22,0,0,0,5.953-2.661c.458-.3.9-.609.8-1.261a1.2,1.2,0,0,0-1.09-1.03,15.035,15.035,0,0,0-3.168-.209c-3.1.249-6.191.681-9.294.914a78.957,78.957,0,0,1-18-.654,131.323,131.323,0,0,1-26.475-6.836,126.306,126.306,0,0,1-27.492-14.171,5.1,5.1,0,0,0-3.248-1.005c-2.223.111-4.445.207-6.665.329a7.6,7.6,0,0,0-1.123.222l-.049.276c10.8,6.71,22.315,12,33.959,17.063a155.988,155.988,0,0,1-18.16-7.548,167.339,167.339,0,0,1-17.33-9.555c-7.92,1.709-16.2,10.024-18.553,16.033.516.218,1.026.474,1.56.658,6.431,2.2,12.844,4.451,19.307,6.563,7.179,2.345,14.4,4.56,21.784,6.191q6.824,1.508,13.719,2.707a100.577,100.577,0,0,0,10.7,1.439c4.93.32,9.882.309,14.825.407,1.736.036,3.477.049,5.208-.058,3.637-.223,7.281-.423,10.9-.841a78.43,78.43,0,0,0,8.518-1.506C1658.681,541.285,1661.4,538.609,1663.769,535.508ZM1558.406,405.041l-.2.214a11.8,11.8,0,0,1-1.221-1.175q-3.977-5.112-7.913-10.258c-.26-.338-.507-.687-.834-1.13-4.516,3.864-6.509,8.858-7.384,14.4a23.425,23.425,0,0,0,2.514,14.551c1.549-.7,2.9-1.386,4.307-1.913,1.39-.521,2.84-.877,4.382-1.339-1.488-1.773-3.234-3.115-4.02-5.226l5.17,5.177c1.733-.38,3.377-.75,5.028-1.1a3.622,3.622,0,0,0,2.385-1.766c1.217-1.915,2.456-3.824,3.8-5.655a22.593,22.593,0,0,1,13.432-8.623,11.732,11.732,0,0,1,2.912-.291,18.033,18.033,0,0,1,9.735,3.29c.421.276.843.547,1.284.834.507-2.231,1-4.258,1.4-6.3a2.445,2.445,0,0,0-.265-1.395c-1.557-3.35-3.152-6.681-4.731-10.018-.116-.245-.189-.509-.282-.763,2.529,3.088,3.979,6.75,5.8,10.489,3.172-7.541,6.527-14.634,12.032-20.711-.763-.151-1.232-.291-1.708-.329a41.216,41.216,0,0,0-10.785.425,43.778,43.778,0,0,0-16.787,6.974,12.783,12.783,0,0,1-6.611,2.251c-.934.053-1.866.14-2.8.218a35.569,35.569,0,0,0-12.547,2.954c-.432.2-.85.432-1.453.739,1.819,2.823,3.559,5.524,5.3,8.227-2.567-2.176-4.136-5.11-6.1-7.9l-3.453,2.3C1552.073,396.574,1555.239,400.807,1558.406,405.041Zm29.563,144.313a3.471,3.471,0,0,0-.583-.16c-4.9-.107-9.795-.3-14.693-.282-4.089.016-8.178.247-12.262.447-2.574.127-5.143.334-7.711.57-3.448.316-6.889.694-10.335,1.05-3.8.391-7.615.647-11.383,1.219-5.177.781-10.32,1.786-15.47,2.736-1.544.283-3.066.7-4.6,1.055l-.091-.245a4.241,4.241,0,0,1,.723-.421q1.135-.384,2.294-.7a129.476,129.476,0,0,1,19.666-3.4c6.747-.772,13.51-1.406,20.26-2.151,5.884-.65,11.791-.91,17.7-1.006,5.43-.089,10.865.058,16.3.122,4.053.049,8.106.136,12.16.2.356.007.712-.02,1.068-.027,7.57-.165,15.141-.434,22.711-.463a168.946,168.946,0,0,0,18.411-.885,32.556,32.556,0,0,0,10.051-2.587c.449-.209.881-.461,1.319-.694-1.966.116-3.835.507-5.722.679-4.16.376-8.325.7-12.493.934-2.752.151-5.517.131-8.276.138-2.846,0-5.691,0-8.534-.1-2.448-.087-4.887-.349-7.332-.489-7.606-.434-15.214-.834-22.82-1.273-11.522-.661-23.036-1.4-34.56-2-10.413-.534-20.831-.941-31.251-1.33a41.033,41.033,0,0,0-6.4.291c-3.521.425-6.431,2.229-9.126,4.436a6.8,6.8,0,0,0-2.436,7.052,10.424,10.424,0,0,0,8.769,8.42,34.313,34.313,0,0,0,9.724.011,246.093,246.093,0,0,0,26.368-4.249c9.937-2.1,19.893-4.089,29.928-5.651C1582.145,550.168,1584.957,549.79,1587.969,549.354Zm77.8-21.959-.078-.229c-.249.036-.5.053-.743.107a39.7,39.7,0,0,1-8.59,1.017,74.444,74.444,0,0,1-13.824-1.135,120.831,120.831,0,0,1-14.729-3.682,189.78,189.78,0,0,1-34.4-15.092A285.431,285.431,0,0,1,1526,456.71c-.323-.331-.665-.645-1.134-1.1a5.714,5.714,0,0,0-.172.861c-.018,5.074.534,10.029,2.721,14.714a31.761,31.761,0,0,0,9.4,11.294,58.534,58.534,0,0,0,18.048,9.379c1.813.618,3.642,1.206,5.4,1.958a7.333,7.333,0,0,1,2.489,1.715,43.4,43.4,0,0,0,5.815,5.308A183.329,183.329,0,0,0,1588.9,514.4a126.152,126.152,0,0,0,35.383,13.688,97.243,97.243,0,0,0,19.156,2.641c2.625.058,5.255-.127,7.882-.167a42.106,42.106,0,0,0,12.687-2.369A18.656,18.656,0,0,0,1665.773,527.395Zm-27.692-109.269a9.6,9.6,0,0,0-.009-1.01c-.761-6.636-1.468-13.279-2.314-19.9q-1.3-10.2-2.843-20.371a46.762,46.762,0,0,0-2.8-10.569,13.617,13.617,0,0,0-3.528-5.134,5.083,5.083,0,0,0-5.708-.992,7.229,7.229,0,0,0-4.467,5.15,19.891,19.891,0,0,0-.623,4.754,58.212,58.212,0,0,0,.541,7.568,125.17,125.17,0,0,0,8.3,30.822c4.827,11.541,11.146,22.288,17.7,32.9a5.986,5.986,0,0,0,.663.69c-.2-.75-.325-1.175-.423-1.606-1.045-4.645-2.078-9.294-3.135-13.939a30,30,0,0,0-1.141-4.512,204.226,204.226,0,0,1-12.4-47.062,3.444,3.444,0,0,1,.063-1.971C1628.644,388.367,1632.11,403.563,1638.081,418.126ZM1598.77,391.9l-.258-.058c-.191.429-.4.854-.576,1.288a47.91,47.91,0,0,0-3.6,19.428,69.139,69.139,0,0,0,5.793,26.72A97.865,97.865,0,0,0,1629.6,477.2c3.5,2.754,7.152,5.312,10.741,7.955.3.222.645.4.967.594a3.543,3.543,0,0,0-.81-1.375,86.21,86.21,0,0,1-10.12-14.743c-1.924-3.617-3.784-7.275-5.49-11a109.644,109.644,0,0,0-10.987-18.925c-1.7-2.34-3.393-4.7-4.986-7.114-7.862-11.94-11.486-24.991-10.209-39.311C1598.747,392.827,1598.75,392.362,1598.77,391.9Zm-37.078,25.792c15.552,11.034,30.357,22.8,43.84,36.179-.558-1.2-1.225-2.3-1.869-3.413-3.608-6.225-6.8-12.645-8.587-19.652a10.812,10.812,0,0,0-2.656-4.816,205.076,205.076,0,0,0-15.577-14.829c-.473-.416-.93-.852-1.392-1.279l.216-.218a161.377,161.377,0,0,1,18.035,16.213,80.848,80.848,0,0,1-1.272-17.61,20.571,20.571,0,0,0-7.13-4.454,11.564,11.564,0,0,0-6.421-.747,22.338,22.338,0,0,0-8.189,3.473C1566.641,409.4,1564.232,413.563,1561.692,417.692Zm-28.94,122.174c.309.027.616.065.926.08q16.818.861,33.638,1.72c2.848.145,5.7.247,8.547.4q12.212.657,24.424,1.339c.483.027.968.016,1.45.02-18.569-3.555-36.315-9.675-54.045-16.153-1.77,2.834-3.276,5.851-6,7.946A26.816,26.816,0,0,1,1532.752,539.866ZM1490.424,506.5a2.086,2.086,0,0,0,.127-.454,13.713,13.713,0,0,1,2.716-10.42,36.3,36.3,0,0,1,3.114-3.477c1.486-1.47,3.052-2.861,4.607-4.258a8.567,8.567,0,0,0,3-5.361,31.87,31.87,0,0,0,.258-4.914c-.085-2.621-.449-5.235-.481-7.855a53.556,53.556,0,0,1,.434-6.64,32.538,32.538,0,0,1,.889-3.846,2.534,2.534,0,0,0-.82.877c-1.289,2.385-2.645,4.741-3.8,7.188-.912,1.924-1.591,3.962-2.347,5.96a12.111,12.111,0,0,1-5.27,6.338c-1.108.656-2.172,1.393-3.217,2.147a8.7,8.7,0,0,0-3.081,4.1,18.288,18.288,0,0,0,.065,13.931,64.016,64.016,0,0,0,3.221,5.98A5.1,5.1,0,0,0,1490.424,506.5Zm50.793,14.607a127.559,127.559,0,0,1-49.106-14.037,5.97,5.97,0,0,0,1.564,3.813,39.421,39.421,0,0,0,20.6,12.451c7.194,1.851,14.582,2.331,21.933,3.157,1.633-1.664,3.255-3.312,4.868-4.968C1541.15,521.439,1541.154,521.288,1541.217,521.1Zm-22.233,16.582.08.227c1.988-.174,3.975-.354,5.964-.516a50.6,50.6,0,0,0,8.992-1.168,16.564,16.564,0,0,0,9.915-6.785c.67-1,1.4-1.96,1.989-3.005a40.959,40.959,0,0,1,8.883-11.274,4.581,4.581,0,0,0,.443-.612c-.569.2-.9.294-1.2.434a39.649,39.649,0,0,0-10.75,7.368,58.894,58.894,0,0,0-7.619,8.4,10.924,10.924,0,0,1-7.034,4.458c-2.743.574-5.453,1.313-8.173,1.993C1519.969,537.328,1519.479,537.521,1518.984,537.686Z" transform="translate(-1483.257 -357.745)" fill="#6a5975"></path><path id="Path_10" data-name="Path 10" d="M1571.742,438.377a12.663,12.663,0,0,1-1.788-.563c-3.081-1.484-6.178-2.943-9.21-4.525a191.043,191.043,0,0,1-20.32-12c-1.719-1.188-3.355-2.5-5.016-3.764-.343-.26-.643-.581-.972-.881a1.268,1.268,0,0,1,.178-.136c.038-.016.1-.029.125-.009,11.552,8.6,24.253,15.228,37.127,21.561Z" transform="translate(-1420.582 -285.805)" fill="#6a5975"></path></g><g id="Group_5" data-name="Group 5" transform="translate(251.574 70.862)"><path id="Path_11" data-name="Path 11" d="M1622.071,377.8c-.3-.687-.476-1.135-.683-1.568q-8.015-16.831-16.031-33.661a125,125,0,0,1-7.459-18.582,33.465,33.465,0,0,1-1.5-11.6,20.932,20.932,0,0,1,4.521-12.069,17.11,17.11,0,0,1,2.226-2.3c3.753-3.195,7.706-3.924,12.958-.941a23.2,23.2,0,0,1,5.815,5.079c.615.7,1.224,1.406,1.921,2.209.558-.294,1.088-.572,1.6-.839,0-.77.029-1.435,0-2.1a31.8,31.8,0,0,1,4.1-17.459,17.979,17.979,0,0,1,18.68-8.923c1.495.24,3,.427,4.49.681a6.709,6.709,0,0,0,4.6-.981c2.009-1.155,4.007-2.343,6.091-3.344a23.089,23.089,0,0,1,13.811-1.88,13.258,13.258,0,0,1,5.681,2.558c.392.285.784.569,1.257.917.461-.34.89-.641,1.3-.961a57.216,57.216,0,0,1,22.847-10.591,43.843,43.843,0,0,1,12.509-.6,31.412,31.412,0,0,1,8.8,1.51,30.963,30.963,0,0,1,5.8,2.676c3.971,2.494,6.923,5.86,7.882,10.812.568-.114,1.074-.189,1.568-.316,6.532-1.668,17.824.55,23.377,8.66a25.992,25.992,0,0,1,4.049,10.792c.289,1.8.452,3.613.687,5.566.409-.171.77-.3,1.11-.467a22.566,22.566,0,0,1,15.468-1.864,18.6,18.6,0,0,1,3.96,1.548,9.163,9.163,0,0,0,2.621.9,28.887,28.887,0,0,1,4.818,1.037,12.071,12.071,0,0,1,8.569,11.528,38.12,38.12,0,0,1-2.571,14.647,70.6,70.6,0,0,1-5.186,10.838c-5.092,8.838-10.109,17.726-16.006,26.073a89.967,89.967,0,0,0-8.422,15.773c-3.025,6.843-6.018,13.7-9.121,20.513a80.265,80.265,0,0,1-8.06,13.991c-6.894,9.484-16.313,14.629-27.8,16.251a33.7,33.7,0,0,1-8.532.045,19.536,19.536,0,0,0-20.5,12.4,30.74,30.74,0,0,0-1.871,10.055c-.369,6.805-.81,13.606-1.228,20.409-.672,10.938-1.626,21.861-1.691,32.829a164.093,164.093,0,0,0,1.459,20.782c1.2,9.9,2.483,19.8,3.484,29.723.968,9.577,1.179,19.205,1.439,28.827.532,19.741-.187,39.474-.4,59.21q-.267,25.194-.074,50.394c.078,9.975.589,19.948,1.482,29.894q1.441,16.1,2.783,32.217c.785,9.319,1.577,18.64,2.276,27.966.718,9.595,1.237,19.205,2.018,28.8.474,5.811,1.272,11.595,1.942,17.39.465,4.026.964,8.046,1.439,12.071a8.57,8.57,0,0,1,.051,1.2.97.97,0,0,1-.808,1.07c-.656.1-.986-.309-1.152-.87a5.747,5.747,0,0,1-.165-.916c-.861-6.848-1.786-13.688-2.556-20.547-.507-4.514-.819-9.05-1.166-13.579-.436-5.728-.825-11.461-1.228-17.194-.311-4.442-.589-8.89-.928-13.33-.38-4.974-.805-9.944-1.219-14.916q-.58-6.991-1.181-13.982c-.493-5.724-1.049-11.443-1.495-17.172-.618-7.946-1.317-15.893-1.706-23.854-1.173-24-.556-48.023-.316-72.035.129-12.921.389-25.839.432-38.76.022-7.617-.185-15.239-.436-22.853-.307-9.306-.91-18.6-2.031-27.848-.937-7.737-1.982-15.461-2.9-23.2a143.329,143.329,0,0,1-1-24.94q.718-12.81,1.488-25.616c.329-5.468.843-10.929,1.012-16.4.122-3.909-.111-7.835-.34-11.744a13.157,13.157,0,0,0-2.607-6.783,9.118,9.118,0,0,0-1.557-1.64,4.612,4.612,0,0,0-4.318-1.059,62.3,62.3,0,0,1-19.517,1.373,83.839,83.839,0,0,1-18.622-4.1,75.656,75.656,0,0,1-32.9-21.866,41.159,41.159,0,0,1-10.081-20.338,21.685,21.685,0,0,1-.2-7.837,8.587,8.587,0,0,1,8.355-7.266,23.88,23.88,0,0,1,2.923.2C1620.73,377.553,1621.246,377.667,1622.071,377.8Zm76.551,48.47a10.9,10.9,0,0,1-1.105,1.3,33.065,33.065,0,0,1-7.252,4.729,49.265,49.265,0,0,1-14.169,4.56c2.719-.069,5.421-.256,8.126-.423a35.639,35.639,0,0,0,11.343-2.816,7.3,7.3,0,0,0,3.213-2.534,4.1,4.1,0,0,0,.447-4.8h-.623c.122-.234.247-.465.354-.663-1.148-3.708-6.227-7.1-8.994-7.47-3.286,2.725-6.714,5.379-10.836,6.936a54.768,54.768,0,0,0,10.164-7.3,11,11,0,0,0-5.806-.914,34.1,34.1,0,0,0-7.017,1.537,4.274,4.274,0,0,0-2.269,1.684c-4.242,5.9-9.606,10.347-16.658,12.531a5.872,5.872,0,0,0-.692.316c8.382,1.257,16.349-.465,24.2-3.077a29.34,29.34,0,0,1-7.384,2.627,66.174,66.174,0,0,1-7.871,1.348c-2.545.251-5.125.147-7.69.2,3.41.961,6.754,2.062,10.329,2.047,3.82-.013,7.644.325,11.421-.625A46.016,46.016,0,0,0,1698.622,426.268Zm10.623-162.862c-.2.483-.407.921-.572,1.377a201.2,201.2,0,0,0-6.7,23.016,322.63,322.63,0,0,0-6.189,36.085c-.55,4.856-1.088,9.715-1.537,14.582-.345,3.764-.623,7.539-.788,11.314-.249,5.784-.5,11.572-.516,17.361-.014,5.653.2,11.308.447,16.958.18,4.176.437,8.356.888,12.509.456,4.193,1.107,8.369,1.831,12.525a61.4,61.4,0,0,0,5.768,17.957c1.156,2.229,2.7,2.914,5.305,2.1.225-.756.487-1.6.721-2.447,2.035-7.428,2.54-15.063,2.885-22.7.276-6.14.238-12.293.344-18.44,0-.3.042-.592.064-.89.183,2.053.131,4.1.192,6.144a198.308,198.308,0,0,1-.563,23.08,76.175,76.175,0,0,1-2.391,14.028,5.349,5.349,0,0,0-.1.992,2.7,2.7,0,0,0,2.727-1.7c.432-.928.968-1.806,1.4-2.734a79.047,79.047,0,0,0,5.319-17.848,168.115,168.115,0,0,0,2.113-18c.374-4.164.645-8.338,1.1-12.491.467-4.329.979-8.658,1.679-12.952,1.373-8.422,3.251-16.74,5.422-25,3.083-11.726,6.674-23.325,9.083-35.225.961-4.741,1.944-9.481,2.814-14.24.5-2.747.794-5.535,1.19-8.3a12.087,12.087,0,0,0-2.521-9.784,20.13,20.13,0,0,0-11.225-6.792,3.017,3.017,0,0,0-.747.033c-3.291,11.875-6.6,23.719-8.532,35.894,1.208-12.324,4.623-24.177,7.769-36.061a15.931,15.931,0,0,0-6.309-.7c-1.21,5.148-2.438,10.376-3.668,15.606a11.586,11.586,0,0,1,.162-2.24c.87-4.211,1.777-8.416,2.658-12.627a5.477,5.477,0,0,0,.007-.988A38.646,38.646,0,0,0,1709.245,263.406Zm-101.563,53.931.256-.08a1.921,1.921,0,0,1,.2.307c.445,1.066.91,2.125,1.315,3.206,5.546,14.843,11.77,29.4,18.477,43.754a155.461,155.461,0,0,0,13.779,24.391,31.636,31.636,0,0,0,3.535,4.16c1.613,1.593,3.392,3.019,5.1,4.518a58.958,58.958,0,0,0,9.443,6.752c.409.236.839.44,1.257.659l.174-.2c-.311-.34-.614-.687-.934-1.021a119.128,119.128,0,0,1-17.306-22.849,225.5,225.5,0,0,1-16.627-36.8c-.6-1.653-1.1-3.344-1.7-5.186.262.162.363.187.387.245.207.489.411.981.594,1.479a292.258,292.258,0,0,0,12.685,29.816A126.6,126.6,0,0,0,1662.6,404.8a10.26,10.26,0,0,0,5.515,3c.7.131,1.391.309,2.094.432a9.169,9.169,0,0,0,1.208.007c-12.44-13.561-21.508-28.958-28.754-45.489.125-.033.169-.016.185.016.452.87.906,1.735,1.344,2.612a216.073,216.073,0,0,0,14.97,26.021,150.5,150.5,0,0,0,12.976,16.3,3.156,3.156,0,0,0,1.719,1.17c2.049.418,4.078.932,6.116,1.4.271.06.554.067.994.116-.213-.394-.318-.634-.463-.848a137.869,137.869,0,0,1-10.943-20.175c-.892-1.938-1.884-3.833-2.892-5.715-3.092-5.766-6.318-11.464-9.3-17.287-4.77-9.315-8.69-19.014-12.576-28.722-2.759-6.892-5.6-13.75-7.831-20.838-.167-.534-.287-1.083-.43-1.628a7.675,7.675,0,0,1,.881,1.815q4.468,11.212,8.943,22.422a315.02,315.02,0,0,0,18.2,38.617c.269.478.556.948.836,1.422a2.332,2.332,0,0,0-.116-1.219c-1.17-4.111-2.467-8.189-3.479-12.338a81.609,81.609,0,0,1-2.636-16.734,7.919,7.919,0,0,0-.592-2.307q-3.173-8.99-6.376-17.968a9.444,9.444,0,0,1-.258-1.117,41.55,41.55,0,0,1,2.42,5.39c1.37,3.664,2.692,7.348,4.042,11.019.156.423.374.821.678,1.482.1-.465.14-.594.147-.723a64.969,64.969,0,0,1,1.306-10.193,4.623,4.623,0,0,0-.12-2.225c-.908-2.934-1.837-5.866-2.9-8.747a43.54,43.54,0,0,0-7.355-13.257,18.036,18.036,0,0,0-8.453-5.849c-5.1-1.611-10.116-1-15.092.59a3.9,3.9,0,0,0-.723.436c2.429,7.573,5.6,14.787,8.736,22.024a120.136,120.136,0,0,1-9.488-21.665l-2.37.356c.1.312.171.565.272.807,2.829,6.916,5.575,13.868,8.527,20.731,2.038,4.738,4.372,9.348,6.558,14.022.216.456.347.952.516,1.428l-.276.12c-.2-.374-.414-.743-.614-1.119a294.454,294.454,0,0,1-15.757-35.614,13.106,13.106,0,0,0-3.715-5.426c-.87-.763-1.775-1.488-2.7-2.18a9.952,9.952,0,0,0-4.289-1.76,14.805,14.805,0,0,0-1.6-.089c2.138,6.3,4.212,12.407,6.282,18.518l-.3.109c-2.636-6.04-4.465-12.393-6.912-18.544a6.745,6.745,0,0,0-3.154,1.3,16.066,16.066,0,0,0-6.022,8.127c-1.679,4.612-1.464,9.279-.392,13.957a72.049,72.049,0,0,0,5.121,14.462c6.688,14.28,13.475,28.513,20.213,42.768a2.923,2.923,0,0,0,1.366,1.393,33.8,33.8,0,0,1,3.368,1.911c3.245,2.2,6.449,4.456,9.67,6.689.36.249.723.489,1.086.736a3.412,3.412,0,0,0-.619-1.457,132.216,132.216,0,0,1-8.266-14.189,470.461,470.461,0,0,1-21.621-50.521C1608.881,320.837,1608.29,319.084,1607.682,317.337Zm156.273-3.735c.43-2.438.917-4.868,1.275-7.317.634-4.347,1.205-8.7,1.766-13.061.187-1.453.192-2.932.418-4.378a4.185,4.185,0,0,0-.745-3.27,17.966,17.966,0,0,0-6.184-5.608,23.071,23.071,0,0,0-18.451-1.651c-.087,1.212-.1,2.463-.282,3.686-.678,4.478-1.306,8.965-2.155,13.412-2.154,11.263-4.923,22.382-8.027,33.421-3.379,12.024-6.514,24.113-8.269,36.5-.8,5.63-1.448,11.285-2.04,16.94-.46,4.378-.75,8.776-1.075,13.168a100.664,100.664,0,0,1-2.175,14.622c-1.331,5.96-2.941,11.826-5.9,17.232a2.97,2.97,0,0,0-.16.636c1.86-.365,3.384-.954,4.167-2.705a9.069,9.069,0,0,1,.705-1.132,78.855,78.855,0,0,0,9.824-20.8,5.074,5.074,0,0,1,.318-.694l.245.089c-.71,2.28-1.355,4.585-2.142,6.836a77.742,77.742,0,0,1-7.688,15.223c-.238.385-.461.781-.817,1.384a5.53,5.53,0,0,0,3.275-1.953,72.448,72.448,0,0,0,8.671-13.45,137.04,137.04,0,0,0,9.882-27.018c2-7.564,3.6-15.214,4.861-22.936.932-5.7,1.911-11.386,2.861-17.081.839-5.034,1.608-10.084,2.511-15.107,1.366-7.6,3.375-15.063,5.311-22.535.12-.465.3-.914.46-1.37-1.063,5.372-2.436,10.654-3.466,16-1.55,8.062-2.89,16.164-4.269,24.257-1.2,7.048-2.28,14.117-3.5,21.161a199.035,199.035,0,0,1-6.743,27.559c-3.384,10.425-7.659,20.422-14.333,29.24a3.976,3.976,0,0,0-.294.732c.505-.245.788-.358,1.046-.512,6.716-4.011,12.048-9.346,15.229-16.553a117.485,117.485,0,0,0,5.088-13.205,297.722,297.722,0,0,1,13.205-35.692,163.277,163.277,0,0,0,7.851-21.723c3.021-10.447,5.967-20.9,6.467-31.868a37.99,37.99,0,0,0-1.626-13.588c-.14-.44-.347-.859-.523-1.286-.743,4.133-1.255,8.211-1.835,12.282A65.54,65.54,0,0,1,1763.955,313.6Zm-70.2,103.222.234-.162c-.135-.4-.273-.812-.407-1.217-.754-2.28-1.571-4.54-2.245-6.843a143.006,143.006,0,0,1-4.309-20.186c-.65-4.574-1.3-9.152-1.791-13.746-.42-3.933-.676-7.888-.888-11.839-.311-5.866-.667-11.737-.734-17.608-.078-7.081.08-14.164.232-21.243.1-4.494.365-8.983.571-13.474.065-1.377.169-2.752.294-4.124q.474-5.312.988-10.62c.276-2.83.521-5.664.89-8.482.545-4.178,1.19-8.345,1.788-12.518.1-.73.187-1.464.289-2.265-.28.058-.432.047-.527.116-.758.55-1.517,1.095-2.251,1.673a30.974,30.974,0,0,0-10.547,14.164,38.22,38.22,0,0,0-1.958,11.681c-.138,5.077-.111,10.158-.162,15.234a47.51,47.51,0,0,0-.058,4.8c.329,3.582.787,7.152,1.246,10.718a144.625,144.625,0,0,0,3.3,17.793c.069.269.089.549.131.825l-.327.067a77.133,77.133,0,0,1-3.294-14.818c-.757-5.061-1.389-10.142-2.1-15.443-1.006.908-1.942,1.653-2.763,2.509a26.738,26.738,0,0,0-6.576,12.493,51.393,51.393,0,0,0-1.484,16.42,93.806,93.806,0,0,0,1.4,9.911c2.709,14.364,8.1,27.745,15.163,40.481,1.875,3.384,4.091,6.58,6.129,9.875a4.014,4.014,0,0,0,1.713,1.413c2.44,1.286,4.847,2.632,7.265,3.955C1693.228,416.513,1693.49,416.671,1693.755,416.824ZM1674.1,271.245c-3.441.169-6.716.4-9.719,1.976-1.815.95-3.659,1.866-5.377,2.974a10.384,10.384,0,0,1-7.931,1.415c-1.749-.329-3.52-.554-5.292-.719a7.4,7.4,0,0,0-3.7.449,9.86,9.86,0,0,0,.087,1.377c.725,3.473,1.475,6.943,2.207,10.413a9.4,9.4,0,0,1,.109,1.03,54.361,54.361,0,0,1-3.31-12.68,10.568,10.568,0,0,0-4.061,1.639,156.339,156.339,0,0,0,4.182,17.908,7.9,7.9,0,0,1-1.2-2.325c-1.146-4.242-2.229-8.5-3.326-12.756-.182-.7-.316-1.417-.5-2.227-.385.229-.623.343-.832.5a14.766,14.766,0,0,0-4.1,4.7,30.839,30.839,0,0,0-3.9,16.3c.018.436.1.868.154,1.379.523-.058.956-.1,1.384-.158,1.453-.214,2.9-.5,4.358-.643,7.119-.7,13.194,1.413,17.966,6.856a35.52,35.52,0,0,1,6.242,9.911c1.337,3.25,2.474,6.583,3.7,9.877.16.432.324.859.589,1.551.636-1.341,1.063-2.416,1.639-3.4a4.528,4.528,0,0,0,.534-3.09c-.574-3.726-1.188-7.448-1.78-11.172-.089-.565-.142-1.139-.211-1.709l.26-.029c1.346,4.287,1.74,8.776,2.607,13.4.843-1.072,1.524-1.94,2.221-2.827-.43-9.886-2.116-19.621-3.375-29.41a179.771,179.771,0,0,1,4.149,28.464,24.836,24.836,0,0,1,1.938-1.631,3.084,3.084,0,0,0,1.392-2.852c-.029-1.646-.022-3.3,0-4.945a146.525,146.525,0,0,1,.538-15.615,31.861,31.861,0,0,1,9.713-19.726c.313-.3.609-.623,1-1.017a12.2,12.2,0,0,0-7.426-3.115c-.194,1.989.645,3.755.383,5.551l-.343.031C1674.752,275.078,1674.441,273.257,1674.1,271.245ZM1697.8,420.095c-.14-.618-.211-.952-.294-1.284-.549-2.2-1.15-4.383-1.648-6.592a154.987,154.987,0,0,1-3.135-23.634c-.367-5.417-.511-10.854-.572-16.282-.056-5.077.058-10.155.234-15.23q.254-7.4.8-14.794c.354-4.874.819-9.744,1.337-14.607.478-4.5.957-9.016,1.682-13.486q1.655-10.184,3.673-20.311a182.5,182.5,0,0,1,8.3-29.327,9.524,9.524,0,0,0,.24-1.077,58.891,58.891,0,0,0-18.967,8.178c-.463,3.221-.969,6.376-1.357,9.544-.516,4.234-.972,8.471-1.392,12.714-.465,4.689-.937,9.379-1.264,14.077-.356,5.106-.6,10.22-.8,15.334-.16,4.185-.269,8.374-.231,12.56q.087,9.417.427,18.834c.167,4.578.456,9.154.821,13.721.347,4.34.738,8.685,1.335,13,.774,5.586,1.657,11.163,2.7,16.7a101.483,101.483,0,0,0,5.326,18.56A7.3,7.3,0,0,0,1697.8,420.095Zm24.755,9.039c2.538.347,4.785.779,7.059-.516a53.667,53.667,0,0,0,13.528-11.192,92.388,92.388,0,0,0,12.66-18.791c7.844-15.012,12.845-31.025,16.509-47.484,1.3-5.846,2.359-11.753,3.417-17.652.594-3.319.981-6.676,1.428-10.022.325-2.42.6-4.847.881-7.274q.38-3.31.71-6.625c.264-2.741.5-5.486.741-8.229a8.978,8.978,0,0,0-.045-1.041,17.911,17.911,0,0,0-6.558,2.939c-.038.5-.054.9-.1,1.295-.463,3.891-.667,7.833-1.446,11.659a203.84,203.84,0,0,1-12.607,41.327,273.149,273.149,0,0,0-12.611,33.63,125.506,125.506,0,0,1-5.168,14.32,39.844,39.844,0,0,1-9.048,13.428,45.778,45.778,0,0,1-9.593,6.976,5.294,5.294,0,0,0-1.215.807c-.639.632-.561,1.208.3,1.987,1.44-.934,2.97-1.837,4.4-2.87a66.686,66.686,0,0,0,19.746-22.862,182.167,182.167,0,0,0,13.979-33.841c.18-.594.4-1.177.6-1.766a.433.433,0,0,1,.143.443c-.054.26-.111.521-.178.776a160.009,160.009,0,0,1-13.348,33.785c-5.633,10.783-13.283,19.781-23.69,26.282A4.589,4.589,0,0,0,1722.557,429.133Zm70.016-127.046c.067-.073-.071.009-.1.122-.147.512-.278,1.028-.39,1.548-1.221,5.777-2.211,11.615-3.708,17.319-2.787,10.616-5.822,21.167-8.847,31.719-2.881,10.044-5.924,20.042-9.666,29.808A109.969,109.969,0,0,1,1757,407.443a60.594,60.594,0,0,1-13.53,14.313,76.157,76.157,0,0,1-11.629,6.807c-.391.189-.765.418-1.147.627l.12.269c1.136-.178,2.282-.32,3.41-.543,9.94-1.947,18.126-6.714,24.135-15a60.222,60.222,0,0,0,5.966-9.808q5.032-10.775,9.829-21.657c3-6.77,6.013-13.517,10.32-19.6,6.142-8.667,11.321-17.926,16.536-27.158a52.9,52.9,0,0,0,5.128-12.164,31.825,31.825,0,0,0,1.223-11.5,9.025,9.025,0,0,0-3.973-6.665,176.118,176.118,0,0,1-6.623,20.142,28.594,28.594,0,0,1,.852-3.468q2.379-7.979,4.761-15.959a10.747,10.747,0,0,0,.229-1.275,13.006,13.006,0,0,0-5.343-1.906C1795.745,302.65,1794.23,302.377,1792.573,302.087Zm-12.587-1.949c0,1.237.076,2.307-.013,3.361q-.443,5.379-.99,10.752c-.347,3.448-.649,6.9-1.148,10.331-.781,5.4-1.657,10.8-2.59,16.178a238.709,238.709,0,0,1-6.445,27.354,164.565,164.565,0,0,1-13.679,33.545c-4.743,8.5-10.358,16.32-17.848,22.66a1.711,1.711,0,0,0-.234.343,5.248,5.248,0,0,0,1.4-.618c7.228-4.211,12.838-10.107,17.641-16.86A108.454,108.454,0,0,0,1768.1,384.6c3.586-8.923,6.442-18.093,9.174-27.3,5.057-17.038,10.349-34.014,13.648-51.52.278-1.473.627-2.932.972-4.536C1788.092,299.534,1784.23,299.409,1779.986,300.139Zm-151.352,87.686a42.426,42.426,0,0,0-.338,21.372,30.767,30.767,0,0,1-1.28-5.023,39.725,39.725,0,0,1,1.123-17.13c-1.279-1.21-2.456-2.425-3.74-3.51a18.628,18.628,0,0,0-6.454-3.684,4.2,4.2,0,0,0-2.876,0,5.889,5.889,0,0,0-3.975,4.338,17.363,17.363,0,0,0-.373,4.367,35.261,35.261,0,0,0,4.738,15.439c3.139,5.657,7.566,10.207,12.418,14.387a4.232,4.232,0,0,0,.611.316c-7.614-10.607-11.941-22.01-11.3-34.991a13.065,13.065,0,0,1,.256,2.32,55.78,55.78,0,0,0,1.263,10.037,57.167,57.167,0,0,0,7.644,18.251,31.521,31.521,0,0,0,11,11.074c.316.178.65.323,1.115.552-5.224-9.025-5.055-18.424-3.088-28.017A77.285,77.285,0,0,0,1628.634,387.824Zm56.466,26.838.026-.251c-.438-.2-.87-.412-1.315-.594a47.535,47.535,0,0,0-11.565-3.146,34.119,34.119,0,0,1-10.75-3.032,61.877,61.877,0,0,1-12.5-8.371c-3.531-3-6.95-6.138-10.616-8.959-3.629-2.792-7.488-5.288-11.279-7.866a13.243,13.243,0,0,0-3.92-1.851.812.812,0,0,0,.318.416,33.067,33.067,0,0,1,10.153,10.462c1.726,2.647,3.37,5.348,5.027,8.042a36.838,36.838,0,0,0,13.048,12.767c5.542,3.206,11.47,5.121,17.988,4.3a40.419,40.419,0,0,0,5.213-1.123,24.691,24.691,0,0,1,8.6-.8C1684.042,414.7,1684.572,414.662,1685.1,414.662Zm-30.887,17.861c8.556-1.475,14.818-6.4,19.893-13.188a13.985,13.985,0,0,0-2.619.3,19.636,19.636,0,0,1-6.9.211,39.27,39.27,0,0,1-10.8-3.728c-.429-.211-.863-.418-1.415-.685a55.437,55.437,0,0,1-5.156,15.078l1.346.5,2.16-2.369.142.129c-.525.805-1.048,1.611-1.615,2.483,3.417,1.929,6.071.3,8.694-1.584C1657.06,431.127,1655.614,431.787,1654.212,432.524Zm-12.874-13.839c.149,1,.283,2,.452,3a16.59,16.59,0,0,0,2.525,6.814,3.258,3.258,0,0,0,2.187,1.6c2.772-4.643,4.022-9.795,5.335-15.056a56.164,56.164,0,0,1-11.8-9.824,42.3,42.3,0,0,0-.878,5.975,44.831,44.831,0,0,0,.507,10.235,14.45,14.45,0,0,0,2.254,5.793,2.9,2.9,0,0,0,1.708,1.424A18.527,18.527,0,0,1,1641.338,418.684Zm-.923,8.089c-2.808-7.439-2.338-14.9-.848-22.391-.632-.91-1.23-1.793-1.855-2.656a18.062,18.062,0,0,0-1.913-2.792,43.951,43.951,0,0,0-.111,18.088,20.743,20.743,0,0,0,3.17,7.871C1639.325,425.556,1639.895,426.148,1640.415,426.773Z" transform="translate(-1596.343 -260.669)" fill="#6a5975"></path><path id="Path_12" data-name="Path 12" d="M1645.862,375.125a4.112,4.112,0,0,1-.153-.727c-.107-2.712-.231-5.424-.292-8.135-.107-4.63-.274-9.261-.222-13.888.055-4.939.287-9.875.534-14.809.184-3.726.445-7.455.8-11.17.438-4.5,1.019-9,1.525-13.495a142.8,142.8,0,0,1,2.714-15.859c.436-1.9.914-3.793,1.384-5.686a1.214,1.214,0,0,1,.558-.788c-.089.476-.158.957-.269,1.426a157.191,157.191,0,0,0-3.1,16.326c-.554,4.492-1.143,8.981-1.577,13.486-.456,4.732-.765,9.477-1.1,14.217q-.834,11.726-.732,23.483c.047,4.674.162,9.348.245,14.024.009.529,0,1.059,0,1.588Z" transform="translate(-1536.53 -224.054)" fill="#6a5975"></path><path id="Path_13" data-name="Path 13" d="M1629.89,294.384c1.359,12.936,5.036,25.327,9.074,37.814-.928-.12-.941-.616-1.059-1-1.588-5.174-3.317-10.311-4.709-15.537-1.174-4.4-2.036-8.9-2.885-13.383-.454-2.389-.594-4.838-.863-7.261a2.373,2.373,0,0,1,.087-.6Z" transform="translate(-1555.808 -219.38)" fill="#6a5975"></path></g><g id="Group_9" data-name="Group 9" transform="translate(59.459)"><path id="Path_20" data-name="Path 20" d="M1514,329.637c-.554-.792-1.1-1.548-1.619-2.325a13.929,13.929,0,0,1-2.363-7.134,21.333,21.333,0,0,1,2.879-11.648,10.813,10.813,0,0,1,5.272-4.549c.4-.18.8-.347,1.337-.576-.273-.507-.492-.925-.723-1.337a25.92,25.92,0,0,1-3.088-7.793,14.011,14.011,0,0,1,3.806-12.927,19.663,19.663,0,0,1,13.639-6.229,34.213,34.213,0,0,1,10.073.963c.594.147,1.2.251,1.96.409.037-.685.091-1.246.093-1.806a38.166,38.166,0,0,1,2.245-13.1,29.742,29.742,0,0,1,10.872-14.22,22.345,22.345,0,0,1,12.349-4.216,17.361,17.361,0,0,1,12.8,4.451c1.613,1.464,3.061,3.108,4.583,4.672a3.966,3.966,0,0,0,1.326,1q-.14-.818-.285-1.633a9.357,9.357,0,0,1,2.765-8.543,8.466,8.466,0,0,1,5.068-2.178,25.717,25.717,0,0,1,8.774.207c.392.073.79.109,1.353.182a9.436,9.436,0,0,0,.243-1.528,8.365,8.365,0,0,1,4.3-7.515c2.267-1.428,4.509-2.874,7.259-3.23a17.4,17.4,0,0,1,9.809,1.186c.325.149.66.271.977.434a9.64,9.64,0,0,0,6.852.812,17.429,17.429,0,0,1,9.862.814,10.975,10.975,0,0,1,6.442,5.495c.116.236.27.452.45.75.36-.08.7-.134,1.028-.231a14.11,14.11,0,0,1,10.645.974,27.078,27.078,0,0,1,7.143,5.119,156.249,156.249,0,0,0,12.245,10.961c.347.278.67.587,1.014.868a18.515,18.515,0,0,1,6.736,11.944c.616,3.915,1.1,7.851,1.621,11.779,1.586,12.009,3.193,24.015,4.73,36.03.945,7.377,2.06,14.749,2.576,22.157a142.374,142.374,0,0,1,.058,18.965,44.728,44.728,0,0,1-6.391,19.806,73.492,73.492,0,0,1-10.371,13.9,74.437,74.437,0,0,1-5.955,5.355,22.561,22.561,0,0,0-5.083,5.973,10.2,10.2,0,0,0-.505,9.277,32.871,32.871,0,0,0,6.073,9.383c4.158,4.709,8.463,9.288,12.62,14a682.5,682.5,0,0,1,62.24,82.86A718.259,718.259,0,0,1,1808,618.517a532.571,532.571,0,0,1,26.217,73.286,342.863,342.863,0,0,1,8.118,37.456c.73,4.707,1.183,9.459,1.946,14.162,1.032,6.36,1.046,12.778,1.322,19.183.38,8.858.69,17.719,1.119,26.575a85.778,85.778,0,0,0,2.227,13.835c2.576,11.975,5.177,23.944,7.7,35.928a193.764,193.764,0,0,1,3.824,48.5q-.34,7.878-.71,15.755a12.344,12.344,0,0,1-.265,1.584c-1.2.267-1.582.109-1.726-.754a9.476,9.476,0,0,1-.036-1.864c.251-8.416.583-16.829.747-25.247a152.015,152.015,0,0,0-2.836-31.494c-1.786-9.359-3.875-18.66-5.822-27.988-1.428-6.845-2.968-13.67-4.22-20.547a83,83,0,0,1-1.224-11.279c-.478-11.083-.725-22.177-1.19-33.26-.145-3.461-.623-6.916-1.081-10.356-.681-5.119-1.562-10.211-2.211-15.334a203.138,203.138,0,0,0-4.271-21.47,495.875,495.875,0,0,0-26.224-78.347A721.062,721.062,0,0,0,1738.766,498.8a648.356,648.356,0,0,0-56.777-71.575c-.816-.885-1.682-1.726-2.451-2.65a46.143,46.143,0,0,0-9.13-7.777,1.6,1.6,0,0,0-.223-.147c-4.734-2.483-9.677-4.031-15.114-3.417a9.722,9.722,0,0,0-5.78,2.787,48.776,48.776,0,0,1-10.788,8.051,29.1,29.1,0,0,1-12.086,3.513c-10.589.63-20.589-1.308-29.8-6.689-5.693-3.326-11.4-6.632-16.963-10.169-11.882-7.557-23.83-15-36.2-21.75-6.082-3.321-11.586-7.5-17.125-11.628q-3-2.232-5.915-4.587a32.512,32.512,0,0,1-7.87-9.695c-2.46-4.449-2.371-9.032-.776-13.7a7.047,7.047,0,0,1,2.26-3.252,1.957,1.957,0,0,0,.67-2.474c-1.364-3.689-1.266-7.519-1-11.357C1513.764,331.4,1513.9,330.522,1514,329.637Zm7.321-9.219a17.328,17.328,0,0,0-4.872,8.1,29.946,29.946,0,0,0-.461,12.071,7.823,7.823,0,0,0,2.518,4.872c5.86,5.208,11.5,10.683,17.53,15.677,11.083,9.177,22.378,18.1,33.6,27.1a198.261,198.261,0,0,0,26.622,18.291c8.988,5.066,18.291,9.39,28.384,11.779a37.46,37.46,0,0,0,12.534,1.277c6.029-.607,10-3.944,13.13-8.881a6.924,6.924,0,0,0-.814.1,41.918,41.918,0,0,1-13.8.843,52.655,52.655,0,0,1-14.113-3.3,121.35,121.35,0,0,1-24.289-12.8,251.982,251.982,0,0,1-25.071-19.1c-8.02-6.87-16.093-13.684-23.908-20.78-5.8-5.266-11.225-10.947-16.813-16.447-.071-.069-.078-.2-.115-.3a38.554,38.554,0,0,1,3.88,3.264c7.212,6.9,14.291,13.937,21.968,20.335,8.658,7.214,17.2,14.576,25.975,21.646a166.381,166.381,0,0,0,27.928,18.478c8.113,4.187,16.5,7.528,25.759,8.164a39.479,39.479,0,0,0,13.221-1.161,4.752,4.752,0,0,0,3.517-4.438c-.058-.065-.1-.153-.178-.189a7.46,7.46,0,0,0-.729-.318,120.429,120.429,0,0,1-23.428-11.853,266.936,266.936,0,0,1-25.538-19.15c-6.089-5.01-12.017-10.215-18.122-15.205a297.605,297.605,0,0,1-22.457-19.779c-2.067-2.071-4.238-4.038-6.36-6.053a1.526,1.526,0,0,1,.79.369c1.809,1.586,3.626,3.161,5.406,4.779,3.562,3.237,6.99,6.627,10.669,9.724q15.8,13.294,31.761,26.4a262.076,262.076,0,0,0,22.406,16.878,120.964,120.964,0,0,0,24.462,12.745c.478.176.965.323,1.544.514a3.98,3.98,0,0,0-1.393-3.86c-.859-.705-1.826-1.293-2.63-2.056-3.128-2.981-6.262-5.958-9.29-9.039-2.434-2.478-4.72-5.1-7.063-7.668a95.928,95.928,0,0,0-14.852-13.016,62.208,62.208,0,0,0-16.894-8.189,22.058,22.058,0,0,1-7.688-4.44,117.719,117.719,0,0,1-10.284-10.12q-3.411-3.854-6.85-7.682a94.124,94.124,0,0,0-19.646-16.6,48.374,48.374,0,0,0-10.447-5.039,28.312,28.312,0,0,0-16.707-.63c-.491.131-.963.336-1.252.438,1.873,2,3.68,3.962,5.524,5.889,1.862,1.944,3.935,3.691,5.455,5.962-4.193-3.677-8.249-7.5-12.171-11.368-2.374.692-4.732,2.12-5.477,3.3.169.189.336.4.521.585a212.773,212.773,0,0,0,18.851,17.392c1.388,1.117,2.736,2.283,4.086,3.444a2.791,2.791,0,0,1,.427.652A170.877,170.877,0,0,1,1521.319,320.418Zm152.306,75.1c.187-.1.381-.18.557-.294a29.333,29.333,0,0,0,11.875-15.185c2.469-6.95,3.246-14.2,3.668-21.485a105.085,105.085,0,0,0-1.081-19.97q-.908-6.8-2.053-13.572c-1.166-6.874-2.421-13.735-3.659-20.6-.9-4.983-1.847-9.957-2.761-14.938q-1.7-9.3-3.395-18.611-1.932-10.551-3.888-21.094a5.228,5.228,0,0,0-.774-2.474,26.358,26.358,0,0,0-9.061-6.709c-8.24-3.513-17.1,3.355-16.954,11.07a45.044,45.044,0,0,0,1.51,11.194c1.319,4.8,2.8,9.553,4.151,14.342,4.414,15.615,7.829,31.472,11.468,47.273,1.893,8.222,3.528,16.507,5.166,24.787.974,4.923,1.857,9.871,2.545,14.841.578,4.178.852,8.4,1.19,12.609a54.216,54.216,0,0,1-1.942,19.81c-.107.365-.178.741-.264,1.11l.283.185a14.979,14.979,0,0,0,1.341-1.366,26.1,26.1,0,0,0,4.065-8.5,79.674,79.674,0,0,0,2.89-20.676,163.781,163.781,0,0,0-.728-21.61c-.385-3.849-.665-7.708-1.159-11.541q-.888-6.868-2.071-13.7c-1.043-5.946-2.064-11.9-3.4-17.786-2.1-9.261-4.465-18.464-6.716-27.692-.2-.8-.387-1.611-.581-2.416a1.215,1.215,0,0,1,.523.732c.941,3.192,1.915,6.376,2.8,9.584,2.645,9.637,4.839,19.383,6.739,29.194.887,4.574,1.653,9.174,2.394,13.777.527,3.288.97,6.594,1.359,9.9.36,3.043.627,6.1.883,9.154.283,3.368.658,6.738.718,10.113.118,6.852.383,13.719-.482,20.549-.354,2.774-.714,5.55-1.235,8.3A44.337,44.337,0,0,1,1673.625,395.517Zm-122.6-136.7c.425.458.812.883,1.208,1.3,7.241,7.624,14.589,15.138,21.46,23.114,9.548,11.079,18.725,22.431,27.141,34.4,6.663,9.475,13.421,18.88,20.153,28.3a366.61,366.61,0,0,0,28.193,34.406c.231.254.5.474.754.707a9.822,9.822,0,0,0-1.083-2.222c-5.817-9.6-11.57-19.23-16.742-29.2-5.337-10.287-9.72-21-14-31.748-4.772-11.986-9.4-24.03-14.151-36.023-4.6-11.626-10.752-22.255-19.8-31.087-3.439-3.357-7.217-5.611-12.091-5.748a15.682,15.682,0,0,0-5.913.861,103.587,103.587,0,0,1,8.476,10.885,3.9,3.9,0,0,1-1.272-1.03c-2.436-2.841-4.856-5.7-7.295-8.534-.311-.365-.685-.676-.983-.968a6.737,6.737,0,0,0-3.361,1.626,198.187,198.187,0,0,1,16.119,20.934,6.21,6.21,0,0,1-2.271-2.314c-4.4-5.9-8.954-11.661-13.824-17.174-.316-.358-.656-.694-.955-1.012C1557.477,249.871,1552.741,254.974,1551.022,258.818Zm86.978-.587c2.3,9.279,4.89,18.351,6.427,27.674a5.7,5.7,0,0,1-.627-1.528q-3.083-12.2-6.158-24.406c-.089-.354-.247-.692-.416-1.15-1.286.97-2.474,1.742-3.019,3.17a23.866,23.866,0,0,0-1.569,9.428,56.014,56.014,0,0,0,4.6,20.208c.892,2.089,1.784,4.178,2.651,6.278a54.034,54.034,0,0,1,4.287,23.734c-.211,3.913-.658,7.817-.792,11.733a113.437,113.437,0,0,0-.045,13.753c.794,9.1,2.783,17.948,7.228,26.077a142.2,142.2,0,0,1,8.994,19.076,19.929,19.929,0,0,0,1.451,2.612,6.009,6.009,0,0,0,.373-1.114c.2-2.483.472-4.963.547-7.45a78.334,78.334,0,0,0-.725-12.111,139.969,139.969,0,0,0-2.857-15.308c-1.448-6.04-2.988-12.058-4.483-18.086-.125-.5-.207-1.019-.307-1.528,1.21,3.524,2.162,7.074,3.123,10.622,2.661,9.82,5.252,19.661,5.8,29.883.187,3.544.085,7.11.006,10.663-.04,1.86-.311,3.713-.481,5.59a5.25,5.25,0,0,0,6.5,2.276c.122-.314.284-.674.411-1.048a45.877,45.877,0,0,0,2.358-12.547,89.073,89.073,0,0,0-.552-15.07q-.737-6.153-1.8-12.264c-1.13-6.431-2.287-12.86-3.637-19.247-1.8-8.52-3.749-17.01-5.735-25.487-2.343-9.993-4.723-19.977-7.23-29.93-1.357-5.383-3.006-10.7-4.542-16.033a77.522,77.522,0,0,1-2.49-12.449C1642.812,255.606,1640.452,256.894,1638,258.231Zm-87.4,1.328a26.625,26.625,0,0,0-2.313,6.48,43.753,43.753,0,0,0,.167,19.864,17.466,17.466,0,0,0,1.662,4.9,79.566,79.566,0,0,0,5.539,8.331,160.587,160.587,0,0,0,21.452,22.687q16.037,14.142,32.181,28.159a316.212,316.212,0,0,1,32.328,32.059c4.353,5.052,9.172,9.708,13.788,14.536.36.374.792.681,1.35,1.155a7.119,7.119,0,0,0,.646-1.564,6.047,6.047,0,0,0-.614-4.147,58.689,58.689,0,0,0-3.6-5.444c-2.194-2.748-4.576-5.344-6.877-8.006-4.836-5.593-9.84-11.05-14.469-16.807-9.266-11.528-17.971-23.49-26.286-35.716a473.865,473.865,0,0,0-40.7-51.389c-4.514-4.988-9.172-9.842-13.766-14.754A4.127,4.127,0,0,0,1550.6,259.559Zm103.943,126.389.209-.1c-.218-.516-.4-1.046-.658-1.542-2.712-5.319-5.455-10.618-8.146-15.946a196.8,196.8,0,0,1-11.154-27.316,143.831,143.831,0,0,1-4.919-20.923c-.99-5.793-1.831-11.624-3.112-17.354a216.383,216.383,0,0,0-9.007-29.99c-2.425-6.354-4.745-12.756-7.982-18.767-.036-.067,0-.174,0-.26a37.168,37.168,0,0,1,3.185,5.564,208.906,208.906,0,0,1,11.524,31.532c.173.634.409,1.25.616,1.875-.013-2.665-.285-5.279-.438-7.9-.207-3.51-.409-7.023-.442-10.538a47.358,47.358,0,0,0-4.2-19.7c-2.743-5.737-6.8-9.982-13.266-11.421a24.03,24.03,0,0,0-10.6-.191,6.07,6.07,0,0,0-3.94,2.754,8.031,8.031,0,0,0-.872,6.794,49.776,49.776,0,0,0,5.364,12.614,111.026,111.026,0,0,1,8.067,16.251c4.185,10.594,8.293,21.214,12.5,31.8,4.187,10.547,8.365,21.1,13.363,31.3,6.91,14.1,15.123,27.45,23.37,40.784A6.856,6.856,0,0,0,1654.542,385.949Zm-24.878,34.711.036-.289c-.6-.129-1.195-.258-1.791-.385s-1.219-.249-1.829-.38a97.575,97.575,0,0,1-22.409-8.089,186.049,186.049,0,0,1-34.844-22.727c-8.151-6.572-16.129-13.363-24.4-19.775a287.357,287.357,0,0,1-26.753-23.374,1.483,1.483,0,0,0-.358-.242c-.721.85-1.4,1.6-2.018,2.394a8.888,8.888,0,0,0-1.493,2.173c-1.479,3.955-1.644,7.9.4,11.762a29.311,29.311,0,0,0,7.875,9.673c4.051,3.137,8.153,6.207,12.269,9.259a100.66,100.66,0,0,0,11.619,7.366c11.221,6.147,22.135,12.8,32.884,19.737,5.842,3.769,11.82,7.306,17.835,10.789a51.706,51.706,0,0,0,27.06,7.063,29.889,29.889,0,0,0,16.382-4.95c.321-.209.612-.458,1.166-.879-1.744.332-3.179.567-4.6.879a35.776,35.776,0,0,1-9.008.728,58,58,0,0,1-9.35-1.386,94.923,94.923,0,0,1-24.539-8.389,253.1,253.1,0,0,1-25.99-15.063c-14.106-9.444-27.774-19.5-41.275-29.788-.832-.634-1.635-1.308-2.451-1.962a1.944,1.944,0,0,1,1.094.429c8.5,6.107,17.032,12.173,25.49,18.338a324.14,324.14,0,0,0,34.132,22.217,152.366,152.366,0,0,0,17.459,8.638,110.376,110.376,0,0,0,22,5.813C1626.029,420.544,1627.86,420.528,1629.664,420.659Zm43.925-171.805c.053.576.06.974.134,1.361q1.5,7.922,3.023,15.837c1.2,6.282,2.416,12.562,3.584,18.851,1.25,6.725,2.447,13.461,3.672,20.191,1,5.506,2.111,11,3,16.522,1.028,6.4,1.86,12.838,2.779,19.259a90.152,90.152,0,0,1,.932,13.839c-.042,3.642-.418,7.281-.705,10.918a63.178,63.178,0,0,1-1.907,11.021,33.858,33.858,0,0,1-7.812,14.854c-.2.22-.4.454-.594.683a20.724,20.724,0,0,0,3.019-2.647,74.6,74.6,0,0,0,10.6-14.389,42.466,42.466,0,0,0,5.72-18.224,144.757,144.757,0,0,0-.041-18.429c-.463-6.923-1.515-13.808-2.4-20.7-1.059-8.26-2.229-16.507-3.313-24.762-1.021-7.771-1.975-15.552-2.99-23.323-.647-4.968-2.658-9.214-6.727-12.329-.423-.325-.819-.687-1.222-1.039q-4.131-3.6-8.262-7.2A4.508,4.508,0,0,0,1673.589,248.854Zm-159.1,77.908c.214-.145.318-.176.349-.242.153-.32.283-.652.432-.977a19.372,19.372,0,0,1,8.307-9.3,28.665,28.665,0,0,1,16.916-3.281,35.138,35.138,0,0,1,10.769,2.972c.421.185.857.334,1.286.5a2.006,2.006,0,0,0-.616-.941,17.977,17.977,0,0,1-6.271-12.987,2.187,2.187,0,0,0-.694-1.339c-1.535-1.422-3.135-2.774-4.708-4.156-.38-.334-.749-.685-1.123-1.028l.225-.269c2.278,1.224,4.087,3.11,6.236,4.807.238-1.5.442-2.81.674-4.3q-6.937-5.683-13.939-11.415l.2-.256a140.336,140.336,0,0,1,14.048,10.9c.251-.512.385-.841.567-1.141a4.842,4.842,0,0,0,.3-4.334,56.9,56.9,0,0,1-1.519-6.354c-.3-1.473-.44-2.979-.667-4.587-.874-.352-1.71-.768-2.594-1.034a26.437,26.437,0,0,0-8.723-.972,18.3,18.3,0,0,0-12.427,5.154A12.255,12.255,0,0,0,1517.964,295a30.585,30.585,0,0,0,3.386,7.381c.957,1.624.639,2.434-1.108,3.014-.338.113-.683.209-1.012.34a8.551,8.551,0,0,0-4.414,3.524,18.828,18.828,0,0,0-2.837,10.954A11.257,11.257,0,0,0,1514.484,326.763Zm35.654-34.37c-.363.888-.632,1.682-1,2.427a16.539,16.539,0,0,0-1.246,9.788,13.957,13.957,0,0,0,3.657,7.726,27.432,27.432,0,0,0,2.336,2.383c4.258,3.657,8.558,7.261,12.814,10.916,2.567,2.2,5.188,4.358,7.588,6.734,2.847,2.816,5.53,5.8,8.2,8.8a153.973,153.973,0,0,0,11.726,12.066,24.908,24.908,0,0,0,9.1,5.4,64.693,64.693,0,0,1,21.392,11.8,141.3,141.3,0,0,1,14.266,14.044c3.237,3.553,6.345,7.248,10.06,10.329a33.527,33.527,0,0,0,4.327,2.85,7.385,7.385,0,0,0,1.84.523.988.988,0,0,0-.31-.727c-5.509-5.148-10.507-10.778-15.512-16.4-5.3-5.958-10.5-12.02-16.444-17.354q-18.944-17-38.061-33.808c-7.635-6.7-15.3-13.361-22.093-20.947-4.465-4.981-8.785-10.066-12.131-15.9A6.513,6.513,0,0,0,1550.139,292.392Zm75.766-61.075-.194.28c.565,1.773,1.17,3.535,1.686,5.324.505,1.749.957,3.515,1.36,5.288.413,1.818.747,3.651,1.105,5.479a22.05,22.05,0,0,1,.679,5.361c-1.884-7.37-3.043-14.932-6.009-21.964a15.169,15.169,0,0,0-5.826.036,16.768,16.768,0,0,0-6.1,2.932c-2.861,1.862-3.555,3.568-3.139,7.842a1.259,1.259,0,0,0,.191.185,1.9,1.9,0,0,0,.354.182c5.081,1.889,8.542,5.624,11.038,10.215a48.527,48.527,0,0,1,5.315,15.842c.131.845.293,1.686.44,2.529l.269.016c.311-.859.618-1.722.932-2.581a22.973,22.973,0,0,1,5.422-8.947,24.983,24.983,0,0,1,5.788-4.033c1.648-.87,3.291-1.753,5.054-2.692-.425-5.846,2.372-10.026,7.123-13.1a8.681,8.681,0,0,0-.294-.836,8.975,8.975,0,0,0-5.125-4.438c-4.171-1.635-8.356-1.2-12.636-.087.423,1.8.919,3.551,1.228,5.332s.814,3.582.334,5.433a82.043,82.043,0,0,0-2.471-10.985C1630.162,233.019,1628.033,232.167,1625.9,231.318Zm16.58,124.525.171-.056c-.038-.249-.075-.5-.111-.752-.391-2.685-.937-5.359-1.141-8.06a135.417,135.417,0,0,1,.6-21.879,55.471,55.471,0,0,0-.783-16.351,72.383,72.383,0,0,0-4.727-13.886,62.29,62.29,0,0,1-4.345-13.3,41.436,41.436,0,0,1-.672-13.412c.154-1.121.392-2.231.592-3.346a14.074,14.074,0,0,0-1.7,3.166,44.559,44.559,0,0,0-3.422,17.441c.042,2.049.138,4.1.258,6.14a41.164,41.164,0,0,0,.409,4.387c.509,3.028,1.157,6.031,1.688,9.056,1.121,6.4,2.163,12.818,3.315,19.214a148.641,148.641,0,0,0,9.344,30.6C1642.109,355.162,1642.309,355.5,1642.485,355.843Z" transform="translate(-1509.984 -228.815)" fill="#6a5975"></path><path id="Path_21" data-name="Path 21" d="M1580.176,319.9c-.774.481-1.15.042-1.515-.191-1.949-1.248-3.922-2.465-5.8-3.809a299.834,299.834,0,0,1-28.164-22.489c-.656-.6-1.272-1.243-1.9-1.878-.04-.04-.007-.154-.007-.461A361.794,361.794,0,0,0,1580.176,319.9Z" transform="translate(-1469.828 -152.567)" fill="#6a5975"></path><path id="Path_22" data-name="Path 22" d="M1574.254,266.741c2.2,3.9,10.282,34.686,9.913,37.425C1580.895,291.819,1577.609,279.41,1574.254,266.741Z" transform="translate(-1431.278 -182.37)" fill="#6a5975"></path><path id="Path_23" data-name="Path 23" d="M1551.693,274.82c.078.007.2-.02.229.022q17.265,20.806,34.513,41.627c.209.254.36.556.676,1.05C1583.421,314.763,1553.044,278.053,1551.693,274.82Z" transform="translate(-1458.907 -172.479)" fill="#6a5975"></path><path id="Path_24" data-name="Path 24" d="M1529.984,264.7a4.786,4.786,0,0,1,.7.494c9.586,9.528,20.059,18.046,30.366,26.755a17.307,17.307,0,0,1,1.32,1.379l-.2.249a1.826,1.826,0,0,1-.4-.185,365.5,365.5,0,0,1-29.4-25.619c-.91-.9-1.751-1.862-2.625-2.8Z" transform="translate(-1485.783 -184.867)" fill="#6a5975"></path></g></g><g id="Group_45" data-name="Group 45" transform="translate(-84.004 1011.408)" opacity="0.06"><g id="Group_7" data-name="Group 7"><path id="Path_16" data-name="Path 16" d="M1043.5,158.38a5.676,5.676,0,0,1-2.406,2.7c.052.27.093.479.133.689a19.707,19.707,0,0,1,.046,7.938,12.559,12.559,0,0,1-2.9,5.737,7.123,7.123,0,0,1-6.194,2.528c-.535-.043-1.056-.239-1.59-.313a2.682,2.682,0,0,0-1.144,0,4.668,4.668,0,0,1-3.972-.174c-.095.271-.177.483-.242.7a20.167,20.167,0,0,1-2.527,5.607,15.546,15.546,0,0,1-4.665,4.551,23.453,23.453,0,0,1-6.133,2.793,12.487,12.487,0,0,1-5.207.438,10.858,10.858,0,0,1-6.262-3.177c-1.237-1.235-.9-1.073-2.7-1.18-1.468-.086-2.936-.2-4.4-.369a11,11,0,0,1-2.01-.519,1.385,1.385,0,0,0-1.116.079,17.8,17.8,0,0,1-5.063,1.6,12.042,12.042,0,0,1-5.989-.812,11.738,11.738,0,0,1-6.331-5.417,1.152,1.152,0,0,0-.834-.635,7.308,7.308,0,0,1-4.1-2.462,14.893,14.893,0,0,1-2.861-4.916,38.7,38.7,0,0,1-1.963-9.326,58.479,58.479,0,0,1,.021-11.1c.143-1.7.355-3.4.533-5.105.011-.1,0-.207,0-.448-.209.2-.345.31-.467.436a12.91,12.91,0,0,1-5.717,3.581,11.609,11.609,0,0,1-7.583-.345,18.035,18.035,0,0,1-1.66-.741,3.459,3.459,0,0,0-1.775-.27c-.864.037-1.733.1-2.595.06a7.174,7.174,0,0,1-3.451-1.038,5.094,5.094,0,0,1-.431-.29,3.474,3.474,0,0,1-1.554-3.486,3.76,3.76,0,0,1,2.473-3.023,7.652,7.652,0,0,1,2.09-.417c1.187-.094,2.38-.091,3.571-.135a29.676,29.676,0,0,0,12.092-3.229,35.876,35.876,0,0,0,6.976-4.621,37.419,37.419,0,0,0,5.839-5.629,15.35,15.35,0,0,1,1.3-1.364,15.824,15.824,0,0,1,9.661-4.479c.022,0,.043,0,.065,0a7.064,7.064,0,0,0,4.444-1.571c.621-.394,1.277-.731,1.91-1.107q1.145-.68,2.275-1.383a6.015,6.015,0,0,0,2.769-4.7,11.971,11.971,0,0,0-.295-4.515,196.654,196.654,0,0,0-10.056-28.889c-.967-2.2-2.123-4.316-3.189-6.473-.558-1.126-1.1-2.261-1.668-3.382a26.192,26.192,0,0,1-2.749-9.96c-.387-5.063-1.225-10.064-2.1-15.057a61.165,61.165,0,0,0-2.592-9.524,144.5,144.5,0,0,0-9.276-20.825c-1.6-2.978-3.128-6-4.766-8.954a138.3,138.3,0,0,0-9.181-13.948,140.83,140.83,0,0,0-13.734-16.372c-2.355-2.392-4.823-4.675-7.237-7.01a1.8,1.8,0,0,1-.424-.481.589.589,0,0,1,.018-.526.682.682,0,0,1,.569-.115,1.64,1.64,0,0,1,.578.4c.521.489,1.03.992,1.541,1.492,2.342,2.285,4.751,4.506,7.012,6.868A154.77,154.77,0,0,1,950.478-5.8,136.781,136.781,0,0,1,960.71,10.863c2.955,5.742,6.055,11.411,8.524,17.391a104.958,104.958,0,0,1,4.731,13.485,98.122,98.122,0,0,1,1.93,10.48c.4,2.72.744,5.453.98,8.193A26.674,26.674,0,0,0,979.651,70.5c.566,1.1,1.066,2.231,1.647,3.32a134.441,134.441,0,0,1,6.766,15.264,205.137,205.137,0,0,1,6.831,21.555,12.639,12.639,0,0,0,2.047,4.453,6.037,6.037,0,0,0,4.07,2.56,11.96,11.96,0,0,0,1.939.151,23.226,23.226,0,0,0,5.023-.528,63.374,63.374,0,0,1,15.643-1.826,42.525,42.525,0,0,1,10.928,1.39,25.776,25.776,0,0,1,9.665,4.757,10.659,10.659,0,0,1,2.858,3.5,3.208,3.208,0,0,1,.4,1.94,2.674,2.674,0,0,1-1.564,2.167,9.6,9.6,0,0,1-2.729.819c-.622.092-1.24.2-1.86.3a1.252,1.252,0,0,0-1.083.892,6.764,6.764,0,0,1-2.1,3,4.748,4.748,0,0,1-1.663.985,5.556,5.556,0,0,0-.528.222,4.3,4.3,0,0,0,.237.452q4.875,7.063,9.758,14.122a36.363,36.363,0,0,1,3.323,5.578,6.346,6.346,0,0,1,.7,3.2,1.94,1.94,0,0,1-2.339,1.908,6.729,6.729,0,0,1-3.713-1.866C1043.792,158.688,1043.678,158.564,1043.5,158.38Zm-48.2-37.409a2.206,2.206,0,0,0-.034.239,42.539,42.539,0,0,0,.741,9.035c1.04,5.712,2.467,11.337,3.932,16.951q2.9,11.126,6.252,22.128c1.484,4.908,2.781,9.874,4.159,14.814a2.732,2.732,0,0,1,.051.349,27.442,27.442,0,0,1-1.059-2.936c-.955-3.283-1.867-6.579-2.824-9.863-1.738-5.966-3.537-11.915-5.232-17.893-1.925-6.791-3.68-13.628-5.149-20.535a49.385,49.385,0,0,1-1.305-12.356c.019-.465.032-.932.049-1.442a2.459,2.459,0,0,0-1.468.411,7.741,7.741,0,0,0-2.783,3.106,19.905,19.905,0,0,0-2.031,6.807,48.7,48.7,0,0,0-.4,7.371,93.029,93.029,0,0,0,1.7,15.656,161.7,161.7,0,0,0,10.453,33.753,2.5,2.5,0,0,0,.434.716,9.758,9.758,0,0,0,7.069,3.381,15.851,15.851,0,0,0,7.981-2.225c.035-.019.057-.063.117-.132-.04-.159-.08-.348-.134-.531-.539-1.827-1.1-3.65-1.613-5.484-.381-1.353-.708-2.722-1.05-4.086a5.006,5.006,0,0,1-.077-.652l.08-.007q1.571,5.276,3.14,10.55a1.259,1.259,0,0,0,.274-.055,13.48,13.48,0,0,0,3.42-2.561,1.778,1.778,0,0,0,.39-.926c.116-.81.152-1.632.237-2.447a60.005,60.005,0,0,0,.247-8.018,92.267,92.267,0,0,0-4.444-25.3,75.215,75.215,0,0,0-8.2-17.915,37.786,37.786,0,0,0-6.8-8.163,18.012,18.012,0,0,0-4.942-3.184c-.277-.116-.554-.263-.894-.032.031.2.054.413.1.621.228,1.08.43,2.167.7,3.236q2.744,10.9,6.229,21.593c1.614,4.985,3.384,9.919,5.084,14.876.059.169.114.341.17.511l-.181.059c-2.29-6.482-4.795-12.888-6.772-19.479C998.92,134.3,996.875,127.711,995.3,120.971Zm-3.046,59.157-.084.05a2.466,2.466,0,0,1-.212-.278c-.336-.581-.68-1.16-1-1.751a70.593,70.593,0,0,1-7.476-22.186,56.463,56.463,0,0,1,0-19.3,36.55,36.55,0,0,1,2.121-7.351,25.937,25.937,0,0,1,5.563-8.681,3.207,3.207,0,0,0,.284-.437,2.944,2.944,0,0,0-.5.2c-1,.689-2.038,1.326-2.972,2.092a28.381,28.381,0,0,0-8.959,13.641A38.209,38.209,0,0,0,977.38,144a52.035,52.035,0,0,0-.066,9.84,77.585,77.585,0,0,0,7.119,25.659,3.639,3.639,0,0,0,.526.815,21.93,21.93,0,0,0,3.354,3.252,11.878,11.878,0,0,0,6.581,2.513c1.675.115,3.352.193,5.054.289-.044-.112-.1-.269-.167-.421a150.034,150.034,0,0,1-5.8-15.309,135.344,135.344,0,0,1-5.512-24.089,61.362,61.362,0,0,1-.182-17.321,19.626,19.626,0,0,1,2.237-6.939c.073-.127.123-.266.183-.4a1.322,1.322,0,0,0-.423.339,27.746,27.746,0,0,0-5.154,9.594,36.859,36.859,0,0,0-1.245,4.974,52.185,52.185,0,0,0-.723,6.048A60.6,60.6,0,0,0,983.742,155a74.01,74.01,0,0,0,8.237,24.576C992.076,179.757,992.16,179.945,992.25,180.128Zm51.176-22.935c-.262-.568-.5-1.079-.732-1.589a136.838,136.838,0,0,0-10.125-18.444,70.836,70.836,0,0,0-9.234-11.473,30.022,30.022,0,0,0-8.231-6.031,8.992,8.992,0,0,0-4.146-.994c.174.075.25.111.33.14a20.431,20.431,0,0,1,4.643,2.42,36.934,36.934,0,0,1,8.2,8.272,67.563,67.563,0,0,1,6.962,11.792,79.491,79.491,0,0,1,5.458,15.472c.043.182.073.369.109.553-.87-2.555-1.642-5.125-2.538-7.652a74.041,74.041,0,0,0-10.511-20.148,37.189,37.189,0,0,0-7.16-7.4,16.842,16.842,0,0,0-6.636-3.274,7.929,7.929,0,0,0-3.03-.071,1.1,1.1,0,0,0-.907.539c.288.137.528.268.779.368,1.087.431,2.193.817,3.261,1.288a39.289,39.289,0,0,1,6.459,3.735,28.7,28.7,0,0,1,7.492,7.31,31.336,31.336,0,0,1,4.1,8.949,32.651,32.651,0,0,1,1.368,13.608c-.054.424-.111.848-.174,1.332.471.2.919.36,1.333.579s.817.511,1.336.842c-.433-2.034-.844-3.96-1.253-5.886l.146-.039a8.569,8.569,0,0,1,.29.837c.345,1.431.78,2.85.979,4.3a3.389,3.389,0,0,0,1.632,2.475,8.764,8.764,0,0,0,4.1,1.688,4.784,4.784,0,0,0,3.4-.851,100.668,100.668,0,0,0-4.533-12.2,65.957,65.957,0,0,1,4.808,11.922C1042.331,158.956,1042.5,157.791,1043.426,157.193Zm-39.944-37.32c.3.184.474.3.653.4,1.047.6,2.127,1.161,3.138,1.82a45.448,45.448,0,0,1,18.295,25.834c.058.228.1.46.156.69a.287.287,0,0,1-.185-.217,46.464,46.464,0,0,0-8.74-16.98,39.123,39.123,0,0,0-14.346-11.509,8.137,8.137,0,0,0-3.88-.643,1.344,1.344,0,0,0,.354.161,19.277,19.277,0,0,1,4.708,2.288,31.212,31.212,0,0,1,7.055,6.756,59.359,59.359,0,0,1,7.455,12.689,95.029,95.029,0,0,1,6.837,23.174c.041.245.095.489.159.821.575-1.573,1.1-3.036,1.642-4.5a27.883,27.883,0,0,0,1.688-8.046,34.8,34.8,0,0,0-1.712-12.093,28.126,28.126,0,0,0-11.738-15.615,35.217,35.217,0,0,0-8.758-4.349C1005.4,120.279,1004.509,120.122,1003.481,119.873Zm-22.194,5.157-.083-.109c-.192.115-.391.22-.576.345a16.788,16.788,0,0,0-4.138,4.089,32.609,32.609,0,0,0-4.863,10.755,50.332,50.332,0,0,0-1.287,6.756,62.542,62.542,0,0,0-.556,7.558,88.026,88.026,0,0,0,3.686,26.111,5.637,5.637,0,0,0,.721,1.514,11.347,11.347,0,0,0,8.911,5.01,12.455,12.455,0,0,0,6.157-1.355c.052-.023.085-.089.147-.157-4.992-3.194-8.06-7.926-10.609-13.1.213,1.212.493,2.4.783,3.583.3,1.22.611,2.435.908,3.655.283,1.165.623,2.317.8,3.507a4.187,4.187,0,0,1-.367-.9c-1.138-3.751-2.092-7.55-2.956-11.373-.247-1.1-.541-2.185-.894-3.251a88.233,88.233,0,0,1-3.64-14.747,41.219,41.219,0,0,1,0-13.837,23.506,23.506,0,0,1,7.273-13.475C980.908,125.42,981.094,125.222,981.288,125.03Zm16.866-5.342-.063.122c.065.044.128.092.2.131a23.773,23.773,0,0,1,5.513,4.5,49.444,49.444,0,0,1,7.668,11.24,85.227,85.227,0,0,1,7.118,19.414c2.283,9.612,3.437,19.31,2,29.182a2,2,0,0,0,.076.486c.224-.265.382-.439.526-.624a16.135,16.135,0,0,0,2.583-4.782,27.608,27.608,0,0,0,1.211-12.878c-.216-1.563-.509-3.118-.818-4.665a93.446,93.446,0,0,0-7.3-22.427A54.414,54.414,0,0,0,1009,127.11a25.651,25.651,0,0,0-7.7-6.276A14.73,14.73,0,0,0,998.154,119.689Zm-19.792,6.83-.076-.085a7.939,7.939,0,0,0-.655.49c-.879.8-1.8,1.571-2.61,2.438a32.054,32.054,0,0,0-7.2,13.206c-.576,1.97-.945,4-1.359,6.017a43.364,43.364,0,0,0-.748,7.084,79.846,79.846,0,0,0,2.135,21.036,2.07,2.07,0,0,0,.341.761,7.349,7.349,0,0,0,2.588,2.228,5.887,5.887,0,0,0,2.267.627.853.853,0,0,0,0-.174c-.038-.146-.08-.293-.124-.437a85.5,85.5,0,0,1-3.471-20.426,67.4,67.4,0,0,1,.971-15.689,41.014,41.014,0,0,1,3.072-9.965,23.834,23.834,0,0,1,4.584-6.8C978.178,126.73,978.268,126.623,978.361,126.519Zm50.667,30.547A43.868,43.868,0,0,1,1032,169.02c-.479-1.9-.883-3.822-1.341-5.728a39.939,39.939,0,0,0-1.8-5.59.921.921,0,0,0-.192.363c-.279.912-.574,1.819-.821,2.739a2.844,2.844,0,0,0-.068,1.009c.149,1.461.328,2.918.49,4.378a.739.739,0,0,1-.054.237c-.429-1.387-.386-2.856-.816-4.239a8.822,8.822,0,0,0-.476,1.023,8.464,8.464,0,0,0-.7,4.114c.1,1.313.02,2.64.021,3.962,0,.191,0,.383,0,.55a2.091,2.091,0,0,0,2.151.163,7.666,7.666,0,0,1,3.326-.414c.581.063,1.16.151,1.738.245a5.575,5.575,0,0,0,5.852-2.727,9.324,9.324,0,0,0,.834-7.464c-.01-.035-.06-.059-.133-.128a7.672,7.672,0,0,1-4.014-.071,12.341,12.341,0,0,1,.511,2.954c-.322-1.047-.643-2.093-.947-3.082a16.083,16.083,0,0,1-1.879-1.043c-.989-.732-1.937-1.526-2.863-2.341A3.937,3.937,0,0,0,1029.028,157.066Zm-13.461-37.672a4.146,4.146,0,0,0,.382.239,26.789,26.789,0,0,1,5.606,3.84,58.46,58.46,0,0,1,8.991,10.048,121.687,121.687,0,0,1,12.924,23.092,3.734,3.734,0,0,0,1.005,1.4,6.942,6.942,0,0,0,2.919,1.635c1.129.261,1.654-.2,1.611-1.353a2.825,2.825,0,0,0-.113-.833,19.412,19.412,0,0,0-.833-2.11,36.232,36.232,0,0,0-3.04-4.913c-1.588-2.247-3.158-4.508-4.735-6.762-2.807-4.011-5.582-8.046-8.431-12.027a47.763,47.763,0,0,0-6.27-7.19,20.241,20.241,0,0,0-6.163-4.033A14.666,14.666,0,0,0,1015.567,119.395Zm-27.283,2.241-.062-.109c-.135.057-.276.106-.407.173a32.867,32.867,0,0,0-4.723,3.094,22.777,22.777,0,0,0-8.812,14.962,36.509,36.509,0,0,0-.256,9.973,80.583,80.583,0,0,0,5.728,22.131,31.386,31.386,0,0,0,3.266,5.906c.111.16.241.306.363.459a1.251,1.251,0,0,0-.125-.609c-.639-1.564-1.314-3.114-1.91-4.693a70.505,70.505,0,0,1-4.485-19.352,49.836,49.836,0,0,1,.651-13.3,34.88,34.88,0,0,1,2.652-8.261,27.823,27.823,0,0,1,7.529-9.88C987.892,121.966,988.087,121.8,988.283,121.636ZM959.513,145.11c1.336-1.52,2.707-3.011,4-4.566,1.98-2.381,3.28-4.354,3.377-5.013-.183.178-.333.331-.488.476-1.38,1.282-2.716,2.616-4.15,3.834a21.356,21.356,0,0,1-8.184,4.523c-.229.064-.462.114-.693.17l-.046-.132a23.822,23.822,0,0,0,7.985-4.244c2.615-2.063,6.156-5.595,6.421-6.455-.223.183-.4.336-.586.483-1.184.949-2.324,1.958-3.559,2.834a31.172,31.172,0,0,1-18.115,6.128c-.91.007-1.821.028-2.726.11a6.364,6.364,0,0,0-1.64.362,3.161,3.161,0,0,0-1.747,1.907,28.884,28.884,0,0,0,8.2.033,23.21,23.21,0,0,1-8.217.316,2.029,2.029,0,0,0,.189,1.4,1.666,1.666,0,0,0,1.332,1.109,9.321,9.321,0,0,0,5.775-1.091,16.825,16.825,0,0,1,1.545-.832,5.5,5.5,0,0,1,3.468-.551c1.107.208,2.229.347,3.324.6a9.219,9.219,0,0,0,6.786-.978,5.252,5.252,0,0,0,3.072-3.714,4.394,4.394,0,0,1,.186-.622q.528-1.655,1.056-3.309A44.418,44.418,0,0,1,959.513,145.11Zm7.755,31.253.227-.125c-.045-.209-.088-.419-.135-.628a79.514,79.514,0,0,1-1.932-12.945,63.327,63.327,0,0,1,.647-14.408,43.682,43.682,0,0,1,3.9-12.327A26.3,26.3,0,0,1,980.258,124.6a1.543,1.543,0,0,0,.241-.217,4.58,4.58,0,0,0-1.261.114,11.108,11.108,0,0,0-4.319,2.178,19.894,19.894,0,0,0-4.4,4.745,36.284,36.284,0,0,0-5.426,13.748,83.125,83.125,0,0,0-1.219,11.364,49.129,49.129,0,0,0,1.3,14.317A20.089,20.089,0,0,0,967,175.7,5.576,5.576,0,0,1,967.267,176.362Zm78.757-48.277a46.709,46.709,0,0,0-29.05-10.114.91.91,0,0,0,.352.154,47.8,47.8,0,0,1,6.887,2.082c1.706.67,3.417,1.337,5.072,2.121a45.8,45.8,0,0,1,10.353,6.84c.193.166.4.317.512.4,1.047-.174,1.99-.3,2.918-.5.738-.153,1.464-.374,2.187-.592A4.933,4.933,0,0,0,1046.024,128.085Zm-34.06-10.82.006.08a3.743,3.743,0,0,0,.431.062c2.331.084,4.662.148,6.992.247a43.123,43.123,0,0,1,8.337,1.172,52.263,52.263,0,0,1,5.2,1.626c1.5.535,2.977,1.16,4.437,1.806a36.689,36.689,0,0,1,8.266,5.191c.162.133.335.253.529.4a2.09,2.09,0,0,0,.234-.273,1.944,1.944,0,0,0-.013-1.872,8.869,8.869,0,0,0-2.19-2.955,22.449,22.449,0,0,0-7.687-4.377,36.326,36.326,0,0,0-7.783-1.765q-.646-.073-1.293-.12c-.4-.029-.8-.04-1.206-.059a48.407,48.407,0,0,1,11.7,3.933.381.381,0,0,1-.251-.017,49.408,49.408,0,0,0-8.542-2.835c-1.009-.246-2.031-.454-3.057-.612a35.509,35.509,0,0,0-4.178-.515,47.435,47.435,0,0,0-9.568.781A3.306,3.306,0,0,0,1011.965,117.265Zm15.7,7.718a89.483,89.483,0,0,1,7.613,9.579,5.49,5.49,0,0,0,3.876-3.19c.249-.5.467-1.018.7-1.534-1.6-1.728-7.366-5.566-10.959-7.291-3.987-1.914-10.46-4-12.526-4.15.113.034.194.061.278.083a21.5,21.5,0,0,1,8.924,4.614,7.8,7.8,0,0,0,1.165.82,48.11,48.11,0,0,1,8.948,6.951c.115.111.214.237.32.356A73.775,73.775,0,0,0,1027.662,124.984Zm-85.024,24.287-.04.111a6.924,6.924,0,0,0,1.074.185c.865.02,1.732.021,2.6-.027a5.059,5.059,0,0,1,2.637.507,11.176,11.176,0,0,0,5.776,1.261,11.391,11.391,0,0,0,8.055-4.112,15.815,15.815,0,0,0,1.159-1.64,2.255,2.255,0,0,0,.15-.5c-.2.148-.287.207-.368.272a9.794,9.794,0,0,1-6.728,2.322,26.906,26.906,0,0,1-3.721-.555c-3.1-.583-3.282-.569-6.069.928a8.961,8.961,0,0,1-2.909,1.082C943.717,149.185,943.176,149.217,942.638,149.271Zm97.579,20.209c-.2.272-.309.422-.422.568-1.547,1.99-3.458,3.191-6.1,2.809-.344-.05-.686-.1-1.028-.152a7.264,7.264,0,0,0-3.474.075,4.309,4.309,0,0,1-2.912.157c-.015,0-.04.016-.1.042-.159,1.146-.322,2.314-.48,3.454a2.787,2.787,0,0,0,2.888.4,4.4,4.4,0,0,1,2.668-.07,5.961,5.961,0,0,0,5.886-1.515,11.048,11.048,0,0,0,2.457-3.636A6.635,6.635,0,0,0,1040.216,169.479Z" transform="translate(-926.522 32.014)" fill="#6a5975" stroke="rgba(0,0,0,0)" stroke-width="1"></path><path id="Path_17" data-name="Path 17" d="M1004.337,135.16c.121.187.252.369.359.564,1.586,2.893,2.848,5.936,4.138,8.965a138.421,138.421,0,0,1,6.531,18.9,86.689,86.689,0,0,1,1.957,9.66.736.736,0,0,1-.021.311c-.765-3.293-1.437-6.61-2.32-9.869s-1.883-6.49-3-9.676c-1.125-3.206-2.405-6.361-3.71-9.5-1.294-3.114-2.705-6.18-4.064-9.266Z" transform="translate(-926.802 31.411)" fill="#6a5975" stroke="rgba(0,0,0,0)" stroke-width="1"></path></g><g id="Group_10" data-name="Group 10" transform="translate(24.693 26.248)"><path id="Path_25" data-name="Path 25" d="M1150.114,158.232c-.082.688-.139,1.257-.218,1.824a11.947,11.947,0,0,1-.983,3.226,4.162,4.162,0,0,1-5.477,1.837,2.07,2.07,0,0,0-.778-.252c.1.171.189.347.294.514.415.661.852,1.308,1.249,1.979a8.517,8.517,0,0,1,.148,8.744,11.685,11.685,0,0,1-5.983,5.352,14.945,14.945,0,0,1-8.992.852c-.646-.121-1.285-.271-1.928-.4-.034-.007-.075.022-.173.053-.02.484-.035.99-.063,1.5a13.589,13.589,0,0,1-1.355,5.52,8.882,8.882,0,0,1-3.31,3.569,6.541,6.541,0,0,1-7.277.051,24.821,24.821,0,0,1-2.423-1.884c-.171-.137-.322-.3-.519-.485-.161.206-.283.365-.409.521a5.143,5.143,0,0,1-3.049,1.943,10.17,10.17,0,0,1-4.816-.066,6.551,6.551,0,0,1-3.333-2.1l-.672-.788c-1.108-.233-2.155-.427-3.189-.677a8.5,8.5,0,0,1-3.033-1.313.89.89,0,0,0-1.18,0,3.835,3.835,0,0,1-2.324.681,7.451,7.451,0,0,1-5.684-2.2,15.189,15.189,0,0,1-3.258-4.6,89.75,89.75,0,0,1-5.088-14.181c-1.43-5.738-3.293-11.353-5.125-16.976-.934-2.868-1.735-5.779-2.521-8.692a21.273,21.273,0,0,1-.636-7.935,26.3,26.3,0,0,1,1.508-6.462,13.814,13.814,0,0,1,4.336-5.732,36.233,36.233,0,0,1,3.139-2.274,4.836,4.836,0,0,0,1.94-2.314,7.188,7.188,0,0,0,.581-2.751c-.01-.779.024-1.561-.021-2.339a6.151,6.151,0,0,0-.263-1.633,22.261,22.261,0,0,0-2.124-4.768,306.231,306.231,0,0,0-33.589-43.3,329.523,329.523,0,0,0-40.626-37.419A238.8,238.8,0,0,0,972.15,4.434a161.837,161.837,0,0,0-17.486-8.352c-.894-.362-1.792-.715-2.679-1.092a5.067,5.067,0,0,1-.681-.432.654.654,0,0,1,.79-.165c.666.209,1.332.416,1.986.659A126.522,126.522,0,0,1,966.372.417a216.013,216.013,0,0,1,32.46,20.22,329.668,329.668,0,0,1,52.077,48.509,299.8,299.8,0,0,1,26.741,35.555,22.245,22.245,0,0,0,3.3,4.046,5.679,5.679,0,0,0,2.875,1.568,4.525,4.525,0,0,0,2.66-.221,12.891,12.891,0,0,0,3.118-1.71,17.664,17.664,0,0,1,2.731-1.777,30.327,30.327,0,0,1,11.392-3.738,20.861,20.861,0,0,1,7.451.545c2.51.7,5.037,1.351,7.518,2.144,1.776.568,3.493,1.318,5.225,2.015,4.246,1.708,8.481,3.438,12.726,5.148,3.521,1.419,7.052,2.813,10.569,4.242a15.483,15.483,0,0,1,1.973,1,7.377,7.377,0,0,1,2.875,2.969c.43.817.816,1.658,1.24,2.478.809,1.568,1.606,3.144,2.455,4.691a19.62,19.62,0,0,1,1.7,3.748,6.755,6.755,0,0,1-.706,5.907,1.237,1.237,0,0,0-.08.213,3.782,3.782,0,0,0,.306.34,5.124,5.124,0,0,1,1.679,3.524,8.936,8.936,0,0,1-.99,4.944,3.049,3.049,0,0,0-.315,1.907c.057.365.093.733.161,1.1a7.748,7.748,0,0,1-.792,5.078,8.447,8.447,0,0,1-3.045,3.157,3.272,3.272,0,0,1-2.492.406C1150.848,158.358,1150.51,158.3,1150.114,158.232Zm-23.134-7-.091.052c-1.619-1.385-3.235-2.775-4.859-4.154q-6.237-5.3-12.481-10.582c-2.284-1.934-4.612-3.818-6.852-5.8-3.3-2.923-6.528-5.934-9.82-8.869-1.1-.981-2.292-1.864-3.465-2.76a4.634,4.634,0,0,0-1.919-.91c.177.238.263.372.366.49,3.062,3.538,6.116,7.083,9.407,10.414,1.744,1.765,3.533,3.483,5.3,5.226.145.142.272.3.408.454a147.1,147.1,0,0,1-16.252-16.759c-1.037.111-1.328.705-.807,1.492q.817,1.23,1.663,2.443a108.369,108.369,0,0,0,12.665,14.9q12.759,12.7,26.179,24.708c5.422,4.855,10.976,9.563,16.472,14.335a3.54,3.54,0,0,0,.352.239,1.528,1.528,0,0,0,.182-.205,7.557,7.557,0,0,0,.684-6.738,11.946,11.946,0,0,0-.994-1.905c-.653-1.068-1.364-2.1-2.024-3.165a10.867,10.867,0,0,1-.558-1.257c-.691-.542-1.529-1.2-2.368-1.857s-1.689-1.3-2.519-1.97a14.846,14.846,0,0,1-2.369-2.063,2.3,2.3,0,0,1,.739.383c1.213.911,2.416,1.832,3.631,2.741a30.6,30.6,0,0,0,4.523,3.262c.5.246.956.561,1.443.824a3.306,3.306,0,0,0,4.758-1.776,13.466,13.466,0,0,0,.8-3.215,8.285,8.285,0,0,0-2.073-6.785,19.575,19.575,0,0,0-9.51-5.5c-1.107-.309-2.23-.566-3.322-.921-1.755-.57-3.49-1.2-5.234-1.8-.184-.063-.378-.1-.566-.148l-.058.109a103.258,103.258,0,0,1,16.007,12.023,6.1,6.1,0,0,1-1.073-.74,129.02,129.02,0,0,0-15.4-11.087c-1.441-.863-2.86-1.769-4.343-2.551-1.322-.7-2.715-1.263-4.086-1.864q-4.259-1.868-8.353-4.07a66.686,66.686,0,0,1-6.847-4.477c-.194-.138-.4-.263-.6-.395a.235.235,0,0,0,.07.19c.474.423.934.865,1.427,1.264q8.081,6.542,15.888,13.407,2.514,2.218,5.01,4.453C1126.424,150.6,1126.692,150.926,1126.98,151.234Zm-17.79,30.1a11.747,11.747,0,0,0,.51-2.98,19.54,19.54,0,0,0-1.026-6.906,40.672,40.672,0,0,0-4.227-9.278c-.864-1.372-1.777-2.712-2.655-4.076-.967-1.5-1.91-3.017-2.878-4.518a17.5,17.5,0,0,0-1.19-1.713,86.36,86.36,0,0,1-10.984-16.675,46.991,46.991,0,0,1-3.652-9.524,17.724,17.724,0,0,1-.631-5.413c.032-.5.1-.994.156-1.492a1,1,0,0,0-.449.348,7.3,7.3,0,0,0-1.1,2.252,13.831,13.831,0,0,0-.375,5.118,34.212,34.212,0,0,0,2.057,8.656,83.989,83.989,0,0,0,9,17.41,135.216,135.216,0,0,0,14.483,18.332c.1.111.2.233.293.35a1.255,1.255,0,0,1-.479-.354c-1.623-1.767-3.288-3.5-4.857-5.311a114.618,114.618,0,0,1-15.021-21.731,61.813,61.813,0,0,1-4.625-11.06,28.263,28.263,0,0,1-1.327-7.795,11.731,11.731,0,0,1,1.02-5.14c.176-.381.412-.735.619-1.1l-.062-.117a7.09,7.09,0,0,0-.967.267c-1.017.437-2.021.911-3.035,1.356a2.08,2.08,0,0,0-1.013.941,10.146,10.146,0,0,0-1.137,4.179,25.513,25.513,0,0,0,.268,5.819,63.633,63.633,0,0,0,3.047,11.778,143.229,143.229,0,0,0,10.759,23.141,186.789,186.789,0,0,0,14.227,21.425,4.068,4.068,0,0,0,.317.327,10.185,10.185,0,0,0,4.81-6.1,101.672,101.672,0,0,1-11.869-15.673A148.75,148.75,0,0,0,1109.19,181.331Zm-19.2,6.137a2.943,2.943,0,0,0,2.167-.594,88.055,88.055,0,0,1-6.022-10.062,6.992,6.992,0,0,1,.767,1.075c1.629,2.806,3.332,5.565,5.179,8.234.125.182.262.358.406.553a1.955,1.955,0,0,1,1.987.348,4.613,4.613,0,0,0,1.137.6,29.4,29.4,0,0,0,3.192.9,8.029,8.029,0,0,0,4.548-.3c.2-.077.389-.175.62-.281-.134-.184-.211-.3-.3-.415-2.822-3.5-5.419-7.172-7.9-10.92a166,166,0,0,1-14.55-26.668,90.507,90.507,0,0,1-4.752-13.844,37.568,37.568,0,0,1-1.285-9.3,12.894,12.894,0,0,1,.776-4.826c.1-.243.182-.492.323-.875-.31.2-.516.314-.71.451a8.424,8.424,0,0,0-3.219,5.619,22.5,22.5,0,0,0-.239,6.122,51.632,51.632,0,0,0,2.016,10.307,115.6,115.6,0,0,0,8.289,20.257,198.979,198.979,0,0,0,10.029,17.312c.076.119.131.25.194.376a.967.967,0,0,1-.37-.354,166.866,166.866,0,0,1-11.54-19.841,111,111,0,0,1-6.9-17.243,50.46,50.46,0,0,1-2.185-11.518,18.326,18.326,0,0,1,1.146-8.207,1.627,1.627,0,0,0,.029-.37,11.935,11.935,0,0,0-1.9,2.645,20.923,20.923,0,0,0-1.807,6.308,20.038,20.038,0,0,0,.475,8.545c.776,2.914,1.579,5.826,2.512,8.694,1.836,5.643,3.682,11.284,5.119,17.04a87.579,87.579,0,0,0,5.158,14.221,12.588,12.588,0,0,0,3.356,4.435,7.466,7.466,0,0,0,1.586,1.039,4.949,4.949,0,0,0,2.139.481,100.367,100.367,0,0,1-5.173-9.022c-1.784-3.59-3.831-8.626-3.837-9.354,1.408,3.094,2.783,6.272,4.292,9.386A82.614,82.614,0,0,0,1089.991,187.468Zm-3.285-73.557c.53-.033,1-.085,1.467-.087a17.043,17.043,0,0,1,4.428.656,59.045,59.045,0,0,1,8.979,3.161c2.862,1.269,5.728,2.536,8.538,3.913,5.057,2.48,9.97,5.229,14.8,8.122,4.462,2.672,8.861,5.443,13.114,8.442.159.111.308.234.46.352a1.251,1.251,0,0,1-.617-.237c-3.669-2.318-7.3-4.69-11.01-6.944a196.968,196.968,0,0,0-23.655-12.5c-2.214-.964-4.454-1.882-6.729-2.69-1.755-.623-3.573-1.083-5.384-1.531a10.2,10.2,0,0,0-3.537-.295c-.3.031-.588.111-.893.171a2.479,2.479,0,0,0,.6,1.474,12.422,12.422,0,0,0,1.775,1.777,64.583,64.583,0,0,1,6.215,5.129,25.366,25.366,0,0,0,5.564,4.242q1.279.674,2.555,1.354a14.563,14.563,0,0,0,2.973,1.167,46.143,46.143,0,0,0,9.755,1.663,15.879,15.879,0,0,1,8.575,3.07c2.055,1.5,4.126,2.978,6.147,4.523a27.258,27.258,0,0,0,8.377,4.461,11.8,11.8,0,0,0,4.615.526,2.43,2.43,0,0,0,1.2-.431,32.182,32.182,0,0,0,3.887-3.821c-.222-.145-.386-.258-.555-.364-8.206-5.115-16.588-9.922-25.2-14.315q-5.032-2.565-10.164-4.935c-2.543-1.18-5.138-2.25-7.734-3.312-1.763-.72-3.562-1.35-5.352-2-.79-.287-1.6-.531-2.394-.791a31.137,31.137,0,0,0-7.324-1.558,6.527,6.527,0,0,0-2.436.217A1.36,1.36,0,0,0,1086.706,113.911Zm6.426,18.689-.071.048c.211.416.428.83.632,1.249a32.773,32.773,0,0,1,2.835,7.333,7.33,7.33,0,0,0,1.009,2.42,108.571,108.571,0,0,0,6.981,9.611,70.652,70.652,0,0,0,5.758,6.645c.016.016,0,.067-.014.187-.493-.468-.973-.878-1.4-1.335a108.264,108.264,0,0,1-11.4-14.5c-.1-.154-.213-.3-.32-.45.01.934.161,1.807.184,2.684a10.561,10.561,0,0,0,1.331,4.626,70.638,70.638,0,0,0,4.45,7.233,53.482,53.482,0,0,1,4.388,7.482q1.7,3.654,3.488,7.272a17.543,17.543,0,0,0,1.38,2.253,6.433,6.433,0,0,0,3.214,2.275,8.22,8.22,0,0,0,5.078.141c-4.756-5.438-9.477-10.883-13.851-16.625a1.1,1.1,0,0,1,.477.316c.552.636,1.09,1.282,1.637,1.921q6.17,7.2,12.353,14.385a5.506,5.506,0,0,0,1.425,1.149,21.424,21.424,0,0,0,7.7,2.626,5.075,5.075,0,0,0,1.633.069c-.156-.169-.246-.274-.344-.372-2.421-2.423-4.87-4.82-7.256-7.277-1.542-1.588-2.993-3.266-4.481-4.907a1.951,1.951,0,0,1-.193-.32c4.281,4.379,8.519,8.774,12.949,12.939a12.873,12.873,0,0,0,6.132-1.484c-.2-.189-.325-.317-.46-.435q-12.843-11.269-24.72-23.551a260.1,260.1,0,0,1-20.154-23.163C1093.391,132.89,1093.257,132.748,1093.131,132.6Zm-5.487-20.586c.241-.022.378-.04.514-.047.633-.029,1.266-.09,1.9-.077a24.089,24.089,0,0,1,5.084.861c1.177.281,2.342.625,3.489,1.006,1.554.517,3.1,1.079,4.628,1.658,1.646.623,3.3,1.245,4.908,1.946,2.571,1.117,5.124,2.276,7.667,3.456,5.05,2.347,9.987,4.917,14.869,7.594,6.321,3.465,12.536,7.11,18.611,10.992a2.08,2.08,0,0,0,.606.286,5.412,5.412,0,0,0,5.171-1.4c.038-.034.041-.107.086-.233-2.224-1.449-4.43-2.937-6.689-4.341s-4.58-2.73-6.873-4.09c4.965,2.163,9.371,5.277,13.931,8.2a5.168,5.168,0,0,0,1.342-3.691c-.518-.316-.99-.6-1.459-.891q-8.834-5.451-18.079-10.175c-3.755-1.915-7.551-3.75-11.428-5.41-2.239-.96-4.475-1.927-6.734-2.836-1.633-.658-3.293-1.251-4.959-1.823-2.21-.758-4.418-1.53-6.661-2.184a56.849,56.849,0,0,0-10.837-2.188,20.721,20.721,0,0,0-5.084.11,4.3,4.3,0,0,0-2.693,1.467c-.332.385-.668.768-.979,1.17A4.213,4.213,0,0,0,1087.644,112.014Zm3.909-3.82.041.1c.255-.031.511-.067.767-.093.285-.029.571-.055.858-.072a31.321,31.321,0,0,1,8.478.818c2.6.565,5.177,1.287,7.751,1.992,1.283.351,2.546.79,3.8,1.238,1.756.626,3.5,1.281,5.241,1.951,1.605.618,3.212,1.234,4.791,1.916,2.386,1.031,4.755,2.1,7.118,3.186,4,1.833,7.919,3.838,11.794,5.926,4.831,2.6,9.577,5.356,14.2,8.311.125.08.266.133.492.243-.055-.357-.08-.6-.132-.837a13.383,13.383,0,0,0-1.511-3.755c-.647-1.144-1.271-2.3-1.932-3.436a1.625,1.625,0,0,0-.592-.585c-2.926-1.6-5.827-3.252-8.8-4.753-2.409-1.216-4.9-2.269-7.379-3.348-1.557-.679-3.157-1.257-4.728-1.908-1.683-.7-3.352-1.429-5.028-2.144-2.354-1-4.695-2.04-7.067-3-1.993-.806-3.993-1.614-6.041-2.259a45.919,45.919,0,0,0-7.844-1.828,36.252,36.252,0,0,0-5.879-.34,14.8,14.8,0,0,0-7.918,2.348C1091.872,107.971,1091.714,108.083,1091.553,108.194Zm-5.507,12.378-.094.07c.041.092.077.185.124.274.24.453.472.911.726,1.356a101.537,101.537,0,0,0,7.9,11.593c4.5,5.841,9.335,11.4,14.341,16.8,9.44,10.2,19.45,19.817,29.8,29.082a4.411,4.411,0,0,0,.361.26,10.616,10.616,0,0,0,3.859-3.493c-.632-.552-1.226-1.084-1.833-1.6-2.753-2.332-5.535-4.631-8.261-6.994-11.2-9.7-21.978-19.846-32.529-30.24a110.483,110.483,0,0,1-12.517-14.455C1087.293,122.347,1086.671,121.458,1086.046,120.572Zm15.2,69.1a5.15,5.15,0,0,0,2.032,1.695,8.383,8.383,0,0,0,5.426.406,4.089,4.089,0,0,0,2.617-1.806c.273-.4.49-.835,1.041-.979-.355-.511-.675-.962-.981-1.422-.32-.478-.642-.956-.932-1.451a4.392,4.392,0,0,1-.716-1.421,1.441,1.441,0,0,1,.37.386q1.432,2.08,2.857,4.164a8.714,8.714,0,0,0,3.012,2.674,5.608,5.608,0,0,0,5.917-.072,8.268,8.268,0,0,0,3.472-3.962,12.921,12.921,0,0,0,.963-4.307,4.781,4.781,0,0,0-.233-2.072c-.16-.067-.308-.134-.459-.192a21.507,21.507,0,0,1-4.3-2.121,1.89,1.89,0,0,0-1.57-.3,6.269,6.269,0,0,1-2.872.017c-1.015-.245-2.014-.564-3.006-.892a7.581,7.581,0,0,1-1.077-.552c2.015,3.615,4.8,6.618,7.41,9.76a1.745,1.745,0,0,1-.454-.362A59.683,59.683,0,0,1,1112,177.1a16.871,16.871,0,0,0-1.458-1.781c.033,1.05.052,1.946.1,2.841a1.1,1.1,0,0,0,.194.508q2.092,3.191,4.2,6.375c.074.112.15.222.225.333l-.115.083a46.182,46.182,0,0,1-4.514-6.383c-.243,1.091-.467,2.1-.695,3.119l.231.677c-.127-.077-.172-.109-.222-.133-.066-.033-.134-.059-.223-.1C1108.177,186.492,1105.653,189.148,1101.242,189.675Zm55.315-42.82a7.64,7.64,0,0,0,.911-6.211,3.887,3.887,0,0,0-.53-1.035,2.1,2.1,0,0,0-.964-.854,7.928,7.928,0,0,1-3.123,1.813,6.661,6.661,0,0,1-3.525-.146c-.855.916-1.635,1.786-2.452,2.62a8.959,8.959,0,0,1-4.687,2.554c-.19.039-.377.095-.565.143l-.023.126a45.028,45.028,0,0,1,9.073,5.748,2,2,0,0,1-.533-.276,60.083,60.083,0,0,0-8.748-5.2,1.823,1.823,0,0,0-.742-.266c-.874.012-1.748.085-2.719.141a1.285,1.285,0,0,0,.229.143,18.838,18.838,0,0,1,3.882,1.543,16.9,16.9,0,0,1,6.066,4.621,9.076,9.076,0,0,1,1.858,4.235c.034.2.069.4.1.612.477.124.928.248,1.381.355a2.165,2.165,0,0,0,1.773-.3,8.041,8.041,0,0,0,2.66-2.769,7.157,7.157,0,0,0,.63-5.022,1.066,1.066,0,0,0-.522-.77A72.7,72.7,0,0,0,1149.6,145a5.62,5.62,0,0,1-.532-.33l.066-.123a11.944,11.944,0,0,1,1.214.5c1.828,1,3.646,2.028,5.467,3.043.149.083.306.153.512.256.031-.433.055-.776.083-1.165l-4.514-2.873.1-.16c.754.422,1.518.829,2.26,1.269S1155.745,146.348,1156.557,146.855Zm-3.768-22.111a1.764,1.764,0,0,0-.073-.313c-.526-1.067-1.038-2.142-1.592-3.2a5.649,5.649,0,0,0-2.038-2.183,14.544,14.544,0,0,0-2.162-1.165c-3.227-1.323-6.475-2.6-9.71-3.9-4.225-1.7-8.443-3.424-12.667-5.125-1.96-.79-3.917-1.593-5.9-2.32a68.537,68.537,0,0,0-8.052-2.291,21.771,21.771,0,0,0-11.78.608c-.2.065-.4.153-.595.231a.807.807,0,0,0,.5.087,34.187,34.187,0,0,1,10.672.893,55.363,55.363,0,0,1,9.413,3.038q3.991,1.677,7.975,3.37c2.205.935,4.406,1.878,6.613,2.809,2.356.994,4.734,1.941,7.074,2.974a108.2,108.2,0,0,1,11.734,6.157C1152.371,124.519,1152.546,124.609,1152.788,124.744Zm-69.669-5.99c-.085.425-.182.78-.22,1.14a14.458,14.458,0,0,0,.281,4.279,38.311,38.311,0,0,0,2.658,8.116,86.12,86.12,0,0,0,11.359,18.54c.1.133.232.246.349.369a4.664,4.664,0,0,0-.372-1,7.414,7.414,0,0,1-.693-2.6c-.034-.41-.062-.819-.1-1.228a28.925,28.925,0,0,0-1.784-8.152,46.6,46.6,0,0,0-4.124-8.044,86.61,86.61,0,0,1-4.743-7.707c-.45-.875-.865-1.768-1.282-2.658A1.847,1.847,0,0,0,1083.12,118.753Zm59.361,25.869.006-.187c-.139-.012-.279-.018-.417-.037-.992-.138-2-.214-2.975-.43a21.39,21.39,0,0,1-5.57-2.262,33.775,33.775,0,0,1-4.636-3.238,25.54,25.54,0,0,0-11.331-5.256c-1.877-.341-3.759-.657-5.628-1.041a34.063,34.063,0,0,1-8.407-2.733c-.131-.066-.27-.116-.5-.213a1.513,1.513,0,0,0,.177.24c.529.389,1.066.765,1.59,1.161a60.426,60.426,0,0,0,10.619,6.423c2.706,1.279,5.455,2.471,8.18,3.711.952.432,1.905.869,2.835,1.346a35.334,35.334,0,0,0,5.423,1.987,19.308,19.308,0,0,0,7.4.886C1140.331,144.9,1141.4,144.743,1142.481,144.623Z" transform="translate(-951.304 5.671)" fill="#6a5975" stroke="rgba(0,0,0,0)" stroke-width="1"></path></g></g></g></svg>