<svg xmlns="http://www.w3.org/2000/svg" width="54.095" height="47.333" viewBox="0 0 54.095 47.333"><path id="Icon_awesome-quote-left" data-name="Icon awesome-quote-left" d="M5.071,25.917h8.452v6.762a6.768,6.768,0,0,1-6.762,6.762H5.917a2.53,2.53,0,0,0-2.536,2.536v5.071a2.53,2.53,0,0,0,2.536,2.536h.845a16.9,16.9,0,0,0,16.9-16.9V7.321A5.073,5.073,0,0,0,18.6,2.25H5.071A5.073,5.073,0,0,0,0,7.321V20.845A5.073,5.073,0,0,0,5.071,25.917Zm30.429,0h8.452v6.762a6.768,6.768,0,0,1-6.762,6.762h-.845a2.53,2.53,0,0,0-2.536,2.536v5.071a2.53,2.53,0,0,0,2.536,2.536h.845a16.9,16.9,0,0,0,16.9-16.9V7.321A5.073,5.073,0,0,0,49.024,2.25H35.5a5.073,5.073,0,0,0-5.071,5.071V20.845A5.073,5.073,0,0,0,35.5,25.917Z" transform="translate(0 -2.25)" fill="#e2dbd4"></path></svg>