<svg xmlns="http://www.w3.org/2000/svg" width="54.095" height="47.333" viewBox="0 0 54.095 47.333"><path id="Icon_awesome-quote-left" data-name="Icon awesome-quote-left" d="M49.024,25.917H40.572V19.155a6.768,6.768,0,0,1,6.762-6.762h.845a2.53,2.53,0,0,0,2.536-2.536V4.786A2.53,2.53,0,0,0,48.179,2.25h-.845a16.9,16.9,0,0,0-16.9,16.9V44.512A5.073,5.073,0,0,0,35.5,49.583H49.024A5.073,5.073,0,0,0,54.1,44.512V30.988A5.073,5.073,0,0,0,49.024,25.917Zm-30.429,0H10.143V19.155A6.768,6.768,0,0,1,16.9,12.393h.845a2.53,2.53,0,0,0,2.536-2.536V4.786A2.53,2.53,0,0,0,17.75,2.25H16.9A16.9,16.9,0,0,0,0,19.155V44.512a5.073,5.073,0,0,0,5.071,5.071H18.6a5.073,5.073,0,0,0,5.071-5.071V30.988A5.073,5.073,0,0,0,18.6,25.917Z" transform="translate(0 -2.25)" fill="#e2dbd4"></path></svg>