<svg xmlns="http://www.w3.org/2000/svg" xmlns:xlink="http://www.w3.org/1999/xlink" width="43.771" height="33.509" viewBox="0 0 43.771 33.509"><defs><linearGradient id="linear-gradient" x1="1.038" y1="0.5" x2="-0.067" y2="0.448" gradientUnits="objectBoundingBox"><stop offset="0" stop-color="#ffcc01"></stop><stop offset="1" stop-color="#d9002f"></stop></linearGradient></defs><g id="Group_3757" data-name="Group 3757" transform="translate(-5.966 -4.332)"><g id="Group_3756" data-name="Group 3756"><path id="Path_2996" data-name="Path 2996" d="M115.3,145.553h28.323v-3.862a1.287,1.287,0,0,0-1.287-1.287H115.3a2.575,2.575,0,1,0,0,5.149Zm10.3,14.2a7.733,7.733,0,0,1,7.724-7.724H146.2v-3.9H115.3a5.155,5.155,0,0,1-5.15-5.15,5.085,5.085,0,0,1,.662-2.475A6.423,6.423,0,0,0,105,146.877v20.6a6.445,6.445,0,0,0,6.437,6.437h33.472a1.287,1.287,0,0,0,1.287-1.287v-5.149H133.322A7.733,7.733,0,0,1,125.6,159.751Zm20.6-5.15H133.322a5.149,5.149,0,1,0,0,10.3H146.2a2.578,2.578,0,0,0,2.575-2.575v-5.149A2.578,2.578,0,0,0,146.2,154.6Zm-12.874,6.437a1.287,1.287,0,1,1,1.287-1.287A1.287,1.287,0,0,1,133.323,161.039Z" transform="translate(-99.034 -136.072)" fill="url(#linear-gradient)"></path></g></g></svg>