<svg xmlns="http://www.w3.org/2000/svg" xmlns:xlink="http://www.w3.org/1999/xlink" width="43.455" height="33.23" viewBox="0 0 43.455 33.23"><defs><linearGradient id="linear-gradient" x1="1.038" y1="0.5" x2="-0.067" y2="0.448" gradientUnits="objectBoundingBox"><stop offset="0" stop-color="#ffcc01"></stop><stop offset="1" stop-color="#d9002f"></stop></linearGradient></defs><g id="Group_3751" data-name="Group 3751" transform="translate(0)"><g id="Group_3750" data-name="Group 3750"><path id="Path_2994" data-name="Path 2994" d="M113.947,168.648A2.556,2.556,0,1,0,116.5,171.2,2.556,2.556,0,0,0,113.947,168.648Zm25.562,0a2.556,2.556,0,1,0,2.556,2.556A2.556,2.556,0,0,0,139.508,168.648Zm-6.39-8.947V141.808a1.278,1.278,0,0,0-1.278-1.278H106.278A1.278,1.278,0,0,0,105,141.808v19.171h26.84A1.278,1.278,0,0,0,133.118,159.7Zm12.715-8.037a1.277,1.277,0,0,0-1.212-.874h-2.556v7.669H148.1Zm-5.046,9.351a1.277,1.277,0,0,1-1.278-1.278v-8.947h-3.834v8.91a3.838,3.838,0,0,1-3.834,3.834H105v6.427a1.277,1.277,0,0,0,1.278,1.278h2.56c0-.012,0-.024,0-.036a5.112,5.112,0,1,1,10.225,0c0,.012,0,.024,0,.036H134.4c0-.012,0-.024,0-.036a5.112,5.112,0,1,1,10.225,0c0,.012,0,.024,0,.036h2.56a1.277,1.277,0,0,0,1.278-1.278v-8.947h-7.669Z" transform="translate(-105 -140.53)" fill="url(#linear-gradient)"></path></g></g></svg>