<svg xmlns="http://www.w3.org/2000/svg" xmlns:xlink="http://www.w3.org/1999/xlink" width="42.71" height="42.71" viewBox="0 0 42.71 42.71"><defs><linearGradient id="linear-gradient" x1="1.038" y1="0.5" x2="-0.067" y2="0.448" gradientUnits="objectBoundingBox"><stop offset="0" stop-color="#ffcc01"></stop><stop offset="1" stop-color="#d9002f"></stop></linearGradient></defs><g id="Group_3754" data-name="Group 3754" transform="translate(-6.858 -6.494)"><g id="Group_3753" data-name="Group 3753"><path id="Path_2995" data-name="Path 2995" d="M120.074,127.6a1.244,1.244,0,0,1-1.256,1.256H114.8a7.149,7.149,0,0,0,1.507.779v2.99h-6.281A5.039,5.039,0,0,0,105,137.65V147.7h22.611V132.625H121.33v-2.99a7.563,7.563,0,0,0,5.025-7.085v-5.025a7.537,7.537,0,1,0-15.074,0v5.025a7.239,7.239,0,0,0,1.055,3.794h6.482A1.26,1.26,0,0,1,120.074,127.6Zm26.38,5.035h-16.33V147.71h16.33a1.256,1.256,0,0,0,1.256-1.256V133.892a1.256,1.256,0,0,0-1.256-1.256Zm-7.537,8.793a1.256,1.256,0,1,1,1.256-1.256A1.256,1.256,0,0,1,138.916,141.429Zm-6.281-20.1v-2.512a13.818,13.818,0,0,0-27.636,0v6.27a3.763,3.763,0,0,0,3.768,3.768h6.03a7.149,7.149,0,0,1-2.462-2.512h-3.568a1.244,1.244,0,0,1-1.256-1.256v-.221a3.726,3.726,0,0,0,1.256.231c.122,0,.238-.025.357-.036a9.838,9.838,0,0,1-.357-2.512v-5.025a9.939,9.939,0,0,1,.335-2.443c-.112-.01-.22-.034-.335-.034a3.735,3.735,0,0,0-.58.059,11.235,11.235,0,0,1,21.258,0,3.735,3.735,0,0,0-.58-.059c-.115,0-.223.024-.335.034a9.938,9.938,0,0,1,.335,2.443v5.025a9.838,9.838,0,0,1-.357,2.512c.119.011.235.036.357.036A3.772,3.772,0,0,0,132.636,121.33Z" transform="translate(-98.142 -98.506)" fill="url(#linear-gradient)"></path></g></g></svg>