<svg xmlns="http://www.w3.org/2000/svg" xmlns:xlink="http://www.w3.org/1999/xlink" id="Group_3777" data-name="Group 3777" width="43.79" height="36.099" viewBox="0 0 43.79 36.099"><defs><linearGradient id="linear-gradient" x1="1.038" y1="0.5" x2="-0.067" y2="0.448" gradientUnits="objectBoundingBox"><stop offset="0" stop-color="#ffcc01"></stop><stop offset="1" stop-color="#d9002f"></stop></linearGradient></defs><g id="Group_3776" data-name="Group 3776"><path id="Path_2997" data-name="Path 2997" d="M116.592,144.439h-10.3A1.287,1.287,0,0,0,105,145.727v20.607a1.287,1.287,0,0,0,1.288,1.288h10.3a1.287,1.287,0,0,0,1.288-1.288V145.728A1.287,1.287,0,0,0,116.592,144.439Zm-2.576,7.728a1.288,1.288,0,1,1,1.288-1.288A1.288,1.288,0,0,1,114.016,152.168Zm28.979,2.539h3.864a1.932,1.932,0,1,0,0-3.864h-3.22a1.288,1.288,0,1,1,0-2.576h3.22a1.932,1.932,0,0,0,0-3.864H135.911v-9.016a3.864,3.864,0,0,0-3.864-3.864,1.288,1.288,0,0,0-1.288,1.288v7.075l-5.011,3.341a6.082,6.082,0,0,0-2.58,3.788h-2.713v18.031h3.351a10,10,0,0,0,6.732,2.576c.261,0,14.8-.037,13.745-.037a1.932,1.932,0,1,0,0-3.864H142.35a1.288,1.288,0,1,1,0-2.576h4.508a1.932,1.932,0,0,0,0-3.864h-3.864a1.288,1.288,0,0,1,0-2.577Z" transform="translate(-105 -131.524)" fill="url(#linear-gradient)"></path></g></svg>