<svg xmlns="http://www.w3.org/2000/svg" width="462.336" height="707.146" viewBox="0 0 462.336 707.146"><g id="Group_6505" data-name="Group 6505" opacity="0.06"><g id="Group_4" data-name="Group 4" transform="translate(0 285.323)"><path id="Path_9" data-name="Path 9" d="M1879.082,779.567c-.912-.292-1.144-1.049-1.461-1.719-2.583-5.493-5.1-11.016-7.743-16.48a329.052,329.052,0,0,0-22.294-39.44,192.95,192.95,0,0,0-13.769-18.085c-11.014-12.915-20.647-26.826-29.955-40.983-6.086-9.259-12.174-18.521-18.428-27.667a253.867,253.867,0,0,0-30.121-35.924,677.85,677.85,0,0,0-66.461-59.043,37.5,37.5,0,0,0-11.547-6.431,12.639,12.639,0,0,0-9.341.283,17.305,17.305,0,0,0-3.227,2.049,32.144,32.144,0,0,0-2.534,2.35,35,35,0,0,1-21.245,9.664,183.454,183.454,0,0,1-18.583.812c-8.064-.013-16.122.186-24.179.664-15.5.918-30.666,3.859-45.805,7.033-9.37,1.965-18.793,3.627-28.309,4.7a41.836,41.836,0,0,1-10.213.177c-5.086-.666-8.885-3.142-10.771-8.1a10.629,10.629,0,0,1,3.671-12.8,38.218,38.218,0,0,1,11.808-5.98c3.1-.925,6.237-1.724,9.4-2.383a9.683,9.683,0,0,0,6.331-4.45,5.7,5.7,0,0,0,.3-.637c-.653-.073-1.2-.155-1.749-.193a109.623,109.623,0,0,1-19.322-2.735c-13.077-3.253-22.274-11.273-28.2-23.181-2.669-5.36-2.638-10.934-.639-16.531a10.379,10.379,0,0,1,3.658-4.955,33.865,33.865,0,0,1,3.182-2.169,10.4,10.4,0,0,0,4.76-5.838,56.832,56.832,0,0,1,4.869-11.05c1.082-1.777,2.25-3.5,3.448-5.2,3.109-4.411,7.61-6.374,12.78-6.969a58.725,58.725,0,0,1,6.159-.075c.071-.192.246-.584.363-.994a60.371,60.371,0,0,1,4.251-10.452,31.887,31.887,0,0,1,7-9.138c1.8-1.64,3.731-3.134,5.6-4.694l.83-.693a5.688,5.688,0,0,0-.255-.642c-3.671-6.628-3.806-13.5-1.485-20.57a22.769,22.769,0,0,1,11.691-13.5,35.243,35.243,0,0,1,13.338-3.791c1.722-.151,3.439-.347,5.161-.474a9.757,9.757,0,0,0,4.337-1.527c2.319-1.385,4.625-2.815,7.051-3.99a40.817,40.817,0,0,1,22.772-3.78c.44.051.876.131,1.312.2.392.064.781.135,1.226.215.3-.261.609-.511.9-.772,1.613-1.452,3.249-2.884,4.816-4.382a3.28,3.28,0,0,0,.792-1.461c.226-.808.279-1.66.443-2.485a9.119,9.119,0,0,1,5.73-6.987,6.967,6.967,0,0,1,7.69,1.268,15.766,15.766,0,0,1,4.382,6.568,55.412,55.412,0,0,1,2.922,11.718c1.153,8.157,2.246,16.325,3.213,24.509,1.1,9.326,2.005,18.68,3.875,27.9a108.2,108.2,0,0,0,4.6,16.5,53.222,53.222,0,0,0,3.988,8.39c3.107,5.265,6.095,10.6,9.213,15.861,1.58,2.667,3.306,5.247,5.017,7.834a92.015,92.015,0,0,1,9.589,17.744,45,45,0,0,1,3.154,13,16.054,16.054,0,0,1-.7,5.776,7.869,7.869,0,0,0,.133,5.344,25.457,25.457,0,0,0,2.627,5.192,74.687,74.687,0,0,0,5.776,7.11,89.641,89.641,0,0,0,10.691,9.762,674.019,674.019,0,0,1,65.1,58.964,276.743,276.743,0,0,1,33.1,41.879q9.786,14.968,19.734,29.834a273.836,273.836,0,0,0,20.01,26.691c14.042,16.294,25.191,34.465,34.872,53.586,3.1,6.128,6.06,12.331,9.018,18.53.857,1.795,1.509,3.687,2.211,5.552C1879.874,778.507,1880.027,779.2,1879.082,779.567Zm-313.67-326.22.122-.049c4.03,3.6,7.982,7.29,12.108,10.78,11.134,9.427,22.818,18.142,34.766,26.5a172.783,172.783,0,0,0,28.639,16.458c8.489,3.789,17.031,7.431,26.18,9.363a8.449,8.449,0,0,0,3.941.39,26.847,26.847,0,0,0-1.516-2.912,38.065,38.065,0,0,0-9.042-9.658,148.444,148.444,0,0,0-18.516-11.457c-2.64-1.354-5.262-2.74-7.891-4.116a176,176,0,0,1-35.676-24.155c-3.271-2.912-6.3-6.1-9.428-9.173a9.82,9.82,0,0,1-.781-.989,1.2,1.2,0,0,1,.755.418,172.243,172.243,0,0,0,13.192,11.961,185.779,185.779,0,0,0,32.093,20.973c7.181,3.753,14.442,7.363,21.174,11.917a1.027,1.027,0,0,0,.33.082l.122-.15c-.19-.166-.381-.334-.574-.5a129.282,129.282,0,0,0-11.154-8.819c-3.93-2.731-7.8-5.544-11.711-8.308a108.574,108.574,0,0,1-22.382-21.274,67.069,67.069,0,0,0-5.068-5.628q-4.365-4.375-8.909-8.573a395.041,395.041,0,0,0-30.98-25.3c-1.45-1.087-2.954-2.1-4.231-3.005-1.656.469-3.087.925-4.541,1.277-1.379.332-2.78.562-4.174.823a19.9,19.9,0,0,0-7.8,2.892c-2.4,1.655-4.656,3.523-6.969,5.3a2.479,2.479,0,0,0-.356.524c1.2,1.593,2.315,3.246,3.6,4.758,2.7,3.173,5.484,6.272,8.23,9.4.29.33.562.675.841,1.014l-.292.226a97.851,97.851,0,0,1-13.1-14.938,33.676,33.676,0,0,0-5.028,5.993c13.636,15.661,28.751,29.378,46.188,40.485a4.378,4.378,0,0,1-1.319-.551c-2.921-1.841-5.924-3.57-8.734-5.566a200.3,200.3,0,0,1-35.663-32.542c-.27-.312-.564-.606-1-1.064-2.987,5.818-5.581,11.5-6.25,18.094.326.281.71.582,1.058.921,1.615,1.58,3.211,3.182,4.831,4.758a299.535,299.535,0,0,0,48.813,38.606,228.074,228.074,0,0,0,35.222,18.53c10.631,4.36,21.5,7.845,33.005,9.1a51.7,51.7,0,0,0,14.672-.336,36.719,36.719,0,0,0,6.223-1.819,4.963,4.963,0,0,0,3.1-3.755c-1.193.305-2.146.615-3.127.79a43.068,43.068,0,0,1-13.621-.1,66.645,66.645,0,0,1-13.933-3.725c-11.229-4.171-21.548-10.069-31.584-16.516-.412-.266-.777-.6-1.162-.907,2.516,1.35,4.955,2.775,7.389,4.207a161.633,161.633,0,0,0,25.255,12.333,60.909,60.909,0,0,0,15.245,3.893,84.853,84.853,0,0,0,10.479.206,9.792,9.792,0,0,0,4.99-1.414l-.208-1.087a25.542,25.542,0,0,1-2.932-.394c-3.381-.854-6.812-1.587-10.109-2.709a176.882,176.882,0,0,1-40.848-19.857c-9.877-6.528-19.313-13.663-28.647-20.933a216.2,216.2,0,0,1-20.652-17.959C1567.169,455.186,1566.3,454.261,1565.412,453.347Zm108.236,62.241a1.587,1.587,0,0,0,1.184-1.478,19.063,19.063,0,0,0,.354-3.554,37.8,37.8,0,0,0-2.587-11.632,86.456,86.456,0,0,0-9.915-18.76c-2.4-3.618-4.828-7.221-7.2-10.861a109.888,109.888,0,0,1-10.892-20.661,26.791,26.791,0,0,0-1.948-3.917c-3.846-6.579-7.834-13.077-11.581-19.711a128.529,128.529,0,0,1-14.226-36.2,91.2,91.2,0,0,1-2.385-16.239,15.679,15.679,0,0,0-.268-1.793c-2.133,1.067-8.9,7.819-9.994,9.992a190.709,190.709,0,0,0,13.528,34.337c-6.453-10.428-10.58-21.847-14.174-33.505a11.13,11.13,0,0,0-3.027,5.358,46.341,46.341,0,0,0-1.118,12.4,59.274,59.274,0,0,0,6.36,24.91,91.564,91.564,0,0,0,8.155,12.756A116.554,116.554,0,0,1,1626,457.793c1.96,4.309,4.105,8.555,6.482,12.65a80.927,80.927,0,0,0,17.968,21.712q4.08,3.416,8.053,6.951a95.4,95.4,0,0,1,12.616,13.287,7.037,7.037,0,0,0,.71.653,8.584,8.584,0,0,0-.161-1.115c-.773-2.445-1.445-4.931-2.361-7.321A87.183,87.183,0,0,0,1658.75,485.6q-11.864-16.767-23.956-33.374a302.174,302.174,0,0,1-19.674-30.155,105.064,105.064,0,0,1-6.75-14.132c-.208-.551-.325-1.138-.483-1.709l.259-.084c.611,1.359,1.215,2.722,1.839,4.076A191.479,191.479,0,0,0,1626.42,438.6c5.878,8.54,12.034,16.89,18.058,25.332,5.535,7.754,11.174,15.44,16.547,23.307,5.756,8.427,10.4,17.412,12.267,27.6A3.59,3.59,0,0,0,1673.648,515.588Zm-100.086-8.668.093-.314c-.462-.323-.923-.646-1.383-.974-4.081-2.9-8.2-5.754-11.534-9.567a4.6,4.6,0,0,0-1.762-1.133c-1.813-.713-3.658-1.343-5.5-1.981a59.139,59.139,0,0,1-17.934-9.374c-3.59-2.868-6.918-5.982-9.073-10.118a4.37,4.37,0,0,0-2.468-2.253c-3.448-1.242-6.9-2.452-10.357-3.676-.29-.1-.573-.219-.859-.33a3.492,3.492,0,0,1,1.626.024,61.233,61.233,0,0,1,9.676,3.2,8.176,8.176,0,0,0,.834.25,38.083,38.083,0,0,1-1.908-20.036,9.642,9.642,0,0,0-1.175-.285,19.032,19.032,0,0,0-6.464.431,9.938,9.938,0,0,0-6.54,5.021,25.575,25.575,0,0,0-3.45,16.328,69.406,69.406,0,0,1,.423,7.024,11.841,11.841,0,0,1-4.68,10.083,59.143,59.143,0,0,0-5.229,4.908,16.971,16.971,0,0,0-2.514,3.246,11.191,11.191,0,0,0-1.46,7.912,50.254,50.254,0,0,0,7.376,3.753,143.764,143.764,0,0,0,25.35,8.062,96.067,96.067,0,0,0,16.27,2.255,2.493,2.493,0,0,0,1.936-.622,40.333,40.333,0,0,1,8.551-5.816,6.588,6.588,0,0,0,.717-.5c-6.117-1.859-12.169-3.6-18.155-5.541a103.4,103.4,0,0,1-17.562-7.3.737.737,0,0,1,.458.08,225.4,225.4,0,0,0,35.674,11.842,3.38,3.38,0,0,0,2.319-.2c1.618-.719,3.275-1.348,4.915-2.018.235-.1.458-.215.967-.458a130.318,130.318,0,0,1-27.844-11.176c.164-.111.21-.166.232-.157.368.148.735.29,1.093.456,8.752,4.05,17.6,7.861,27.012,10.136a6.992,6.992,0,0,0,2.476.051c2.018-.255,4.021-.644,6.039-.912C1571.011,507.072,1572.29,507.022,1573.562,506.92Zm89.264,27.66a41.064,41.064,0,0,1-7.929,2.7c-6.792,1.567-13.687,1.675-20.6,1.408-2.959-.115-5.92-.434-8.859-.823-4.251-.567-8.5-1.157-12.714-1.961a150.137,150.137,0,0,1-18.078-4.707,118.911,118.911,0,0,1-24.281-10.558c-.392-.232-.768-.485-1.151-.726a.94.94,0,0,1,.653.137,143.323,143.323,0,0,0,23.179,9.813,157.483,157.483,0,0,0,27.835,6.544c3.682.5,7.376.956,11.078,1.228a90.374,90.374,0,0,0,13.408.111,56.291,56.291,0,0,0,11.88-1.954,21.89,21.89,0,0,0,5.922-2.647c.456-.3.9-.606.8-1.255a1.2,1.2,0,0,0-1.084-1.025,14.956,14.956,0,0,0-3.151-.208c-3.085.248-6.159.677-9.246.91a78.545,78.545,0,0,1-17.9-.651,130.638,130.638,0,0,1-26.337-6.8,125.645,125.645,0,0,1-27.348-14.1,5.074,5.074,0,0,0-3.231-1c-2.211.111-4.422.206-6.63.328a7.563,7.563,0,0,0-1.118.221l-.049.274c10.742,6.674,22.2,11.941,33.781,16.974a155.153,155.153,0,0,1-18.065-7.509,166.459,166.459,0,0,1-17.24-9.5c-7.878,1.7-16.113,9.972-18.456,15.949.513.217,1.02.471,1.552.655,6.4,2.186,12.778,4.428,19.206,6.528,7.142,2.332,14.327,4.537,21.67,6.159q6.788,1.5,13.647,2.693a100.066,100.066,0,0,0,10.645,1.432c4.9.319,9.83.308,14.747.4,1.727.035,3.459.049,5.181-.057,3.618-.221,7.243-.421,10.841-.837a78.032,78.032,0,0,0,8.474-1.5C1657.766,540.327,1660.465,537.665,1662.827,534.58ZM1558.014,404.794l-.2.212a11.712,11.712,0,0,1-1.215-1.169q-3.957-5.086-7.872-10.2c-.259-.336-.5-.684-.83-1.124-4.492,3.844-6.475,8.812-7.345,14.323a23.3,23.3,0,0,0,2.5,14.475c1.541-.693,2.881-1.379,4.285-1.9,1.383-.518,2.826-.872,4.359-1.332-1.48-1.764-3.218-3.1-4-5.2l5.143,5.15c1.724-.378,3.359-.746,5-1.093a3.6,3.6,0,0,0,2.372-1.757c1.21-1.905,2.443-3.8,3.778-5.625a22.475,22.475,0,0,1,13.362-8.578,11.669,11.669,0,0,1,2.9-.29,17.939,17.939,0,0,1,9.684,3.273c.419.274.839.544,1.277.83.5-2.22,1-4.236,1.4-6.27a2.432,2.432,0,0,0-.263-1.387c-1.549-3.333-3.136-6.646-4.707-9.965-.115-.243-.188-.507-.281-.759,2.516,3.072,3.958,6.714,5.765,10.434,3.156-7.5,6.493-14.557,11.97-20.6a17.291,17.291,0,0,0-1.7-.328,41,41,0,0,0-10.729.423,43.55,43.55,0,0,0-16.7,6.938,12.716,12.716,0,0,1-6.577,2.24c-.929.053-1.857.139-2.782.217a35.384,35.384,0,0,0-12.481,2.939c-.429.2-.845.429-1.445.735,1.81,2.808,3.541,5.495,5.269,8.184-2.554-2.164-4.114-5.083-6.068-7.861L1548.442,392C1551.713,396.371,1554.863,400.582,1558.014,404.794Zm29.409,143.56a3.441,3.441,0,0,0-.58-.159c-4.873-.106-9.744-.3-14.617-.281-4.068.016-8.135.246-12.2.445-2.561.126-5.116.332-7.671.567-3.43.314-6.853.69-10.281,1.045-3.775.389-7.575.644-11.324,1.213-5.15.777-10.266,1.777-15.389,2.722-1.536.281-3.05.695-4.574,1.049l-.091-.243a4.218,4.218,0,0,1,.719-.418q1.129-.382,2.282-.695a128.806,128.806,0,0,1,19.563-3.386c6.712-.768,13.439-1.4,20.154-2.14,5.854-.646,11.729-.905,17.607-1,5.4-.088,10.808.058,16.212.122,4.032.049,8.064.135,12.1.2.354.007.708-.02,1.062-.027,7.531-.164,15.062-.432,22.593-.46a168.072,168.072,0,0,0,18.315-.881,32.386,32.386,0,0,0,10-2.574c.447-.208.877-.458,1.312-.69-1.956.115-3.815.5-5.692.675-4.138.374-8.281.7-12.428.929-2.738.151-5.488.131-8.233.137-2.831,0-5.661,0-8.489-.1-2.435-.086-4.862-.347-7.294-.487-7.566-.432-15.135-.83-22.7-1.266-11.462-.657-22.916-1.4-34.379-1.985-10.359-.531-20.723-.936-31.088-1.323a40.812,40.812,0,0,0-6.367.29c-3.5.423-6.4,2.217-9.078,4.413a6.765,6.765,0,0,0-2.423,7.015,10.369,10.369,0,0,0,8.724,8.376,34.135,34.135,0,0,0,9.673.011,244.811,244.811,0,0,0,26.231-4.227c9.885-2.091,19.789-4.067,29.772-5.621C1581.629,549.164,1584.426,548.788,1587.423,548.354Zm77.4-21.845-.077-.228c-.248.035-.5.053-.739.106a39.489,39.489,0,0,1-8.545,1.011,74.062,74.062,0,0,1-13.752-1.129,120.19,120.19,0,0,1-14.652-3.663,188.786,188.786,0,0,1-34.224-15.013,283.936,283.936,0,0,1-67.05-51.4c-.321-.33-.662-.642-1.129-1.093a5.694,5.694,0,0,0-.171.856c-.018,5.048.531,9.976,2.707,14.637a31.6,31.6,0,0,0,9.35,11.236,58.227,58.227,0,0,0,17.954,9.33c1.8.615,3.623,1.2,5.371,1.947a7.3,7.3,0,0,1,2.476,1.706,43.17,43.17,0,0,0,5.785,5.28,182.365,182.365,0,0,0,20.225,13.488,125.493,125.493,0,0,0,35.2,13.617,96.734,96.734,0,0,0,19.056,2.627c2.612.058,5.227-.126,7.84-.166a41.884,41.884,0,0,0,12.621-2.357A18.52,18.52,0,0,0,1664.82,526.509Zm-27.547-108.7a9.538,9.538,0,0,0-.009-1c-.757-6.6-1.461-13.21-2.3-19.8q-1.3-10.148-2.828-20.264a46.508,46.508,0,0,0-2.788-10.514,13.546,13.546,0,0,0-3.51-5.108,5.057,5.057,0,0,0-5.678-.987,7.191,7.191,0,0,0-4.443,5.123,19.79,19.79,0,0,0-.62,4.729,57.928,57.928,0,0,0,.538,7.529,124.509,124.509,0,0,0,8.257,30.661c4.8,11.481,11.087,22.172,17.609,32.73a5.946,5.946,0,0,0,.66.686c-.2-.746-.323-1.168-.42-1.6-1.04-4.621-2.067-9.246-3.118-13.867a29.837,29.837,0,0,0-1.135-4.488,203.17,203.17,0,0,1-12.34-46.816,3.427,3.427,0,0,1,.062-1.961C1627.885,388.207,1631.333,403.324,1637.273,417.811Zm-39.106-26.089-.257-.057c-.19.427-.4.85-.573,1.281a47.66,47.66,0,0,0-3.585,19.326,68.777,68.777,0,0,0,5.763,26.58,97.354,97.354,0,0,0,29.322,37.73c3.484,2.74,7.115,5.285,10.685,7.914.3.221.641.394.962.591a3.526,3.526,0,0,0-.806-1.368,85.76,85.76,0,0,1-10.067-14.666c-1.914-3.6-3.764-7.237-5.462-10.939a109.065,109.065,0,0,0-10.93-18.826c-1.7-2.328-3.375-4.672-4.96-7.077-7.821-11.877-11.426-24.861-10.155-39.106C1598.145,392.644,1598.147,392.182,1598.167,391.721Zm-36.884,25.658c15.471,10.977,30.2,22.679,43.611,35.99-.555-1.2-1.219-2.288-1.859-3.395-3.589-6.192-6.76-12.579-8.542-19.55a10.756,10.756,0,0,0-2.642-4.791,203.99,203.99,0,0,0-15.5-14.752c-.471-.414-.925-.848-1.385-1.273l.215-.217a160.528,160.528,0,0,1,17.941,16.128A80.432,80.432,0,0,1,1591.86,408a20.463,20.463,0,0,0-7.093-4.43,11.5,11.5,0,0,0-6.387-.744,22.222,22.222,0,0,0-8.146,3.455C1566.206,409.131,1563.81,413.272,1561.282,417.379Zm-28.789,121.536c.308.026.613.064.921.08q16.731.856,33.463,1.711c2.833.144,5.67.246,8.5.4q12.149.654,24.3,1.332c.48.027.963.016,1.443.02-18.472-3.536-36.125-9.624-53.763-16.069-1.761,2.819-3.259,5.82-5.968,7.9A26.675,26.675,0,0,1,1532.493,538.916Zm-42.107-33.2a2.081,2.081,0,0,0,.126-.451,13.642,13.642,0,0,1,2.7-10.366,36.129,36.129,0,0,1,3.1-3.459c1.478-1.463,3.036-2.846,4.583-4.236a8.521,8.521,0,0,0,2.983-5.333,31.691,31.691,0,0,0,.257-4.889c-.084-2.607-.447-5.207-.478-7.814a53.235,53.235,0,0,1,.432-6.606,32.349,32.349,0,0,1,.885-3.826,2.52,2.52,0,0,0-.816.872c-1.282,2.372-2.632,4.716-3.785,7.15-.907,1.914-1.582,3.941-2.334,5.929a12.048,12.048,0,0,1-5.243,6.3c-1.1.653-2.16,1.385-3.2,2.136a8.652,8.652,0,0,0-3.065,4.081,18.193,18.193,0,0,0,.064,13.858,63.668,63.668,0,0,0,3.2,5.949A5.064,5.064,0,0,0,1490.386,505.72Zm50.528,14.531a126.894,126.894,0,0,1-48.85-13.964,5.939,5.939,0,0,0,1.556,3.793,39.214,39.214,0,0,0,20.488,12.386c7.157,1.841,14.506,2.319,21.818,3.14,1.624-1.655,3.238-3.3,4.842-4.942C1540.847,520.585,1540.852,520.435,1540.914,520.251Zm-22.117,16.5.08.226c1.978-.173,3.955-.352,5.933-.513a50.331,50.331,0,0,0,8.945-1.162,16.478,16.478,0,0,0,9.863-6.75c.666-.991,1.394-1.95,1.979-2.99a40.744,40.744,0,0,1,8.836-11.216,4.546,4.546,0,0,0,.44-.609c-.566.2-.892.292-1.193.432a39.441,39.441,0,0,0-10.693,7.329,58.571,58.571,0,0,0-7.579,8.352,10.867,10.867,0,0,1-7,4.435c-2.729.571-5.424,1.306-8.131,1.983C1519.777,536.391,1519.29,536.583,1518.8,536.747Z" transform="translate(-1483.256 -357.745)" fill="#6a5975"></path><path id="Path_10" data-name="Path 10" d="M1571.547,438.262a12.594,12.594,0,0,1-1.779-.56c-3.065-1.476-6.146-2.928-9.162-4.5a190.057,190.057,0,0,1-20.214-11.937c-1.71-1.182-3.337-2.485-4.99-3.745-.341-.259-.64-.578-.967-.876a1.274,1.274,0,0,1,.177-.135c.038-.015.1-.029.124-.009,11.492,8.551,24.126,15.148,36.933,21.449Z" transform="translate(-1421.176 -286.487)" fill="#6a5975"></path></g><g id="Group_5" data-name="Group 5" transform="translate(250.262 70.492)"><path id="Path_11" data-name="Path 11" d="M1621.937,377.187c-.3-.684-.473-1.129-.68-1.56q-7.973-16.744-15.947-33.485a124.339,124.339,0,0,1-7.42-18.485,33.29,33.29,0,0,1-1.491-11.543,20.823,20.823,0,0,1,4.5-12.006,17.026,17.026,0,0,1,2.215-2.286c3.733-3.178,7.666-3.9,12.891-.936a23.077,23.077,0,0,1,5.784,5.052c.611.7,1.218,1.4,1.911,2.2.555-.292,1.082-.569,1.591-.834,0-.766.029-1.427,0-2.085a31.63,31.63,0,0,1,4.081-17.368,17.885,17.885,0,0,1,18.582-8.876c1.487.239,2.983.425,4.466.677a6.673,6.673,0,0,0,4.574-.976c2-1.149,3.986-2.33,6.059-3.326a22.968,22.968,0,0,1,13.739-1.87,13.188,13.188,0,0,1,5.652,2.545c.39.283.779.566,1.25.912.458-.339.885-.637,1.3-.956a56.917,56.917,0,0,1,22.728-10.536,43.615,43.615,0,0,1,12.444-.6,31.247,31.247,0,0,1,8.75,1.5,30.8,30.8,0,0,1,5.769,2.662c3.951,2.481,6.887,5.829,7.841,10.755.565-.113,1.068-.188,1.56-.314,6.5-1.66,17.731.547,23.255,8.615a25.855,25.855,0,0,1,4.028,10.735c.288,1.786.449,3.594.684,5.537.407-.17.766-.294,1.1-.465a22.448,22.448,0,0,1,15.387-1.854,18.5,18.5,0,0,1,3.939,1.54,9.117,9.117,0,0,0,2.607.894,28.741,28.741,0,0,1,4.793,1.031,12.008,12.008,0,0,1,8.524,11.468,37.923,37.923,0,0,1-2.558,14.57,70.238,70.238,0,0,1-5.159,10.782c-5.065,8.792-10.056,17.633-15.922,25.936a89.49,89.49,0,0,0-8.379,15.69c-3.01,6.807-5.986,13.632-9.074,20.406a79.849,79.849,0,0,1-8.017,13.918c-6.858,9.434-16.228,14.553-27.651,16.166a33.522,33.522,0,0,1-8.487.044,19.434,19.434,0,0,0-20.391,12.333,30.582,30.582,0,0,0-1.861,10c-.367,6.77-.805,13.535-1.221,20.3-.668,10.881-1.618,21.747-1.682,32.657a163.245,163.245,0,0,0,1.452,20.674c1.2,9.85,2.47,19.7,3.466,29.568.963,9.527,1.173,19.1,1.432,28.676.529,19.638-.186,39.268-.4,58.9q-.266,25.062-.073,50.131.117,14.884,1.474,29.738,1.434,16.02,2.768,32.049c.781,9.27,1.569,18.543,2.264,27.82.715,9.545,1.23,19.105,2.007,28.645.471,5.781,1.266,11.534,1.932,17.3.463,4.005.958,8,1.432,12.008a8.536,8.536,0,0,1,.051,1.195.966.966,0,0,1-.8,1.065c-.653.1-.98-.308-1.146-.865a5.715,5.715,0,0,1-.164-.912c-.857-6.812-1.777-13.617-2.543-20.44-.5-4.49-.815-9-1.16-13.508-.433-5.7-.821-11.4-1.222-17.1-.31-4.419-.586-8.843-.923-13.26-.378-4.948-.8-9.892-1.213-14.838q-.577-6.954-1.175-13.909c-.491-5.694-1.044-11.384-1.487-17.082-.615-7.9-1.31-15.81-1.7-23.73-1.167-23.878-.553-47.772-.314-71.66.128-12.853.387-25.7.429-38.557.022-7.577-.184-15.159-.434-22.734-.305-9.257-.9-18.5-2.02-27.7-.932-7.7-1.972-15.38-2.884-23.08a142.593,142.593,0,0,1-1-24.81q.714-12.744,1.481-25.483c.328-5.44.838-10.872,1.007-16.319.121-3.888-.111-7.794-.339-11.683a13.087,13.087,0,0,0-2.594-6.747,9.069,9.069,0,0,0-1.549-1.631,4.588,4.588,0,0,0-4.3-1.053,61.972,61.972,0,0,1-19.415,1.365,83.405,83.405,0,0,1-18.525-4.076,75.262,75.262,0,0,1-32.731-21.752,40.943,40.943,0,0,1-10.029-20.231,21.573,21.573,0,0,1-.2-7.8,8.543,8.543,0,0,1,8.312-7.228,23.764,23.764,0,0,1,2.908.195C1620.6,376.943,1621.116,377.056,1621.937,377.187Zm76.152,48.217a10.86,10.86,0,0,1-1.1,1.3,32.893,32.893,0,0,1-7.215,4.7,49.009,49.009,0,0,1-14.095,4.537c2.7-.069,5.393-.254,8.084-.42a35.452,35.452,0,0,0,11.284-2.8,7.263,7.263,0,0,0,3.2-2.521,4.082,4.082,0,0,0,.445-4.778h-.62c.121-.232.246-.462.352-.66-1.142-3.689-6.194-7.059-8.947-7.431-3.269,2.711-6.679,5.351-10.78,6.9a54.482,54.482,0,0,0,10.111-7.261,10.945,10.945,0,0,0-5.776-.91,33.923,33.923,0,0,0-6.98,1.529,4.252,4.252,0,0,0-2.257,1.675c-4.22,5.871-9.556,10.293-16.571,12.466a5.832,5.832,0,0,0-.688.314c8.339,1.25,16.263-.463,24.078-3.061a29.182,29.182,0,0,1-7.345,2.614,65.823,65.823,0,0,1-7.83,1.341c-2.531.25-5.1.146-7.65.2,3.392.956,6.718,2.052,10.275,2.036,3.8-.013,7.6.323,11.362-.622A45.775,45.775,0,0,0,1698.089,425.4Zm10.567-162.012c-.2.48-.4.916-.569,1.37a200.177,200.177,0,0,0-6.661,22.9,320.934,320.934,0,0,0-6.156,35.9c-.547,4.831-1.082,9.664-1.529,14.506-.343,3.744-.62,7.5-.784,11.255-.248,5.754-.5,11.512-.513,17.27-.014,5.623.2,11.249.445,16.87.179,4.154.434,8.312.883,12.444.453,4.172,1.1,8.325,1.821,12.459a61.085,61.085,0,0,0,5.738,17.863c1.151,2.218,2.691,2.9,5.278,2.091.223-.752.484-1.589.717-2.434,2.025-7.389,2.527-14.984,2.87-22.579.274-6.108.236-12.229.343-18.344,0-.294.042-.589.064-.885.182,2.043.131,4.078.191,6.112a197.292,197.292,0,0,1-.56,22.96,75.794,75.794,0,0,1-2.379,13.955,5.316,5.316,0,0,0-.1.987,2.681,2.681,0,0,0,2.713-1.686c.429-.923.963-1.8,1.39-2.72a78.635,78.635,0,0,0,5.291-17.755,167.187,167.187,0,0,0,2.1-17.908c.372-4.143.642-8.294,1.091-12.426.465-4.306.974-8.613,1.671-12.884,1.366-8.378,3.234-16.653,5.393-24.865,3.067-11.665,6.639-23.2,9.036-35.041.956-4.716,1.934-9.432,2.8-14.166.5-2.733.79-5.506,1.184-8.257a12.024,12.024,0,0,0-2.508-9.733,20.025,20.025,0,0,0-11.167-6.756,3,3,0,0,0-.744.033c-3.273,11.813-6.562,23.6-8.487,35.707,1.2-12.26,4.6-24.051,7.728-35.873a15.849,15.849,0,0,0-6.276-.693c-1.2,5.121-2.425,10.321-3.649,15.524a11.533,11.533,0,0,1,.162-2.228c.865-4.189,1.768-8.372,2.645-12.561a5.467,5.467,0,0,0,.007-.983A38.443,38.443,0,0,0,1708.656,263.392Zm-101.033,53.65.255-.08a1.915,1.915,0,0,1,.2.305c.443,1.06.905,2.114,1.308,3.189,5.517,14.765,11.709,29.247,18.381,43.526a154.654,154.654,0,0,0,13.707,24.263,31.476,31.476,0,0,0,3.517,4.138c1.6,1.585,3.375,3,5.076,4.495a58.656,58.656,0,0,0,9.394,6.716c.407.235.834.438,1.25.655l.173-.2c-.31-.339-.611-.684-.93-1.016a118.5,118.5,0,0,1-17.215-22.73A224.309,224.309,0,0,1,1626.2,343.7c-.6-1.644-1.1-3.326-1.693-5.159.261.162.361.186.385.243.206.487.409.976.591,1.472a290.735,290.735,0,0,0,12.619,29.661,125.944,125.944,0,0,0,24.151,34.131,10.205,10.205,0,0,0,5.486,2.983c.7.131,1.383.308,2.083.429a9.124,9.124,0,0,0,1.2.007c-12.375-13.491-21.4-28.807-28.6-45.252.124-.033.168-.016.184.015.449.865.9,1.726,1.337,2.6a214.973,214.973,0,0,0,14.892,25.886,149.694,149.694,0,0,0,12.909,16.213,3.14,3.14,0,0,0,1.71,1.164c2.039.416,4.057.927,6.084,1.392.27.06.551.066.989.115-.212-.392-.316-.631-.46-.843a137.147,137.147,0,0,1-10.886-20.07c-.888-1.927-1.874-3.813-2.877-5.685-3.076-5.736-6.285-11.4-9.252-17.2-4.745-9.266-8.644-18.915-12.51-28.572-2.744-6.856-5.566-13.679-7.79-20.729-.166-.531-.285-1.078-.427-1.62a7.631,7.631,0,0,1,.877,1.806q4.445,11.154,8.9,22.3a313.381,313.381,0,0,0,18.1,38.416c.268.476.553.943.832,1.414a2.322,2.322,0,0,0-.115-1.213c-1.164-4.09-2.454-8.146-3.461-12.273a81.2,81.2,0,0,1-2.623-16.646,7.873,7.873,0,0,0-.589-2.295q-3.156-8.943-6.342-17.875a9.373,9.373,0,0,1-.257-1.111,41.327,41.327,0,0,1,2.408,5.362c1.363,3.645,2.678,7.31,4.021,10.961.155.42.372.817.675,1.474.1-.463.139-.591.146-.719a64.63,64.63,0,0,1,1.3-10.14,4.6,4.6,0,0,0-.12-2.213c-.9-2.919-1.828-5.836-2.881-8.7a43.316,43.316,0,0,0-7.316-13.187,17.943,17.943,0,0,0-8.409-5.818c-5.077-1.6-10.063-1-15.013.586a3.886,3.886,0,0,0-.719.434c2.416,7.533,5.575,14.71,8.69,21.909a119.516,119.516,0,0,1-9.438-21.552l-2.357.354c.1.31.171.562.271.8,2.815,6.88,5.546,13.8,8.482,20.623,2.027,4.714,4.349,9.3,6.524,13.949.214.454.345.947.513,1.421l-.274.12c-.2-.372-.412-.739-.611-1.113a292.93,292.93,0,0,1-15.675-35.428,13.039,13.039,0,0,0-3.7-5.4c-.865-.759-1.766-1.481-2.688-2.169a9.9,9.9,0,0,0-4.267-1.75,14.734,14.734,0,0,0-1.591-.089c2.127,6.263,4.19,12.342,6.25,18.421l-.3.109c-2.622-6.008-4.442-12.329-6.876-18.448a6.71,6.71,0,0,0-3.138,1.3,15.983,15.983,0,0,0-5.991,8.084c-1.671,4.588-1.456,9.231-.39,13.884a71.681,71.681,0,0,0,5.094,14.387c6.653,14.205,13.4,28.364,20.108,42.545a2.909,2.909,0,0,0,1.359,1.385,33.606,33.606,0,0,1,3.351,1.9c3.229,2.186,6.415,4.433,9.62,6.654.358.248.719.487,1.08.733a3.4,3.4,0,0,0-.616-1.45,131.522,131.522,0,0,1-8.223-14.115,467.972,467.972,0,0,1-21.508-50.257C1608.816,320.523,1608.227,318.779,1607.623,317.042Zm155.458-3.716c.427-2.426.912-4.842,1.268-7.279.63-4.324,1.2-8.657,1.757-12.993.186-1.445.191-2.917.416-4.355a4.163,4.163,0,0,0-.741-3.253,17.872,17.872,0,0,0-6.152-5.579,22.951,22.951,0,0,0-18.355-1.642c-.086,1.206-.095,2.45-.281,3.667-.675,4.455-1.3,8.918-2.144,13.342-2.142,11.2-4.9,22.265-7.985,33.246-3.362,11.961-6.48,23.987-8.226,36.313-.795,5.6-1.441,11.227-2.029,16.852-.458,4.355-.746,8.73-1.069,13.1a100.161,100.161,0,0,1-2.164,14.546c-1.324,5.929-2.926,11.764-5.871,17.142a2.954,2.954,0,0,0-.16.633c1.85-.363,3.366-.949,4.145-2.691a9.024,9.024,0,0,1,.7-1.127,78.441,78.441,0,0,0,9.773-20.689,5.069,5.069,0,0,1,.316-.69l.243.089c-.706,2.268-1.347,4.561-2.131,6.8a77.337,77.337,0,0,1-7.648,15.144c-.237.383-.458.777-.812,1.376a5.5,5.5,0,0,0,3.258-1.943,72.072,72.072,0,0,0,8.626-13.38,136.326,136.326,0,0,0,9.83-26.877c1.992-7.524,3.579-15.135,4.836-22.816.927-5.667,1.9-11.326,2.846-16.991.834-5.008,1.6-10.032,2.5-15.029,1.359-7.564,3.357-14.984,5.283-22.418.12-.462.3-.91.458-1.363-1.058,5.344-2.423,10.6-3.448,15.916-1.542,8.02-2.875,16.08-4.247,24.131-1.193,7.011-2.268,14.044-3.479,21.05a198,198,0,0,1-6.708,27.415c-3.366,10.37-7.619,20.315-14.258,29.088a3.954,3.954,0,0,0-.292.728c.5-.243.784-.356,1.041-.509,6.681-3.99,11.985-9.3,15.15-16.467a116.877,116.877,0,0,0,5.062-13.136,296.145,296.145,0,0,1,13.136-35.506,162.445,162.445,0,0,0,7.81-21.61c3.005-10.392,5.935-20.8,6.433-31.7a37.794,37.794,0,0,0-1.618-13.517c-.14-.438-.345-.854-.52-1.279-.739,4.112-1.248,8.168-1.826,12.218A65.2,65.2,0,0,1,1763.081,313.326ZM1693.247,416.01l.232-.161c-.135-.4-.272-.808-.4-1.211-.75-2.268-1.562-4.517-2.233-6.807a142.284,142.284,0,0,1-4.286-20.081c-.646-4.55-1.295-9.1-1.782-13.674-.418-3.913-.672-7.847-.883-11.778-.31-5.836-.664-11.676-.73-17.516-.077-7.044.08-14.09.23-21.132.1-4.47.363-8.936.568-13.4.065-1.37.169-2.737.292-4.1q.471-5.285.983-10.565c.274-2.815.518-5.634.885-8.438.542-4.156,1.184-8.3,1.779-12.453.1-.726.186-1.456.288-2.253-.279.058-.429.047-.525.115-.754.547-1.509,1.089-2.239,1.664a30.813,30.813,0,0,0-10.492,14.09,38.021,38.021,0,0,0-1.948,11.621c-.137,5.05-.111,10.1-.161,15.155a47.229,47.229,0,0,0-.057,4.778c.327,3.563.783,7.115,1.239,10.662a143.9,143.9,0,0,0,3.28,17.7c.069.268.089.547.131.821l-.326.066a76.725,76.725,0,0,1-3.277-14.741c-.753-5.035-1.381-10.089-2.094-15.363-1,.9-1.932,1.644-2.749,2.5a26.6,26.6,0,0,0-6.542,12.428,51.129,51.129,0,0,0-1.476,16.334,93.315,93.315,0,0,0,1.395,9.859c2.7,14.289,8.062,27.6,15.084,40.27,1.866,3.366,4.07,6.546,6.1,9.824a3.993,3.993,0,0,0,1.7,1.405c2.427,1.279,4.822,2.618,7.227,3.935C1692.722,415.7,1692.983,415.857,1693.247,416.01ZM1673.69,271.19c-3.424.168-6.681.4-9.668,1.965-1.806.945-3.64,1.857-5.349,2.959a10.33,10.33,0,0,1-7.89,1.407c-1.739-.328-3.5-.551-5.265-.715a7.364,7.364,0,0,0-3.678.447,9.816,9.816,0,0,0,.086,1.37c.721,3.455,1.467,6.907,2.2,10.359a9.359,9.359,0,0,1,.108,1.025,54.077,54.077,0,0,1-3.293-12.614,10.512,10.512,0,0,0-4.039,1.631,155.5,155.5,0,0,0,4.161,17.815,7.862,7.862,0,0,1-1.195-2.313c-1.139-4.22-2.217-8.456-3.308-12.689-.182-.7-.314-1.41-.493-2.215-.383.228-.62.341-.828.5a14.69,14.69,0,0,0-4.077,4.676,30.679,30.679,0,0,0-3.881,16.21c.018.434.1.863.153,1.372.52-.057.951-.1,1.376-.157,1.445-.212,2.883-.5,4.335-.64,7.081-.693,13.125,1.405,17.872,6.821a35.334,35.334,0,0,1,6.21,9.859c1.33,3.233,2.461,6.548,3.68,9.826.159.429.323.854.586,1.543.633-1.334,1.058-2.4,1.631-3.384a4.5,4.5,0,0,0,.531-3.074c-.571-3.707-1.182-7.409-1.77-11.114-.089-.562-.142-1.133-.21-1.7l.258-.029c1.339,4.265,1.731,8.73,2.594,13.331.839-1.067,1.516-1.93,2.209-2.813-.427-9.835-2.1-19.519-3.357-29.256a178.849,178.849,0,0,1,4.127,28.316,24.7,24.7,0,0,1,1.928-1.622,3.068,3.068,0,0,0,1.385-2.837c-.029-1.638-.022-3.28,0-4.919a145.7,145.7,0,0,1,.536-15.533,31.694,31.694,0,0,1,9.662-19.623c.312-.3.606-.62.991-1.011a12.132,12.132,0,0,0-7.387-3.1c-.193,1.978.641,3.736.381,5.522l-.341.031C1674.343,275,1674.033,273.191,1673.69,271.19Zm23.582,148.073c-.139-.615-.21-.947-.292-1.277-.546-2.184-1.144-4.36-1.64-6.557a154.164,154.164,0,0,1-3.118-23.511c-.365-5.389-.509-10.8-.569-16.2-.055-5.05.058-10.1.233-15.15q.252-7.363.794-14.716c.352-4.849.815-9.693,1.33-14.531.476-4.479.952-8.969,1.673-13.415q1.646-10.131,3.654-20.2a181.555,181.555,0,0,1,8.255-29.174,9.464,9.464,0,0,0,.239-1.071,58.584,58.584,0,0,0-18.868,8.135c-.46,3.2-.964,6.342-1.35,9.494-.513,4.212-.967,8.427-1.385,12.647-.462,4.665-.932,9.33-1.257,14-.354,5.079-.6,10.167-.8,15.254-.159,4.163-.268,8.33-.23,12.495q.086,9.368.425,18.735c.166,4.554.454,9.107.817,13.65.345,4.318.734,8.64,1.328,12.931.77,5.557,1.649,11.1,2.691,16.615a100.96,100.96,0,0,0,5.3,18.463A7.264,7.264,0,0,0,1697.272,419.263Zm24.626,8.992c2.525.345,4.76.774,7.022-.513a53.384,53.384,0,0,0,13.457-11.134,91.9,91.9,0,0,0,12.594-18.693c7.8-14.933,12.778-30.863,16.423-47.237,1.3-5.816,2.346-11.691,3.4-17.56.591-3.3.976-6.641,1.42-9.97.323-2.408.6-4.822.877-7.237q.378-3.293.706-6.59c.263-2.727.5-5.457.737-8.186a8.931,8.931,0,0,0-.044-1.036,17.819,17.819,0,0,0-6.524,2.923c-.038.5-.053.894-.1,1.288-.46,3.871-.664,7.792-1.438,11.6a202.774,202.774,0,0,1-12.541,41.111,271.739,271.739,0,0,0-12.545,33.454,124.853,124.853,0,0,1-5.141,14.245,39.637,39.637,0,0,1-9,13.358,45.534,45.534,0,0,1-9.542,6.94,5.267,5.267,0,0,0-1.208.8c-.635.628-.558,1.2.294,1.976,1.432-.93,2.954-1.828,4.38-2.855a66.339,66.339,0,0,0,19.643-22.743,181.216,181.216,0,0,0,13.906-33.664c.179-.591.4-1.171.6-1.757a.43.43,0,0,1,.142.44c-.053.259-.111.518-.177.772a159.168,159.168,0,0,1-13.278,33.609c-5.6,10.726-13.214,19.678-23.566,26.144A4.554,4.554,0,0,0,1721.9,428.254Zm69.651-126.383c.066-.073-.071.009-.1.122-.146.509-.277,1.022-.388,1.54-1.215,5.747-2.2,11.554-3.689,17.228-2.773,10.561-5.791,21.057-8.8,31.553-2.866,9.992-5.893,19.937-9.616,29.652a109.4,109.4,0,0,1-12.791,24.711,60.279,60.279,0,0,1-13.459,14.238,75.766,75.766,0,0,1-11.568,6.772c-.389.188-.761.416-1.141.624l.12.268c1.131-.177,2.271-.319,3.392-.54,9.888-1.936,18.032-6.679,24.009-14.922a59.908,59.908,0,0,0,5.935-9.757q5.006-10.719,9.777-21.544c2.983-6.734,5.982-13.446,10.266-19.494,6.11-8.622,11.262-17.832,16.449-27.016a52.627,52.627,0,0,0,5.1-12.1,31.659,31.659,0,0,0,1.217-11.437,8.977,8.977,0,0,0-3.952-6.63,175.19,175.19,0,0,1-6.588,20.037,28.443,28.443,0,0,1,.848-3.45q2.367-7.937,4.736-15.876a10.688,10.688,0,0,0,.228-1.268,12.938,12.938,0,0,0-5.315-1.9C1794.7,302.431,1793.2,302.159,1791.549,301.871Zm-12.522-1.939c0,1.23.076,2.295-.013,3.344q-.441,5.351-.985,10.7c-.345,3.43-.646,6.867-1.142,10.277-.777,5.375-1.649,10.74-2.576,16.093a237.492,237.492,0,0,1-6.411,27.211,163.7,163.7,0,0,1-13.608,33.37c-4.718,8.454-10.3,16.235-17.755,22.542a1.7,1.7,0,0,0-.232.341,5.221,5.221,0,0,0,1.394-.615c7.19-4.189,12.771-10.054,17.549-16.772a107.891,107.891,0,0,0,11.957-22.469c3.567-8.876,6.409-18,9.126-27.16,5.03-16.95,10.295-33.837,13.577-51.251.277-1.465.624-2.917.967-4.512C1787.092,299.331,1783.25,299.207,1779.027,299.933Zm-150.562,87.228a42.205,42.205,0,0,0-.336,21.26,30.61,30.61,0,0,1-1.273-5,39.518,39.518,0,0,1,1.117-17.04c-1.272-1.2-2.443-2.412-3.72-3.492a18.533,18.533,0,0,0-6.42-3.665,4.183,4.183,0,0,0-2.861,0,5.859,5.859,0,0,0-3.955,4.315,17.274,17.274,0,0,0-.371,4.344,35.078,35.078,0,0,0,4.714,15.358c3.123,5.628,7.526,10.153,12.353,14.312a4.205,4.205,0,0,0,.608.314c-7.575-10.552-11.879-21.9-11.24-34.808a12.986,12.986,0,0,1,.255,2.308,55.489,55.489,0,0,0,1.257,9.985,56.874,56.874,0,0,0,7.6,18.156,31.358,31.358,0,0,0,10.939,11.016c.314.177.646.321,1.109.549-5.2-8.978-5.028-18.328-3.072-27.871A76.881,76.881,0,0,0,1628.465,387.161Zm56.171,26.7.026-.25c-.435-.2-.865-.409-1.308-.591a47.29,47.29,0,0,0-11.505-3.129,33.939,33.939,0,0,1-10.694-3.016,61.555,61.555,0,0,1-12.439-8.328c-3.512-2.983-6.914-6.106-10.56-8.912-3.61-2.777-7.449-5.26-11.22-7.825a13.176,13.176,0,0,0-3.9-1.841.809.809,0,0,0,.316.414,32.893,32.893,0,0,1,10.1,10.408c1.717,2.633,3.353,5.32,5,8a36.646,36.646,0,0,0,12.979,12.7c5.513,3.189,11.41,5.094,17.894,4.275a40.206,40.206,0,0,0,5.185-1.117,24.563,24.563,0,0,1,8.551-.795C1683.585,413.9,1684.112,413.859,1684.636,413.859Zm-30.726,17.768c8.511-1.467,14.741-6.371,19.789-13.119a13.914,13.914,0,0,0-2.605.3,19.533,19.533,0,0,1-6.86.21,39.066,39.066,0,0,1-10.748-3.709c-.427-.21-.859-.416-1.407-.682a55.153,55.153,0,0,1-5.13,15l1.339.5,2.149-2.357.142.128c-.522.8-1.042,1.6-1.607,2.47,3.4,1.919,6.039.3,8.649-1.576C1656.743,430.237,1655.3,430.894,1653.91,431.627ZM1641.1,417.86c.148,1,.281,1.994.449,2.985a16.505,16.505,0,0,0,2.512,6.778,3.241,3.241,0,0,0,2.175,1.6c2.757-4.619,4-9.744,5.307-14.978a55.87,55.87,0,0,1-11.734-9.773,42.062,42.062,0,0,0-.874,5.944,44.6,44.6,0,0,0,.5,10.182,14.375,14.375,0,0,0,2.242,5.763,2.888,2.888,0,0,0,1.7,1.416A18.43,18.43,0,0,1,1641.1,417.86Zm-.918,8.047c-2.793-7.4-2.326-14.82-.843-22.274-.628-.905-1.224-1.784-1.845-2.642a17.969,17.969,0,0,0-1.9-2.777,43.721,43.721,0,0,0-.11,17.994,20.634,20.634,0,0,0,3.153,7.83C1639.1,424.7,1639.667,425.284,1640.185,425.906Z" transform="translate(-1596.343 -260.669)" fill="#6a5975"></path><path id="Path_12" data-name="Path 12" d="M1645.859,374.684a4.07,4.07,0,0,1-.153-.724c-.107-2.7-.23-5.4-.291-8.093-.106-4.605-.272-9.213-.221-13.816.055-4.913.285-9.824.531-14.732.183-3.707.443-7.416.8-11.112.436-4.481,1.013-8.949,1.517-13.424a142.014,142.014,0,0,1,2.7-15.777c.434-1.892.909-3.773,1.376-5.656a1.207,1.207,0,0,1,.555-.783c-.089.474-.157.952-.268,1.419a156.416,156.416,0,0,0-3.08,16.241c-.551,4.468-1.137,8.934-1.569,13.415-.454,4.707-.761,9.427-1.1,14.143q-.83,11.665-.728,23.361c.046,4.65.162,9.3.243,13.951.009.527,0,1.053,0,1.58Z" transform="translate(-1537.097 -224.401)" fill="#6a5975"></path><path id="Path_13" data-name="Path 13" d="M1629.888,294.384c1.352,12.869,5.01,25.2,9.027,37.617-.923-.12-.936-.613-1.054-.991-1.58-5.147-3.3-10.257-4.685-15.456-1.168-4.382-2.025-8.854-2.87-13.314-.452-2.377-.591-4.813-.859-7.223a2.365,2.365,0,0,1,.086-.6Z" transform="translate(-1556.192 -219.771)" fill="#6a5975"></path></g><g id="Group_9" data-name="Group 9" transform="translate(59.149)"><path id="Path_20" data-name="Path 20" d="M1513.976,329.111c-.551-.788-1.093-1.54-1.611-2.313a13.852,13.852,0,0,1-2.35-7.1,21.22,21.22,0,0,1,2.864-11.587,10.756,10.756,0,0,1,5.245-4.526c.4-.179.8-.345,1.33-.573-.272-.5-.489-.92-.719-1.33a25.791,25.791,0,0,1-3.071-7.752,13.938,13.938,0,0,1,3.786-12.86,19.56,19.56,0,0,1,13.568-6.2,34.033,34.033,0,0,1,10.02.958c.591.146,1.193.25,1.95.407.037-.682.091-1.239.093-1.8a37.965,37.965,0,0,1,2.233-13.035,29.586,29.586,0,0,1,10.815-14.146,22.229,22.229,0,0,1,12.284-4.194,17.27,17.27,0,0,1,12.731,4.428c1.6,1.456,3.045,3.092,4.559,4.647a3.945,3.945,0,0,0,1.319.991q-.139-.813-.283-1.624a9.308,9.308,0,0,1,2.751-8.5,8.421,8.421,0,0,1,5.042-2.166,25.583,25.583,0,0,1,8.728.206c.39.073.785.108,1.345.181a9.374,9.374,0,0,0,.241-1.52,8.322,8.322,0,0,1,4.275-7.476c2.255-1.421,4.486-2.859,7.221-3.213a17.306,17.306,0,0,1,9.757,1.18c.323.148.657.27.971.432a9.59,9.59,0,0,0,6.816.808,17.338,17.338,0,0,1,9.811.81,10.918,10.918,0,0,1,6.408,5.466c.115.235.268.449.447.746.358-.08.7-.133,1.022-.23a14.037,14.037,0,0,1,10.59.969,26.936,26.936,0,0,1,7.106,5.092,155.425,155.425,0,0,0,12.181,10.9c.345.277.666.584,1.009.863a18.419,18.419,0,0,1,6.7,11.882c.613,3.895,1.1,7.81,1.613,11.718,1.578,11.946,3.176,23.89,4.705,35.842.941,7.338,2.049,14.672,2.563,22.042a141.631,141.631,0,0,1,.058,18.866,44.494,44.494,0,0,1-6.358,19.7,73.118,73.118,0,0,1-10.317,13.827,74.105,74.105,0,0,1-5.924,5.327,22.445,22.445,0,0,0-5.057,5.942,10.149,10.149,0,0,0-.5,9.228,32.7,32.7,0,0,0,6.042,9.334c4.136,4.685,8.419,9.239,12.555,13.926a678.945,678.945,0,0,1,61.915,82.428,714.542,714.542,0,0,1,53.991,100.354,529.788,529.788,0,0,1,26.08,72.9,341.085,341.085,0,0,1,8.075,37.26c.726,4.683,1.177,9.41,1.936,14.088,1.027,6.327,1.04,12.712,1.315,19.083.378,8.812.686,17.627,1.113,26.437a85.325,85.325,0,0,0,2.215,13.763c2.563,11.913,5.15,23.819,7.657,35.74a192.758,192.758,0,0,1,3.8,48.25q-.338,7.837-.706,15.672a12.354,12.354,0,0,1-.263,1.576c-1.191.266-1.573.109-1.717-.75a9.434,9.434,0,0,1-.035-1.854c.25-8.372.58-16.741.743-25.115a151.227,151.227,0,0,0-2.821-31.33c-1.777-9.31-3.855-18.563-5.792-27.842-1.421-6.809-2.952-13.6-4.2-20.439a82.587,82.587,0,0,1-1.218-11.22c-.475-11.025-.721-22.061-1.184-33.087-.144-3.443-.62-6.88-1.076-10.3-.677-5.092-1.553-10.158-2.2-15.254a202.117,202.117,0,0,0-4.249-21.358,493.288,493.288,0,0,0-26.087-77.938,717.308,717.308,0,0,0-70.265-127.374,645,645,0,0,0-56.481-71.2c-.812-.881-1.673-1.717-2.438-2.636a45.9,45.9,0,0,0-9.082-7.737,1.6,1.6,0,0,0-.221-.146c-4.709-2.47-9.626-4.01-15.035-3.4a9.673,9.673,0,0,0-5.75,2.773,48.518,48.518,0,0,1-10.731,8.009,28.952,28.952,0,0,1-12.023,3.494c-10.534.626-20.481-1.3-29.648-6.655-5.664-3.308-11.342-6.6-16.874-10.116-11.82-7.518-23.706-14.92-36.008-21.637-6.051-3.3-11.525-7.464-17.036-11.567q-2.988-2.221-5.885-4.563a32.343,32.343,0,0,1-7.829-9.644c-2.448-4.426-2.359-8.985-.772-13.628a7.011,7.011,0,0,1,2.248-3.236,1.947,1.947,0,0,0,.666-2.461c-1.356-3.669-1.259-7.48-.991-11.3C1513.744,330.868,1513.877,329.992,1513.976,329.111Zm7.283-9.171a17.238,17.238,0,0,0-4.846,8.062,29.79,29.79,0,0,0-.458,12.008,7.783,7.783,0,0,0,2.505,4.846c5.829,5.181,11.437,10.627,17.438,15.6,11.025,9.129,22.261,18,33.428,26.957a197.237,197.237,0,0,0,26.483,18.2c8.941,5.039,18.2,9.341,28.236,11.718a37.263,37.263,0,0,0,12.468,1.27c6-.6,9.945-3.924,13.061-8.834a6.893,6.893,0,0,0-.81.1,41.7,41.7,0,0,1-13.725.839A52.379,52.379,0,0,1,1621,407.409a120.716,120.716,0,0,1-24.162-12.729,250.665,250.665,0,0,1-24.94-19c-7.978-6.834-16.009-13.612-23.783-20.672-5.769-5.238-11.167-10.89-16.726-16.361-.071-.069-.077-.2-.115-.3a38.349,38.349,0,0,1,3.859,3.246c7.174,6.86,14.216,13.865,21.853,20.229,8.613,7.177,17.109,14.5,25.839,21.533a165.507,165.507,0,0,0,27.782,18.381c8.071,4.165,16.412,7.489,25.625,8.122a39.275,39.275,0,0,0,13.152-1.155,4.727,4.727,0,0,0,3.5-4.415c-.057-.064-.1-.153-.177-.188a7.426,7.426,0,0,0-.726-.316,119.8,119.8,0,0,1-23.305-11.791,265.5,265.5,0,0,1-25.405-19.05c-6.057-4.984-11.955-10.162-18.028-15.126a296.093,296.093,0,0,1-22.34-19.676c-2.056-2.06-4.216-4.017-6.327-6.022a1.518,1.518,0,0,1,.786.367c1.8,1.578,3.607,3.145,5.378,4.754,3.543,3.22,6.953,6.592,10.614,9.673q15.715,13.225,31.6,26.257a260.753,260.753,0,0,0,22.29,16.79,120.332,120.332,0,0,0,24.334,12.678c.476.175.96.321,1.536.511a3.959,3.959,0,0,0-1.385-3.84c-.854-.7-1.817-1.286-2.616-2.045-3.112-2.965-6.23-5.926-9.242-8.991-2.421-2.465-4.7-5.074-7.026-7.628a95.432,95.432,0,0,0-14.774-12.948,61.887,61.887,0,0,0-16.806-8.146,21.941,21.941,0,0,1-7.648-4.417,117.065,117.065,0,0,1-10.23-10.067q-3.393-3.834-6.814-7.642a93.633,93.633,0,0,0-19.543-16.511,48.119,48.119,0,0,0-10.392-5.012,28.164,28.164,0,0,0-16.62-.626c-.489.131-.958.334-1.246.436,1.863,1.99,3.66,3.941,5.495,5.858,1.852,1.934,3.915,3.671,5.426,5.931-4.172-3.658-8.206-7.458-12.108-11.309-2.361.688-4.707,2.109-5.448,3.282.168.188.334.394.518.582a211.712,211.712,0,0,0,18.753,17.3c1.381,1.111,2.722,2.271,4.065,3.426a2.779,2.779,0,0,1,.425.648A169.992,169.992,0,0,1,1521.259,319.94Zm151.511,74.707c.186-.1.379-.179.554-.292a29.181,29.181,0,0,0,11.813-15.106c2.456-6.913,3.229-14.126,3.649-21.373a104.543,104.543,0,0,0-1.075-19.866q-.9-6.768-2.042-13.5c-1.16-6.838-2.408-13.663-3.641-20.488-.9-4.957-1.837-9.905-2.746-14.86q-1.7-9.255-3.377-18.514-1.922-10.5-3.868-20.984a5.2,5.2,0,0,0-.77-2.461,26.221,26.221,0,0,0-9.014-6.674c-8.2-3.494-17.009,3.337-16.865,11.012a44.809,44.809,0,0,0,1.5,11.136c1.313,4.773,2.782,9.5,4.129,14.267,4.391,15.533,7.788,31.308,11.409,47.027,1.883,8.179,3.51,16.42,5.138,24.657.969,4.9,1.848,9.819,2.531,14.763.575,4.156.848,8.356,1.184,12.543a53.932,53.932,0,0,1-1.932,19.707c-.106.363-.177.737-.263,1.1l.281.184a14.945,14.945,0,0,0,1.334-1.359,25.97,25.97,0,0,0,4.043-8.46,79.26,79.26,0,0,0,2.875-20.568,162.891,162.891,0,0,0-.724-21.5c-.383-3.828-.661-7.668-1.153-11.481q-.883-6.832-2.06-13.626c-1.038-5.915-2.054-11.842-3.383-17.693-2.094-9.213-4.442-18.368-6.681-27.548-.2-.8-.385-1.6-.577-2.4a1.21,1.21,0,0,1,.52.728c.936,3.176,1.905,6.343,2.781,9.534,2.632,9.587,4.814,19.282,6.7,29.041.883,4.55,1.645,9.126,2.381,13.705.524,3.271.965,6.559,1.352,9.85.359,3.027.624,6.068.878,9.107.281,3.35.655,6.7.715,10.06.117,6.816.381,13.648-.48,20.442-.352,2.76-.711,5.521-1.229,8.252A44.091,44.091,0,0,1,1672.771,394.647ZM1550.807,258.662c.422.456.808.878,1.2,1.292,7.2,7.584,14.513,15.06,21.349,22.993,9.5,11.021,18.627,22.314,27,34.22,6.628,9.425,13.351,18.782,20.048,28.156a364.668,364.668,0,0,0,28.046,34.226c.23.252.5.471.75.7a9.764,9.764,0,0,0-1.078-2.211c-5.787-9.547-11.51-19.129-16.655-29.046-5.31-10.233-9.669-20.889-13.927-31.582-4.747-11.924-9.353-23.9-14.077-35.835-4.581-11.565-10.7-22.139-19.7-30.925-3.421-3.339-7.179-5.581-12.028-5.718a15.6,15.6,0,0,0-5.883.856,103.029,103.029,0,0,1,8.432,10.828,3.874,3.874,0,0,1-1.266-1.025c-2.423-2.826-4.831-5.665-7.257-8.489-.31-.363-.682-.673-.978-.963a6.7,6.7,0,0,0-3.344,1.618,197.13,197.13,0,0,1,16.035,20.824,6.177,6.177,0,0,1-2.259-2.3c-4.373-5.867-8.907-11.6-13.752-17.084-.314-.356-.653-.69-.949-1.007C1557.229,249.761,1552.518,254.838,1550.807,258.662Zm86.524-.584c2.288,9.23,4.865,18.255,6.393,27.53a5.661,5.661,0,0,1-.624-1.52q-3.067-12.14-6.125-24.279c-.089-.352-.246-.688-.414-1.144-1.279.965-2.461,1.733-3,3.154A23.742,23.742,0,0,0,1632,271.2a55.719,55.719,0,0,0,4.575,20.1c.887,2.078,1.774,4.156,2.637,6.245a53.75,53.75,0,0,1,4.264,23.611c-.21,3.893-.655,7.777-.787,11.671a112.851,112.851,0,0,0-.045,13.681c.79,9.053,2.769,17.855,7.19,25.941a141.469,141.469,0,0,1,8.947,18.977,19.829,19.829,0,0,0,1.443,2.6,5.98,5.98,0,0,0,.372-1.109c.2-2.47.469-4.937.544-7.411a77.912,77.912,0,0,0-.721-12.048,139.288,139.288,0,0,0-2.842-15.228c-1.441-6.008-2.972-11.995-4.459-17.992-.124-.5-.206-1.014-.305-1.52,1.2,3.505,2.151,7.037,3.107,10.567,2.647,9.768,5.225,19.559,5.765,29.727.186,3.525.084,7.073.007,10.607-.04,1.85-.31,3.694-.478,5.561a5.223,5.223,0,0,0,6.469,2.264c.121-.312.283-.671.409-1.042a45.638,45.638,0,0,0,2.346-12.481,88.616,88.616,0,0,0-.549-14.991q-.733-6.121-1.792-12.2c-1.124-6.4-2.275-12.793-3.618-19.147-1.8-8.476-3.729-16.921-5.705-25.354-2.331-9.941-4.7-19.873-7.192-29.774-1.35-5.355-2.99-10.64-4.519-15.949a77.1,77.1,0,0,1-2.477-12.384C1642.119,255.466,1639.771,256.748,1637.332,258.078Zm-86.945,1.321a26.493,26.493,0,0,0-2.3,6.446,43.523,43.523,0,0,0,.166,19.76,17.378,17.378,0,0,0,1.653,4.871,79.154,79.154,0,0,0,5.51,8.288,159.755,159.755,0,0,0,21.34,22.568q15.954,14.068,32.013,28.012a314.57,314.57,0,0,1,32.16,31.892c4.33,5.026,9.124,9.657,13.716,14.46.359.372.788.677,1.343,1.149a7.087,7.087,0,0,0,.642-1.556,6.017,6.017,0,0,0-.611-4.125,58.424,58.424,0,0,0-3.58-5.415c-2.182-2.733-4.553-5.316-6.841-7.965-4.811-5.564-9.788-10.992-14.393-16.719-9.218-11.468-17.877-23.367-26.149-35.53a471.389,471.389,0,0,0-40.487-51.121c-4.49-4.962-9.124-9.79-13.694-14.677A4.12,4.12,0,0,0,1550.387,259.4Zm103.4,125.73.208-.1c-.217-.513-.4-1.04-.655-1.534-2.7-5.291-5.426-10.563-8.1-15.863a195.768,195.768,0,0,1-11.1-27.174,143.1,143.1,0,0,1-4.893-20.813c-.984-5.763-1.821-11.563-3.1-17.264a215.254,215.254,0,0,0-8.96-29.834c-2.412-6.32-4.72-12.689-7.94-18.669-.036-.066,0-.173,0-.259a36.978,36.978,0,0,1,3.169,5.535,207.814,207.814,0,0,1,11.464,31.367c.173.631.407,1.244.613,1.865-.013-2.651-.283-5.251-.436-7.856-.206-3.492-.407-6.986-.44-10.483a47.113,47.113,0,0,0-4.176-19.6c-2.729-5.707-6.761-9.93-13.2-11.362a23.9,23.9,0,0,0-10.541-.19,6.039,6.039,0,0,0-3.919,2.74,7.988,7.988,0,0,0-.867,6.759,49.527,49.527,0,0,0,5.335,12.548,110.434,110.434,0,0,1,8.024,16.166c4.163,10.538,8.25,21.1,12.43,31.635,4.165,10.492,8.321,20.993,13.293,31.139,6.874,14.022,15.044,27.306,23.248,40.571A6.837,6.837,0,0,0,1653.787,385.129Zm-24.748,34.53.035-.288c-.593-.128-1.188-.257-1.781-.383s-1.213-.248-1.819-.378a97.065,97.065,0,0,1-22.292-8.047,185.079,185.079,0,0,1-34.662-22.608c-8.109-6.537-16.044-13.294-24.277-19.671a285.85,285.85,0,0,1-26.613-23.252,1.478,1.478,0,0,0-.356-.241c-.717.845-1.39,1.591-2.007,2.381a8.841,8.841,0,0,0-1.485,2.162c-1.471,3.935-1.635,7.858.4,11.7a29.155,29.155,0,0,0,7.834,9.622c4.03,3.12,8.111,6.174,12.2,9.211a100.1,100.1,0,0,0,11.558,7.327c11.162,6.115,22.02,12.738,32.713,19.634,5.812,3.749,11.758,7.268,17.742,10.733a51.436,51.436,0,0,0,26.919,7.026,29.734,29.734,0,0,0,16.3-4.924c.319-.208.608-.456,1.16-.874-1.735.33-3.163.564-4.574.874a35.589,35.589,0,0,1-8.961.724,57.691,57.691,0,0,1-9.3-1.379,94.428,94.428,0,0,1-24.411-8.345,251.775,251.775,0,0,1-25.855-14.984c-14.032-9.394-27.629-19.4-41.06-29.632-.828-.631-1.627-1.3-2.439-1.952a1.934,1.934,0,0,1,1.089.427c8.456,6.075,16.943,12.11,25.357,18.242a322.479,322.479,0,0,0,33.954,22.1,151.56,151.56,0,0,0,17.368,8.593,109.8,109.8,0,0,0,21.886,5.783C1625.423,419.543,1627.244,419.528,1629.039,419.658Zm43.7-170.909c.053.573.06.969.133,1.354q1.493,7.881,3.008,15.754c1.193,6.25,2.4,12.5,3.565,18.753,1.244,6.69,2.434,13.391,3.653,20.085,1,5.477,2.1,10.939,2.981,16.436,1.022,6.369,1.85,12.771,2.764,19.158a89.66,89.66,0,0,1,.927,13.767c-.042,3.623-.416,7.243-.7,10.861a62.851,62.851,0,0,1-1.9,10.963,33.681,33.681,0,0,1-7.772,14.776c-.2.219-.394.451-.591.679a20.621,20.621,0,0,0,3-2.634,74.216,74.216,0,0,0,10.541-14.314,42.245,42.245,0,0,0,5.69-18.129,143.991,143.991,0,0,0-.04-18.333c-.46-6.887-1.507-13.736-2.383-20.59-1.053-8.217-2.217-16.421-3.3-24.633-1.016-7.73-1.965-15.471-2.974-23.2-.644-4.942-2.644-9.166-6.692-12.264-.42-.323-.814-.684-1.215-1.034q-4.109-3.578-8.219-7.159A4.507,4.507,0,0,0,1672.736,248.75Zm-158.275,77.5c.212-.144.316-.175.347-.241.153-.319.281-.648.429-.972a19.272,19.272,0,0,1,8.263-9.253,28.516,28.516,0,0,1,16.828-3.264,34.955,34.955,0,0,1,10.713,2.957c.418.184.852.332,1.279.5a1.994,1.994,0,0,0-.613-.936,17.883,17.883,0,0,1-6.238-12.92,2.176,2.176,0,0,0-.691-1.332c-1.527-1.414-3.118-2.76-4.683-4.134-.378-.332-.745-.682-1.117-1.022l.224-.268c2.266,1.217,4.066,3.094,6.2,4.782.237-1.5.44-2.8.67-4.276q-6.9-5.653-13.866-11.355l.2-.254a139.6,139.6,0,0,1,13.975,10.844c.25-.509.383-.837.564-1.135a4.817,4.817,0,0,0,.3-4.311,56.6,56.6,0,0,1-1.512-6.32c-.3-1.465-.437-2.963-.664-4.563-.87-.35-1.7-.764-2.58-1.029a26.3,26.3,0,0,0-8.677-.967,18.209,18.209,0,0,0-12.362,5.127,12.19,12.19,0,0,0-3.532,12.749A30.424,30.424,0,0,0,1521.29,302c.952,1.616.635,2.421-1.1,3-.336.113-.68.208-1.007.339a8.507,8.507,0,0,0-4.391,3.505,18.732,18.732,0,0,0-2.822,10.9A11.2,11.2,0,0,0,1514.461,326.251Zm35.468-34.191c-.361.883-.629,1.673-1,2.414a16.451,16.451,0,0,0-1.24,9.737,13.884,13.884,0,0,0,3.638,7.686,27.312,27.312,0,0,0,2.324,2.37c4.236,3.638,8.513,7.223,12.747,10.859,2.553,2.193,5.161,4.335,7.549,6.7,2.832,2.8,5.5,5.774,8.155,8.75a153.08,153.08,0,0,0,11.665,12,24.777,24.777,0,0,0,9.051,5.369,64.359,64.359,0,0,1,21.281,11.742,140.583,140.583,0,0,1,14.192,13.971c3.22,3.534,6.312,7.21,10.007,10.275a33.337,33.337,0,0,0,4.3,2.835,7.345,7.345,0,0,0,1.83.52.983.983,0,0,0-.308-.724c-5.48-5.121-10.452-10.722-15.431-16.314-5.274-5.926-10.447-11.957-16.358-17.264q-18.845-16.91-37.863-33.631c-7.6-6.668-15.217-13.291-21.978-20.838-4.441-4.955-8.739-10.014-12.067-15.816A6.47,6.47,0,0,0,1549.929,292.061ZM1625.3,231.3l-.193.279c.562,1.764,1.164,3.516,1.677,5.3.5,1.739.952,3.5,1.353,5.26.411,1.808.743,3.632,1.1,5.451a21.943,21.943,0,0,1,.675,5.333c-1.875-7.332-3.028-14.854-5.978-21.849a15.089,15.089,0,0,0-5.8.035,16.68,16.68,0,0,0-6.066,2.917c-2.846,1.852-3.537,3.55-3.123,7.8a1.244,1.244,0,0,0,.19.184,1.885,1.885,0,0,0,.352.181c5.054,1.879,8.5,5.595,10.981,10.162a48.277,48.277,0,0,1,5.287,15.759c.13.841.292,1.677.438,2.516l.268.016c.31-.854.615-1.713.927-2.567a22.856,22.856,0,0,1,5.393-8.9,24.855,24.855,0,0,1,5.758-4.012c1.64-.865,3.273-1.744,5.028-2.678-.422-5.816,2.359-9.974,7.086-13.035a8.617,8.617,0,0,0-.292-.832,8.928,8.928,0,0,0-5.1-4.415c-4.149-1.627-8.312-1.2-12.57-.086.42,1.79.914,3.532,1.222,5.3s.81,3.563.332,5.4a81.606,81.606,0,0,0-2.459-10.928C1629.535,233,1627.417,232.15,1625.3,231.3Zm16.493,123.875.17-.055c-.037-.248-.075-.5-.11-.748-.389-2.671-.932-5.331-1.135-8.018a134.7,134.7,0,0,1,.6-21.765,55.181,55.181,0,0,0-.779-16.266,72,72,0,0,0-4.7-13.814,61.974,61.974,0,0,1-4.322-13.229,41.212,41.212,0,0,1-.668-13.342c.153-1.115.389-2.22.589-3.328a14,14,0,0,0-1.689,3.149,44.33,44.33,0,0,0-3.4,17.35c.042,2.038.137,4.074.257,6.108a40.96,40.96,0,0,0,.407,4.364c.507,3.012,1.151,6,1.68,9.009,1.115,6.369,2.151,12.751,3.3,19.114a147.879,147.879,0,0,0,9.295,30.438C1641.419,354.5,1641.618,354.837,1641.793,355.18Z" transform="translate(-1509.984 -228.815)" fill="#6a5975"></path><path id="Path_21" data-name="Path 21" d="M1579.98,319.754c-.77.478-1.144.042-1.507-.19-1.939-1.241-3.9-2.452-5.774-3.789a298.254,298.254,0,0,1-28.017-22.371c-.652-.6-1.266-1.237-1.887-1.868-.04-.04-.007-.153-.007-.458A359.912,359.912,0,0,0,1579.98,319.754Z" transform="translate(-1470.209 -153.29)" fill="#6a5975"></path><path id="Path_22" data-name="Path 22" d="M1574.254,266.741c2.193,3.875,10.229,34.505,9.861,37.229C1580.86,291.688,1577.591,279.344,1574.254,266.741Z" transform="translate(-1432.024 -182.811)" fill="#6a5975"></path><path id="Path_23" data-name="Path 23" d="M1551.693,274.82c.078.007.195-.02.228.022q17.175,20.7,34.333,41.41c.208.252.359.553.673,1.045C1583.255,314.555,1553.037,278.036,1551.693,274.82Z" transform="translate(-1459.391 -173.013)" fill="#6a5975"></path><path id="Path_24" data-name="Path 24" d="M1529.983,264.7a4.76,4.76,0,0,1,.7.491c9.536,9.478,19.955,17.952,30.208,26.616a17.183,17.183,0,0,1,1.313,1.372l-.2.248a1.814,1.814,0,0,1-.4-.184,363.549,363.549,0,0,1-29.243-25.485c-.905-.892-1.742-1.852-2.612-2.782Z" transform="translate(-1486.013 -185.284)" fill="#6a5975"></path></g></g></svg>